<svg width="1119" height="818" viewBox="0 0 1119 818" fill="none" xmlns="http://www.w3.org/2000/svg">
<path d="M1118.11 618.276C1096.42 580.156 1094.63 536 1087.96 493.741C1080.25 444.942 1085.08 393.83 1090.81 345.12C1094.99 309.652 1100.32 274.463 1106.16 239.14C1112.2 202.56 1113.29 164.013 1113.29 126.915C1113.29 106.81 1111.69 87.004 1111.69 66.9674C1111.69 51.857 1114.9 37.4076 1114.9 22.5415" stroke="white" stroke-linecap="round" stroke-linejoin="round"/>
<path d="M1114.9 22.5412C1103.64 8.67715 1079.59 4.87793 1062.71 4.87793C1053.62 4.87793 1045.02 5.15189 1036.13 7.37577C1010.38 13.8126 982.304 13.9652 955.93 16.1182C891.866 21.348 826.837 22.4684 763.24 33.0678C737.41 37.3728 710.63 37.692 684.469 38.5095C642.78 39.8123 600.069 40.027 558.417 38.2419C520.903 36.6342 483.969 29.6592 446.55 27.7153C421.461 26.412 396.111 27.3585 370.99 27.3585C349.95 27.3585 329.166 27.0407 308.187 25.8419C299.427 25.3414 290.803 25.3579 282.049 24.5038C274.202 23.7382 266.011 21.2203 258.32 20.9355C232.592 19.9826 207.498 16.1182 181.779 16.1182C167.922 16.1182 154.065 16.1182 140.208 16.1182" stroke="white" stroke-linecap="round" stroke-linejoin="round"/>
<path d="M140.208 16.1183C122.66 16.1183 103.757 16.6591 87.218 9.69525C79.463 6.42999 70.7523 7.08534 62.7749 4.52115C55.3926 2.14827 42.339 -0.362532 34.585 2.02332C26.9048 4.38644 20.6956 9.15275 12.6397 11.301C3.72528 13.6782 0.507324 13.4714 0.507324 22.5413C0.507324 36.3983 0.507324 50.2554 0.507324 64.1124C0.507324 81.5973 0.507324 99.0822 0.507324 116.567C0.507324 153.172 6.92129 188.689 11.0339 224.955C21.7403 319.367 26.1994 413.358 26.1994 508.282C26.1994 557.536 22.9879 606.421 22.9879 655.743C22.9879 685.242 22.9879 714.74 22.9879 744.238C22.9879 757.975 22.6351 770.665 18.9735 783.847C17.1211 790.515 18.1706 798.409 18.1706 805.346C18.1706 807.452 17.809 819.718 19.7764 815.783" stroke="white" stroke-linecap="round" stroke-linejoin="round"/>
<path d="M19.7764 814.178C99.961 814.178 180.899 817.169 260.996 814.088C284.525 813.184 308.62 810.506 331.471 805.257C355.68 799.695 383.383 801.332 408.012 801.332C440.733 801.332 473.249 804.543 506.052 804.543C530.284 804.543 554.042 803.298 578.133 800.44C643.549 792.678 710.436 796.514 776.265 796.514C796.597 796.514 816.87 798.12 837.105 798.12C853.158 798.12 869.466 797.185 885.456 798.477C934.338 802.427 982.317 804.543 1031.4 804.543" stroke="white" stroke-linecap="round" stroke-linejoin="round"/>
<path d="M1031.5 804.5C1035.9 791.899 1038 787.32 1038 773.728C1038 750.48 1023.1 740.321 1012.55 722.583C1002.97 706.472 995.116 692.113 982.819 678.064C969.31 662.63 955.707 643.012 939.603 631.267C916.696 614.559 893.869 594.561 866.296 589.232C855.557 587.157 845.987 583.913 834.955 583.641C824.588 583.386 813.196 581.815 802.99 579.5C796.785 578.092 789.733 577.271 784.864 572.253C780.405 567.657 782.453 555.542 782.453 549.165C782.453 540.472 784.06 532.802 784.06 524.006C784.06 508.543 780.717 493.647 779.328 478.348C777.419 457.324 779.239 435.07 779.239 413.951C779.239 393.871 767.438 375.667 756.738 360.424C745.661 344.644 730.745 339.68 716.647 329.053C707.044 321.816 695.844 300.94 683.163 300.375C674.452 299.986 665.324 296.331 657.001 291.989C635.356 280.695 608.792 283.71 587.712 271.489C582.08 268.224 570.279 270.557 564.408 270.557C554.541 270.557 543.133 268.639 533.692 272.007C529.115 273.64 524.199 270.097 521.727 276.148C519.093 282.596 520.316 292.399 520.477 299.339C520.986 321.149 546.378 312.431 558.158 313.523C565.9 314.242 572.739 328.329 563.872 328.329C560.39 328.329 556.908 328.329 553.425 328.329C546.235 328.329 554.237 330.562 560.242 330.562C564.746 330.562 564.486 332.38 561.908 335.369C559.389 338.289 555.653 337.887 552.264 339.096C547.469 340.807 537.09 340.934 532.621 338.578C529.097 336.721 526.906 333.633 526.906 340.442C526.906 343.417 528.449 353.666 526.549 355.869C523.737 359.13 510.76 354.86 507.798 353.177C503.768 350.886 487.782 342.568 486.815 336.404C485.485 327.919 486.002 316.312 486.815 307.829C488.303 292.298 496.213 276.536 505.298 266.002C515.598 254.059 525.631 255.648 540.3 255.648C554.348 255.648 568.396 255.648 582.444 255.648C603.755 255.648 625.065 255.648 646.376 255.648C660.96 255.648 675.544 255.648 690.128 255.648C705.084 255.648 718.644 262.343 732.987 266.83C746.79 271.149 785.514 277.983 794.954 259.376C806.767 236.089 847.271 244.467 866.743 244.467C903.856 244.467 943.651 241.451 974.604 268.797C986.482 279.29 1001.03 297.031 1001.03 315.284C1001.03 323.582 981.867 332.215 980.23 323.67C977.797 310.976 965.554 326.713 960.497 328.743C954.463 331.164 943.335 337.065 944.871 324.602C945.506 319.445 954.425 316.223 954.425 311.556C954.425 306.066 949.525 297.071 946.032 293.956C933.609 282.875 919.149 285.466 904.066 285.466C879.064 285.466 854.063 285.466 829.062 285.466C817.553 285.466 810.018 282.842 802.633 293.852C796.01 303.726 796.918 317.205 796.918 329.364C796.918 351.116 798.349 373.935 794.507 395.315C792.939 404.044 792.096 412.22 792.096 421.094C792.096 425.509 793.273 432.415 791.739 436.417C789.902 441.21 789.35 446.262 788.793 451.43C788.377 455.287 788.313 466.271 786.293 469.134C779.162 479.239 769.26 479.471 758.434 481.04C743.107 483.261 748.702 460.447 748.702 448.013C748.702 438.104 753.15 428.682 751.827 418.713C750.83 411.203 745.81 404.906 743.076 398.214C739.744 390.056 735.187 379.98 729.772 373.469C724.397 367.006 719.481 361.565 716.915 352.97C713.84 342.67 689.759 343.237 681.913 343.237C675.964 343.237 668.972 342.003 663.519 345.515C656.893 349.784 665.526 352.555 668.341 352.555C681.218 352.555 687.174 351.287 699.057 345.929C707.945 341.922 716.961 337.012 726.201 334.334C731.733 332.73 737.776 333.023 742.987 330.606C749.706 327.49 761.831 330.192 768.881 330.192C778.227 330.192 787.572 330.192 796.918 330.192C809.807 330.192 820.69 331.392 833.17 334.023C837.684 334.975 844.646 340.273 846.384 345.515C849.931 356.207 845.811 356.582 836.384 356.283C815.489 355.619 795.102 339.33 774.417 347.896C762.494 352.834 749.447 356.859 760.041 371.191C770.79 385.731 767.988 408.762 767.988 426.478C767.988 439.793 770.319 453.794 764.059 465.199C760.088 472.436 761.559 487.655 761.559 496.052C761.559 508.016 767.302 513.097 771.203 522.143" stroke="white" stroke-linecap="round" stroke-linejoin="round"/>
</svg>
