<svg width="1161" height="796" viewBox="0 0 1161 796" fill="none" xmlns="http://www.w3.org/2000/svg">
<path d="M1144.39 611.105C1116.97 573.817 1118.19 518.808 1126.87 475.412C1132.75 446.002 1133.26 416.199 1136.72 386.451C1139.63 361.46 1143.23 336.959 1147.43 312.215C1151.69 287.122 1157.22 260.252 1157.53 234.815C1158.43 161.639 1157.53 -57.9096 1157.53 15.2715" stroke="white" stroke-linecap="round" stroke-linejoin="round"/>
<path d="M1159.72 4.31855C1016.28 4.31855 872.84 4.31855 729.399 4.31855C662.832 4.31855 597.695 17.4619 531.153 17.4619C479.634 17.4619 428.115 17.4619 376.596 17.4619C334.932 17.4619 293.3 11.2835 251.612 10.8902C212.276 10.5192 174.028 4.31855 134.539 4.31855C112.268 4.31855 89.9973 4.31855 67.7266 4.31855C57.6685 4.31855 25.0106 3.71447 25.0106 16.3667C25.0106 87.5679 21.0941 158.378 20.6295 229.46C20.4105 262.967 16.3787 296.318 14.5446 329.739C12.9159 359.416 14.1139 389.123 12.354 418.822C10.1995 455.18 5.13589 491.466 3.22665 527.742C0.185639 585.521 0.91439 643.449 0.91439 701.405C0.91439 726.182 6.76094 749.029 9.79835 773.328C10.4366 778.434 11.9347 792.955 16.2483 795.112" stroke="white" stroke-linecap="round" stroke-linejoin="round"/>
<path d="M14.1328 793.077C139.753 793.077 265.373 793.077 390.993 793.077C411.888 793.077 431.346 789.453 451.955 787.012C465.724 785.381 479.858 784.491 493.005 779.844C504.069 775.932 515.167 771.104 524.742 764.159C537.109 755.189 543.994 739.906 552.251 727.521C573.244 696.031 594.999 662.113 623.996 637.334C641.362 622.494 656.133 607.842 678.525 600.695C692.222 596.324 706.636 593.466 721.045 593.466" stroke="white" stroke-linecap="round" stroke-linejoin="round"/>
<path d="M719.207 595.889C739.933 597.271 754.963 620.921 772.691 630.77C774.973 632.038 780.148 635.757 782.768 634.301C785.591 632.733 786.426 627.969 787.763 625.344C791.562 617.888 797.287 611.212 803.008 605.191C827.394 579.521 847.559 551.031 873.889 527.333C875.38 525.991 895.629 539.956 899.382 542.319C905.534 546.192 899.829 545.49 895.937 549.381C889.138 556.18 884.812 565.924 878.712 573.41C865.931 589.097 849.2 603.298 834.271 616.904C821.257 628.765 808.895 641.853 796.893 654.713C794.492 657.285 776.852 682.007 773.38 675.642C763.772 658.027 737.354 656.138 721.446 647.048C713.695 642.619 714.556 638.852 714.556 630.34C714.556 619.664 712.865 607.324 717.312 597.44C728.416 572.764 743.788 551.386 763.476 532.07C773.952 521.792 782.451 509.659 795.601 502.443C816.554 490.944 845.766 486.806 869.238 483.409C888.882 480.566 915.306 477.337 934.608 483.581C969.746 494.95 982.501 546.535 982.752 578.147C982.832 588.274 983.141 598.517 982.752 608.636C982.161 623.998 972.33 638.173 964.752 651.01C945.251 684.042 920.879 709.573 884.396 723.355C858.108 733.287 829.954 735.928 802.663 741.614C786.757 744.928 768.697 746.41 752.624 743.164C712.485 735.059 678.9 700.194 678.9 659.45" stroke="white" stroke-linecap="round" stroke-linejoin="round"/>
</svg>
