<svg width="1141" height="813" viewBox="0 0 1141 813" fill="none" xmlns="http://www.w3.org/2000/svg">
<path d="M1128.37 614.413C1128.37 589.883 1128.37 565.352 1128.37 540.822C1128.37 526.674 1129.81 511.487 1127.4 497.526C1124.17 478.802 1124.5 459.659 1124.5 440.694C1124.5 417.031 1122.57 393.471 1122.57 369.896C1122.57 321.278 1120.63 273.005 1120.63 224.433C1120.63 183.242 1133.07 142.83 1134.17 101.959C1134.79 79.1918 1133.07 57.1194 1137.93 35.2436C1139.36 28.8185 1139.97 20.6231 1139.97 13.9719C1139.97 4.48945 1138.78 5.26987 1129.12 5.26987C1067.56 5.26987 1005.67 -2.97811 944.229 3.76581C919.208 6.51203 894.047 3.99383 869.026 6.77392C853.997 8.44381 837.923 11.0712 822.83 11.0712" stroke="white" stroke-linecap="round" stroke-linejoin="round"/>
<path d="M822.829 11.0715C720.839 11.0715 618.85 11.0715 516.86 11.0715C472.741 11.0715 428.622 11.0715 384.503 11.0715C354.391 11.0715 323.509 12.9139 293.508 9.99716C241.854 4.97523 190.631 5.27013 138.697 5.27013C101.415 5.27013 64.3177 3.33634 27.0749 3.33634C24.1389 3.33634 10.8053 1.75033 10.6377 5.27013C8.89401 41.8873 10.6377 79.0468 10.6377 115.711C10.6377 279.277 6.77011 443.105 6.77011 606.571C6.77011 643.057 10.6652 681.773 5.69579 717.978C3.34902 735.076 0.96875 751.861 0.96875 769.116C0.96875 773.72 3.58534 783.495 5.80322 787.487C9.00887 793.258 3.05862 803.332 10.6377 805.858" stroke="white" stroke-linecap="round" stroke-linejoin="round"/>
<path d="M10.6387 801.991C75.9577 801.991 141.277 801.991 206.596 801.991C245.718 801.991 284.788 800.821 323.697 804.999C376.635 810.683 431.877 811.307 485.061 811.66C531.097 811.965 577.064 811.737 622.79 805.858C666.289 800.266 710.037 801.991 753.858 801.991C773.122 801.991 792.513 802.638 811.764 801.883C828.833 801.214 846.742 795.203 863.224 791.247C912.711 779.371 964.064 761.381 1015.46 761.381C1018 761.381 1040.3 760.932 1038.45 759.447C1035.76 757.297 1037.48 746.389 1037.48 743.01C1037.48 730.345 1041.35 719.011 1041.35 706.268C1041.35 700.201 1042.56 692.855 1041.24 686.93C1040.81 684.998 1037.83 672.942 1036.41 672.534C1027.01 669.849 1011.34 685.656 1002.78 688.864C991.392 693.134 978.787 691.968 966.789 693.269C940.506 696.119 914.109 695.632 887.719 695.632C837.734 695.632 787.726 696.087 737.743 695.632C693.791 695.233 645.845 674.702 613.981 644.924C569.326 603.194 533.213 544.604 532.761 481.841C532.554 453.078 542.988 428.769 556.934 403.845C570.289 379.976 584.565 354.34 604.956 335.733C638.585 305.046 679.546 286.186 724.851 281.802C772.877 277.154 821.194 275.025 869.455 276C908.595 276.791 946.038 291.208 980.971 307.371C1005.56 318.749 1020.93 346.374 1035.33 367.533C1067.46 414.726 1066.49 469.362 1066.49 524.17C1066.49 557.949 1063.75 589.982 1045.32 619.463C1034.66 636.522 1018.67 646.444 1002.24 656.527C968.006 677.536 931.436 696.626 890.082 697.566C861.42 698.218 833.251 701.434 804.459 701.434C789.517 701.434 769.78 700.943 755.255 696.707C748.598 694.765 741.983 696.156 735.379 693.699C729.765 691.609 724.796 689.417 719.372 686.823C699.178 677.165 679.345 666.822 658.243 658.783C634.062 649.571 608.056 630.488 592.924 609.471C582.02 594.327 579.272 571.21 573.371 553.929C563.681 525.55 561.768 501.623 561.768 471.85C561.768 441.823 563.967 410.534 581.106 384.507C588.617 373.103 599.12 361.685 608.179 351.418C616.918 341.514 625.891 328.918 638.045 322.841C653.033 315.347 670.499 311.769 686.175 305.759C704.815 298.614 724.741 293.055 744.189 288.463C757.739 285.263 775.377 279.868 789.526 279.868C795.123 279.868 807.822 275.695 812.301 277.934C812.701 278.134 806.58 280.862 806.5 280.942C804.404 283.038 805.426 288.393 805.426 291.041C805.426 303.858 805.245 316.687 805.426 329.502C805.762 353.377 812.23 377.524 814.665 401.267C816.274 416.957 815.094 433.189 815.094 448.967C815.094 453.044 812.789 489.578 816.169 490.543C825.777 493.289 845.621 467.957 852.911 462.611C863.728 454.678 874.254 445.081 885.57 438.009C893.063 433.326 902.07 431.1 908.668 425.009C915.252 418.932 921.897 412.855 928.221 406.531C935.608 399.144 929.587 405.564 920.701 405.564C911.115 405.564 904.529 414.753 898.247 421.034C883.94 435.342 867.739 448.837 850.332 459.281C839.216 465.95 833.225 473.595 824.334 482.486C810.094 496.725 815.094 467.928 815.094 459.066C815.094 428.097 812.822 395.786 815.202 364.847C816.584 346.875 822.83 330.142 822.83 311.99C822.83 301.927 822.83 291.865 822.83 281.802C822.83 273.565 820.896 265.737 820.896 257.629C820.896 250.968 811.227 256.42 811.227 262.464" stroke="white" stroke-linecap="round" stroke-linejoin="round"/>
</svg>
