<svg width="1148" height="819" viewBox="0 0 1148 819" fill="none" xmlns="http://www.w3.org/2000/svg">
<path d="M1132.5 609C1124 600 1129.03 588.985 1129.03 578.112C1129.03 568.811 1129.03 559.51 1129.03 550.209C1129.03 537.908 1132.05 526.874 1133.43 514.8C1134.77 503.088 1135.85 489.506 1138.57 478.085C1141.57 465.491 1141.92 449.595 1142.24 436.639C1142.74 417.101 1146.36 397.61 1146.65 378.058C1146.8 367.892 1146.65 357.713 1146.65 347.544C1146.65 339.05 1143.71 331.03 1143.71 322.578C1143.71 302.27 1137.73 281.513 1134.17 261.55C1129.8 237.109 1133.43 209.13 1133.43 184.205C1133.43 174.014 1132.37 163.107 1134.17 153.038C1136.08 142.326 1140.07 132.945 1140.86 121.953C1142.5 98.9007 1145.18 76.167 1145.18 53.0112" stroke="white" stroke-linecap="round" stroke-linejoin="round"/>
<path d="M1145.18 53.0113C1145.18 42.2417 1145.18 31.4721 1145.18 20.7024C1145.18 16.7592 1147.08 5.14136 1144.37 2.42669C1140.13 -1.80492 1126.09 5.11828 1121.6 6.01657C1115.33 7.27085 1109.12 6.70921 1102.92 7.81151C1096.66 8.92475 1090.12 11.4414 1083.83 11.8909C1073.62 12.6202 1064.23 14.8281 1053.8 14.8281C1037.24 14.8281 1020.68 14.8281 1004.12 14.8281C993.014 14.8281 981.829 15.2461 970.746 14.5017C949.059 13.0452 927.892 7.55234 906.292 5.69022C881.162 3.52386 856.519 3.0794 831.312 3.0794C813.393 3.0794 796.294 7.40662 778.525 8.62739C758.112 10.0298 737.292 8.95374 716.844 8.95374C679.537 8.95374 642.245 10.4223 604.905 10.4223C565.028 10.4223 525.31 14.5307 485.46 14.8281C422.672 15.2967 359.864 14.8281 297.073 14.8281C263.948 14.8281 230.824 14.8281 197.699 14.8281C174.378 14.8281 152.906 6.01657 129.736 6.01657C109.185 6.01657 89.0032 4.54798 68.708 4.54798" stroke="white" stroke-linecap="round" stroke-linejoin="round"/>
<path d="M68.7083 4.54793C51.866 4.54793 35.5305 3.07935 18.7764 3.07935C4.7355 3.07935 1.15332 13.0203 1.15332 25.1081C1.15332 32.0752 4.37812 37.7432 5.88543 44.5261C8.45248 56.0778 8.49625 66.924 8.49625 78.7931C8.49625 104.558 7.02766 130.558 7.02766 156.465C7.02766 215.709 5.55908 274.892 5.55908 334.164C5.55908 368.578 0.799724 404.234 4.41684 438.597C7.74982 470.26 12.902 501.175 12.902 533.076C12.902 551.702 14.3706 570.698 14.3706 589.045" stroke="white" stroke-linecap="round" stroke-linejoin="round"/>
<path d="M14.3706 589.045C14.3706 614.189 20.2371 638.509 23.5085 663.454C25.5589 679.088 24.6507 695.091 24.6507 710.856C24.6507 727.499 18.7764 742.416 18.7764 759.075C18.7764 773.099 18.2625 786.939 17.2262 800.929C17.0223 803.681 12.7411 815.862 14.697 817.818C16.3493 819.471 39.0073 806.917 42.3553 805.662C60.0953 799.009 79.0864 797.581 97.4273 793.913C110.021 791.394 124.409 793.179 137.242 793.179C150.244 793.179 163.087 791.71 175.997 791.71C193.157 791.71 210.318 791.71 227.479 791.71C257.92 791.71 287.334 798.876 317.552 800.603C330.972 801.37 343.753 803.459 357.367 803.459C375.402 803.459 392.845 804.685 410.807 806.396C427.235 807.96 443.657 809.333 460.168 809.333C469.899 809.333 479.057 806.396 488.724 806.396" stroke="white" stroke-linecap="round" stroke-linejoin="round"/>
<path d="M488.724 806.396C527.995 806.396 567.266 806.396 606.537 806.396C665.258 806.396 723.634 810.802 782.278 810.802C811.91 810.802 841.232 811.236 870.556 806.396C892.143 802.833 913.734 799.707 935.5 797.258C951.405 795.469 967.612 793.708 983.311 790.568C987.982 789.634 998.646 788.125 1001.26 783.551C1006.86 773.752 999.792 767.693 999.792 757.198C999.792 744.966 996.854 733.128 996.854 720.973C996.854 690.971 995.386 661.52 995.386 631.634" stroke="white" stroke-linecap="round" stroke-linejoin="round"/>
<path d="M995.386 631.634C995.386 590.296 995.386 548.958 995.386 507.62C995.386 494.482 994.84 481.67 993.836 468.621C993.117 459.278 994.926 444.908 991.307 436.312C988.393 429.393 990.98 416.735 990.98 409.225C990.98 396.008 990.98 382.791 990.98 369.573C990.98 349.11 989.512 328.541 989.512 307.893C989.512 294.266 986.861 281.753 995.06 271.504C998.005 267.823 1001.04 262.234 1003.46 257.879C1004.93 255.231 1004.29 253.142 1006.32 250.536C1008.13 248.21 1010.07 245.438 1010.07 242.459C1010.07 236.843 1017.41 233.25 1017.41 227.039C1017.41 217.031 1017.41 207.023 1017.41 197.014C1017.41 190.701 1015.95 185.017 1015.95 179.31C1015.95 175.285 1004.3 174.904 1000.53 174.904C994.241 174.904 992.122 179.31 986.248 179.31C975.098 179.31 963.947 179.31 952.797 179.31C948.881 179.31 944.965 179.31 941.048 179.31C934.047 179.31 939.973 175.634 943.985 174.904C951.577 173.524 958.635 173.435 966.341 173.435C981.162 173.435 995.984 173.435 1010.81 173.435C1016.5 173.435 1032.85 178.472 1027.69 176.046C1018.78 171.851 1008.72 168.32 999.057 166.174C996.369 165.577 965.686 166.214 966.341 164.624C968.424 159.564 969.264 157.281 975.56 157.281C980.7 157.281 985.84 157.281 990.98 157.281C997.038 157.281 998.51 162.894 999.71 168.295C1001.3 175.458 1002.55 179.31 993.265 179.31C981.951 179.31 970.638 179.31 959.324 179.31C950.574 179.31 946.923 177.109 946.923 186.653C946.923 193.617 947.11 199.962 948.31 206.56C949.688 214.14 952.91 223.622 956.061 230.71C958.713 236.678 964.32 240.513 967.483 246.049C969.723 249.969 973.001 252.842 975.152 257.145C978.607 264.055 984.297 264.364 987.717 257.145C992.841 246.327 989.512 229.405 989.512 217.493C989.512 209.78 985.003 210.746 979.966 207.947C975.525 205.48 978.855 219.166 979.966 221.164C984.8 229.866 990.98 242.521 990.98 252.005C990.98 257.204 991.885 263.975 986.574 267.099C982.461 269.518 978.838 275.234 973.357 270.362C970.91 268.187 961.103 265.288 960.222 262.203C957.704 253.39 967.612 255.676 973.357 255.676C982.888 255.676 998.323 261.137 998.323 272.565C998.323 279.267 1000.44 285.224 993.917 288.312C988.761 290.754 981.248 289.454 975.56 289.454C968.399 289.454 974.594 311.898 974.826 317.683C975.263 328.605 977.166 339.799 977.763 351.134C978.348 362.247 980.7 372.642 980.7 384.178C980.7 411.346 980.7 438.515 980.7 465.684" stroke="white" stroke-linecap="round" stroke-linejoin="round"/>
<path d="M980.7 465.684C980.7 495.917 982.169 526.338 982.169 556.736C982.169 580.28 983.001 603.065 985.024 626.331C986.709 645.705 984.865 663.927 980.782 682.301C979.347 688.756 972.363 697.517 967.483 702.126C964.393 705.044 964.546 705.743 964.546 710.204C964.546 713.886 970.926 712.407 973.684 712.407C981.77 712.407 990.158 712.041 997.589 715.344C1006.93 719.496 1025.74 717.988 1035.69 716.486C1042.18 715.506 1045.65 713.996 1051.19 710.612C1056.59 707.315 1047.3 703.595 1044.58 703.595C1035.39 703.595 1028.89 703.099 1020.35 700.658C1015.44 699.256 1010.42 697.283 1005.67 695.436C1001.35 693.759 991.595 692.954 988.369 690.051C982.977 685.198 998.012 680.088 1001.99 682.301C1004.59 683.742 1007.64 685.303 1010.72 684.422C1011.87 684.094 1012.3 675.635 1011.21 674.55C1009.69 673.028 1003.5 675.811 1002.81 673.407C1001.97 670.483 1001.26 668.801 1001.26 665.412" stroke="white" stroke-linecap="round" stroke-linejoin="round"/>
</svg>
