<svg width="1155" height="807" viewBox="0 0 1155 807" fill="none" xmlns="http://www.w3.org/2000/svg">
<path d="M1130.03 612.391C1125.88 591.107 1132.39 574.913 1138.82 554.914C1146.47 531.116 1152.85 508.527 1152.85 482.984C1152.85 450.611 1152.85 418.238 1152.85 385.865C1152.85 351.896 1157.9 313.854 1146.85 281.393C1129.8 231.306 1129.99 176.151 1136.46 124.177C1138.93 104.286 1140.68 84.2309 1140.68 64.1644C1140.68 60.9519 1139.06 52.55 1142.2 50.9785" stroke="white" stroke-linecap="round" stroke-linejoin="round"/>
<path d="M1142.2 50.9789C1142.2 37.8212 1142.2 24.6635 1142.2 11.5059C1142.2 4.46309 1140.63 6.857 1135.78 6.857C1117.75 6.857 1099.72 6.857 1081.68 6.857C1029.22 6.857 976.76 6.857 924.299 6.857C891.249 6.857 858.2 6.857 825.151 6.857C783.429 6.857 742.274 4.56692 700.646 2.63076C638.039 -0.281225 574.666 2.29266 511.987 2.29266C479.135 2.29266 446.283 2.29266 413.432 2.29266C384.692 2.29266 356.727 5.20142 328.146 7.70224C293.903 10.6985 259.939 15.1378 225.787 19.0285C194.169 22.6305 162.724 29.8412 130.866 31.1156C102.224 32.2612 69.1293 35.4929 42.1993 25.875C34.8513 23.2508 27.8699 23.5929 20.1384 23.5929C16.9081 23.5929 3.86974 21.5196 1.45842 23.931C0.826603 24.5628 2.924 26.253 3.40248 26.6358C5.91007 28.6418 6.84513 34.5672 7.20609 37.4549C9.61928 56.7604 10.1745 76.0984 12.1085 95.4388C17.6548 150.901 27.1646 205.84 28.4218 261.783C29.9689 330.63 25.8346 399.063 24.0265 467.77C23.1486 501.13 23.5825 533.962 20.1384 567.255C18.395 584.108 14.8133 600.674 14.8133 617.632C14.8133 634.114 14.8133 650.597 14.8133 667.079C14.8133 671.449 15.9063 677.441 14.1371 681.533C12.5292 685.251 10.3251 687.998 10.249 692.183C9.56237 729.946 8.72754 767.974 8.72754 805.615" stroke="white" stroke-linecap="round" stroke-linejoin="round"/>
<path d="M8.72754 805.615C167.521 805.615 326.315 805.615 485.108 805.615C523.145 805.615 561.181 805.615 599.217 805.615C627.742 805.615 656.121 802.859 684.587 802.572C713.845 802.276 743.465 800.013 772.577 797.331C793.194 795.432 814.191 796.486 834.871 796.486C852.41 796.486 869.839 794.965 887.361 794.965C921.721 794.965 955.892 793.443 990.228 793.443C1007.25 793.443 1024.56 792.447 1041.45 794.626C1046.82 795.32 1058.52 797.674 1058.52 789.639C1058.52 758.957 1058.52 728.275 1058.52 697.592C1058.52 691.545 1057.87 686.715 1056.24 680.856C1055.04 676.536 1056.9 669.256 1053.62 665.98C1046.62 658.981 1026.51 662.599 1017.44 662.599C1004.58 662.599 990.267 666.879 977.718 669.445C956.284 673.83 934.694 677.231 913.141 680.856C881.236 686.224 849.422 694.705 817.459 699.114C804.203 700.942 790.9 701.425 777.733 703.34C770.245 704.429 754.256 706.044 747.304 702.072C742.125 699.113 735.766 695.629 731.751 691.168C728.892 687.991 724.301 686.6 721.608 683.138C715.095 674.764 703.466 669.475 695.744 661.754C692.99 659 689.671 654.406 693.715 650.765C698.125 646.797 703.296 655.907 705.549 658.035C709.429 661.699 717.238 663.523 722.369 664.036C735.667 665.366 747.661 669.935 760.659 672.066C773.42 674.158 784.269 679.858 797.512 680.772C811.804 681.757 827.763 682.097 841.971 680.518C858.217 678.713 874.326 674.25 890.32 671.051C906.908 667.734 922.269 665.254 937.653 657.696C963.756 644.874 987.858 628.787 1014.82 617.801C1016.51 617.113 1027.83 612.479 1028.09 616.956C1028.73 627.692 1019.86 629.744 1009.92 631.325C999.228 633.026 991.654 631.141 982.113 636.734C971.611 642.891 957.953 642.817 946.613 647.469C908.137 663.254 871.055 679.745 830.223 689.224C812.11 693.429 793.586 700.713 775.197 703.34C760.468 705.444 740.157 706.231 726.849 699.452C714.646 693.235 701.946 686.067 690.419 678.574C683.57 674.123 675.068 669.162 670.556 662.261C668.868 659.679 661.29 643.818 667.682 642.905C684.296 640.531 698.461 646.649 714.508 648.906C734.2 651.675 753.056 658.544 772.999 659.471C796.077 660.545 819.009 661.077 842.141 661.077C875.707 661.077 903.568 652.594 933.765 637.495C957.723 625.516 979.744 609.942 1003.75 597.938C1007.78 595.923 1013.75 594.957 1017.11 592.274C1019.71 590.189 1007.26 591.091 1004.51 591.091C996.118 591.091 998.042 589.029 1000.37 582.3C1003.57 573.05 1008.2 563.796 1011.27 554.576C1017.08 537.163 1022.52 519.677 1028.09 502.171C1032.73 487.614 1037.22 469.629 1037.22 454.161" stroke="white" stroke-linecap="round" stroke-linejoin="round"/>
<path d="M1035.59 426.194C1035.59 392.639 1024 366.166 1003 340.122C992.88 327.578 978.689 320.519 966.165 310.858C947.953 296.807 931.729 283.086 910.628 273.368C900.38 268.649 888.619 267.731 878.521 262.562C863.968 255.111 846.032 252.236 829.829 249.842C813.263 247.395 796.441 245.443 779.692 245.443C759.536 245.443 737.789 242.759 718.755 250.607C687.176 263.629 655.557 299.023 642.392 329.889C633.425 350.91 625.758 372.427 617.226 393.582C610.136 411.165 605.959 431.504 603.824 450.294C602.231 464.323 603.439 479.047 603.439 493.139C603.439 508.822 601.589 525.456 606.042 540.67C609.887 553.807 613.583 566.401 619.058 579.02C622.93 587.942 625.732 599.292 632.557 606.563C643.073 617.766 652.401 628.805 663.797 639.27C684.594 658.371 722.023 653.424 749.32 653.424C760.853 653.424 772.679 648.89 784.32 647.877C803.198 646.235 822.869 642.731 841.207 637.931C869.369 630.56 898.055 617.426 924.416 605.224C939.263 598.351 955.145 590.433 966.165 578.063C970.241 573.489 985.727 560.811 983.424 552.816C982.746 550.461 969.759 551.824 967.901 551.859C959.014 552.029 953.477 557.236 945.725 560.084C940.624 561.958 935.406 564.312 930.491 566.587C920.671 571.132 911.55 572.293 901.179 575.099C891.119 577.82 880.076 579.922 870.711 584.566C864.9 587.448 858.728 591.205 852.006 591.452C847.897 591.603 843.582 591.692 839.471 591.452C835.965 591.248 850.787 588.247 853.356 587.627C860.517 585.899 865.5 584.437 871.579 580.263C877.413 576.257 881.109 571.077 888.163 568.978C909.748 562.555 929.002 550.813 948.81 540.574C967.136 531.102 988.78 523.989 1005.21 511.31C1008.65 508.661 1031.24 486.444 1017.46 486.444C1005.15 486.444 995.549 486.963 984.099 491.609C966.007 498.95 945.769 500.241 927.984 508.823C900.827 521.927 870.71 529.807 842.942 541.148C840.541 542.129 841.207 523.95 841.207 521.734C841.207 512.907 826.776 496.252 821.537 489.696C813.222 479.288 807.149 466.89 796.854 458.041C787.12 449.673 776.043 443.536 765.229 436.523C759.101 432.549 751.533 427.267 757.13 418.543C765.924 404.835 781.442 390.307 793.576 379.715C823.6 353.509 852.782 325.417 886.909 304.354C897.155 298.031 906.143 291.922 918.438 291.922C925.091 291.922 931.744 291.922 938.397 291.922C945.319 291.922 935.433 281.593 931.455 281.593C905.257 281.593 881.343 291.327 858.948 303.972C830.245 320.177 808.299 341.077 783.259 362.214C768.823 374.4 753.002 384.751 740.546 398.651C731.084 409.209 725.508 414.302 724.058 428.107C723.823 430.345 721.388 443.84 725.89 444.652C729.153 445.24 740.662 434.985 742.571 433.654C759.353 421.949 776.77 411.169 793.48 399.416C814.927 384.332 831.452 364.586 852.006 348.729C868.561 335.957 884.543 322.858 900.215 309.04C916.15 294.991 939.623 291.922 960.091 291.922C977.008 291.922 985.902 310.575 994.898 322.047C1001.47 330.429 1006.05 340.017 1011.29 349.112C1017.61 360.075 1018.16 372.525 1023.44 383.923C1028.47 394.785 1030.4 410.116 1032.98 421.89C1035.19 431.972 1033.85 443.397 1033.85 453.737C1033.85 467.965 1032.96 478.398 1026.04 490.748C1019.68 502.107 1014.36 511.651 1011.29 524.699C1009.64 531.688 1001.61 563.467 1009.65 568.117C1015.78 571.661 1025.23 565.347 1029.03 572.516C1033.64 581.201 1039.04 588.877 1041.76 598.529C1043.08 603.206 1043.96 608.059 1046 612.11" stroke="white" stroke-linecap="round" stroke-linejoin="round"/>
</svg>
