<svg width="1133" height="813" viewBox="0 0 1133 813" fill="none" xmlns="http://www.w3.org/2000/svg">
<path d="M1131.69 602.736C1124.58 578.074 1118.51 551.372 1118.51 525.6C1118.51 502.251 1121.97 479.56 1122.98 456.275C1124.51 421.06 1131.69 386.422 1131.69 350.985C1131.69 311.467 1131.69 271.95 1131.69 232.432C1131.69 158.144 1131.69 83.855 1131.69 9.56641" stroke="white" stroke-linecap="round" stroke-linejoin="round"/>
<path d="M1131.69 9.56611C1045.85 9.56611 960.041 7.73185 874.405 13.96C821.7 17.7931 769.105 23.3249 716.389 26.816C652.016 31.0791 587.876 31.5354 523.385 31.5354C494.334 31.5354 466.703 29.3073 437.868 25.7583C409.479 22.2643 380.953 23.3329 352.513 20.5507C324.613 17.8214 296.576 19.4393 268.704 16.5637C245.108 14.1292 221.612 10.0956 198.159 6.55551C168.293 2.04753 139.575 -0.11406 109.386 0.859778C75.2163 1.96204 41.0134 8.1015 6.86328 8.1015" stroke="white" stroke-linecap="round" stroke-linejoin="round"/>
<path d="M6.86312 8.10156C6.86312 66.0998 10.3443 125.259 6.53765 183.205C5.42903 200.08 2.26552 216.699 1.33012 233.653C-0.024854 258.212 0.868034 283.106 1.00465 307.697C1.23944 349.959 5.3985 391.995 5.3985 434.305C5.3985 470.541 5.3985 506.777 5.3985 543.012C5.3985 564.921 8.90803 585.18 13.0471 606.642C16.2378 623.186 17.4972 639.937 19.7192 656.602C21.4771 669.786 20.2489 684.337 20.0447 697.611C19.8621 709.479 17.2287 721.194 17.1154 733.087C16.9889 746.374 17.1154 759.669 17.1154 772.957C17.1154 786.241 20.0447 799.154 20.0447 812.176" stroke="white" stroke-linecap="round" stroke-linejoin="round"/>
<path d="M20.0449 810.712C112.234 810.712 204.424 810.712 296.613 810.712C349.448 810.712 402.283 810.712 455.118 810.712C483.352 810.712 511.587 810.712 539.821 810.712C578.516 810.712 613.483 806.295 650.807 795.903C685.716 786.183 719.482 777.144 755.771 774.422C777.567 772.787 799.535 770.875 821.353 769.784C836.388 769.032 850.137 763.608 865.048 762.461C869.433 762.124 873.913 762.379 878.311 762.379C884.237 762.379 882.704 759.354 882.704 753.592" stroke="white" stroke-linecap="round" stroke-linejoin="round"/>
<path d="M882.795 759C882.795 756.655 884.169 747.029 879.797 746.867C873.48 746.633 869.924 744.41 863.912 743.122C838.014 737.575 812.062 731.906 785.835 727.693C772.039 725.477 757.241 722.988 743.275 722.6C734.768 722.364 724.655 721.418 716.6 718.556C712.55 717.116 707.645 714.76 703.412 714.511C699.594 714.287 671.042 703.633 671.042 699.682C671.042 692.6 671.737 693.897 678.086 695.937C699.269 702.743 722.341 703.794 743.949 709.193C787.143 719.987 829.532 734.179 873.953 738.853C881.007 739.595 892.324 744.051 899.279 740.575C934.904 722.771 971.749 704.175 1009.43 690.994C1012.86 689.791 1009.95 687.548 1007.48 687.548C1003.21 687.548 1002.24 688.699 998.786 690.919C994.091 693.936 989.877 696.953 984.624 699.008C976.712 702.102 968.329 702.762 960.422 705.673C943.933 711.745 928.407 718.538 912.392 725.97C902.338 730.636 888.677 738.339 877.699 738.778C876.011 738.845 874.626 741.136 872.604 740.126C869.727 738.688 866.213 735.924 862.264 734.733C851.342 731.441 840.879 728.56 829.594 726.644C818.788 724.81 808.616 720.353 797.824 718.855C780.71 716.479 764.268 711.048 747.171 708.819C740.642 707.968 733.75 706.689 727.39 705.074C719.301 703.021 710.633 703.435 702.663 701.03C692.186 697.868 675.725 701.039 672.691 688.147C671.51 683.132 671.64 677.777 678.086 679.759C690.806 683.671 703.641 685.328 716.899 686.275C730.035 687.213 744.507 691.713 757.212 694.888C765.83 697.042 774.302 697.986 782.838 700.356C808.201 707.398 834.469 711.286 860.615 713.088C870.488 713.769 880.302 714.511 890.213 714.511C897.741 714.511 896.515 719.764 894.933 725.296C893.695 729.63 892.236 733.703 892.236 738.104C892.236 748.631 891.009 727.122 892.535 725.596C893.403 724.728 898.123 724.077 899.579 723.349C907.822 719.23 914.573 714.3 922.208 709.119C928.807 704.639 935.204 699.968 941.69 695.338C951.037 688.663 960.279 684.759 970.463 679.759C977.801 676.156 985.499 674.14 992.792 671.071C997.165 669.23 1002.83 665.898 1002.83 672.719C1002.83 676.793 1005.06 687.897 1006.88 684.253C1008.74 680.542 1009.2 666.689 1002.83 672.719C995.429 679.73 977.732 676.018 968.215 679.459C957.354 683.386 945.343 684.71 934.646 689.57C919.844 696.296 903.532 699.73 889.089 707.696C883.249 710.916 876.948 714.636 869.981 713.088C846.794 707.938 823.993 704.402 800.072 702.228C774.767 699.929 750.759 691.28 726.116 685.751C719.159 684.19 711.603 683.596 704.836 681.482C700.384 680.091 695.174 680.345 690.524 679.459C684.976 678.403 678.844 676.022 673.515 674.142C669.159 672.605 664.015 673.414 660.852 669.348C653.106 659.394 662.641 660.585 671.567 660.585C685.711 660.585 699.707 661.743 712.703 667.626C731.211 676.003 751.211 678.836 770.399 685.152C788.842 691.222 807.731 693.228 826.747 696.985C836.997 699.011 847.631 700.727 858.068 701.03C862.026 701.144 871.045 700.753 874.702 702.677C876.506 703.626 878.793 709.073 881.146 705.074C882.919 702.062 885.091 699.368 888.489 698.034C892.401 696.498 895.987 694.483 900.028 693.24C906.601 691.219 914.114 692.342 921.009 690.245C933.125 686.559 945.122 681.546 956.975 677.063C963.931 674.432 970.181 670.267 976.907 667.626C981.781 665.712 986.455 663.933 991.143 661.634C992.776 660.833 1005.53 657.812 999.086 655.492C997.09 654.774 994.145 655.076 992.043 655.193C990.45 655.281 989.742 656.37 988.521 657.215C984 660.343 977.461 660.619 972.261 661.259C945.223 664.591 916.008 666.853 891.561 679.384C884.904 682.797 876.689 685.722 869.382 687.548C865.771 688.451 860.295 689.318 857.094 690.919C848.764 695.081 830.254 691.268 821.951 689.57C783.003 681.607 743.755 672.937 706.109 659.911C694.699 655.963 683.172 653.937 671.791 649.8C662.988 646.6 672.893 641.711 677.411 641.711C704.306 641.711 728.399 652.515 755.189 655.193C782.514 657.924 808.314 669.12 834.09 677.812C837.938 679.109 856.878 679.04 857.168 684.852C857.323 687.938 858.481 694.785 857.918 693.989C854.271 688.844 844.885 687.174 839.185 686.5C833.372 685.812 827.484 686.425 821.652 685.901C806.292 684.519 793.625 677.808 779.691 671.67C765.306 665.334 749.438 659.302 733.834 656.541C718.01 653.742 701.529 652.71 685.878 649.501C681.367 648.576 675.22 648.475 671.042 646.804C666.6 645.028 668.345 637.453 668.345 633.622C668.345 630.311 665.858 614.476 671.042 614.748C699.732 616.258 729.815 620.515 758.411 624.485C774.35 626.698 790.109 630.587 805.766 634.222C822.782 638.171 840.083 638.843 857.094 642.385C863.284 643.675 871.262 640.828 869.981 649.276C868.789 657.142 869.307 665.235 869.307 673.168C869.307 681.362 868.569 686.803 877.549 679.459C887.473 671.344 903.224 668.783 915.089 665.379C927.798 661.732 940.281 657.752 953.079 654.444C969.62 650.168 988.589 646.145 1003.43 637.667C1005.03 636.755 1004.18 631.867 1004.18 630.327C1004.18 624.014 994.671 627.149 990.769 628.904C962.894 641.442 928.454 640.413 898.979 647.778C895.95 648.535 865.261 655.279 865.261 651.822C865.261 648.783 864.015 644.692 867.659 643.734C875.746 641.606 883.772 641.488 891.786 638.715C909.152 632.707 925.645 624.412 942.739 617.744C952.088 614.097 962.077 612.004 971.662 609.056C978.469 606.963 987.279 602.306 994.74 603.963C996.971 604.459 990.83 620.957 990.694 623.137C990.033 633.699 992.267 611.677 989.645 609.056C988.675 608.087 987.397 606.06 986.048 605.611C981.181 603.989 973.783 604.906 968.739 604.712C960.575 604.398 951.682 604.168 943.788 606.659C926.991 611.961 909.101 614.868 891.936 618.643C870.455 623.368 849.066 628.418 827.646 633.398C824.881 634.04 821.956 634.872 819.104 634.971C816.018 635.077 812.306 635.37 809.363 634.371C786.654 626.67 763.557 621.986 740.128 616.845C723.942 613.294 707.473 610.32 691.573 605.611C688.753 604.776 685.043 604.077 686.178 599.919C687.212 596.13 692.303 597.222 695.319 597.222C710.442 597.222 726.314 592.969 741.177 590.632C750.793 589.12 760.292 587.785 770.025 587.785C775.54 587.785 769.715 590.955 767.477 592.504C759.683 597.897 748.141 596.859 739.154 598.571C730.426 600.232 722.55 601.267 713.677 601.267C709.431 601.267 722.169 601.267 726.415 601.267C738.75 601.267 750.068 603.981 762.007 606.585C782.084 610.963 800.405 619.752 819.928 625.534C824.018 626.745 827.887 630.926 832.217 630.926C834.426 630.926 836.025 629.626 837.986 628.679C846.305 624.665 854.985 621.557 863.987 619.467C884.466 614.711 906.274 611.675 927.228 609.431C936.118 608.479 945.78 606.703 954.128 603.289C958.883 601.345 963.395 599.654 968.065 598.271C970.283 597.614 979.499 595.405 971.811 596.174C961.717 597.183 951.066 598.521 941.09 600.218C924.037 603.12 906.555 606.265 889.838 610.704C875.948 614.392 859.375 612.052 845.03 612.052C828.964 612.052 814.085 613.138 798.873 607.708C791.041 604.912 783.046 601.027 775.645 597.222C765.314 591.912 756.778 590.386 745.523 588.085C733.663 585.66 722.045 583.12 710.455 579.397C709.633 579.133 704.224 577.834 705.36 577.3C712.03 574.162 726.453 577 733.459 577C749.842 577 767.358 581.688 783.212 585.838C796.23 589.246 809.137 592.683 822.026 596.548C836.33 600.838 851.564 600.371 866.16 603.289C885.689 607.193 903.472 602.446 922.507 597.222C940.429 592.305 959.502 589.922 977.131 584.415C984.043 582.256 991.006 580.714 998.112 579.622C1001.43 579.112 1005.59 577.85 1008.83 576.925C1010.53 576.439 998.28 571.845 996.164 571.683C986.951 570.974 978.061 570.26 968.44 570.26C921.161 570.26 874.333 566.74 827.346 562.47C804.796 560.421 782.115 556.958 759.46 556.778C751.369 556.714 743.48 555.537 735.482 555.43C726.449 555.31 726.885 554.381 735.332 552.734C755.663 548.768 775.902 554.953 794.976 561.422C804.866 564.776 814.581 569.682 824.499 572.656C828.02 573.712 832.595 572.915 836.188 573.031C845.917 573.344 855.572 574.341 864.961 577C893.209 585 919.861 587.228 948.883 587.785C951.591 587.838 954.767 588.659 949.183 589.208C933.916 590.709 918.516 591.695 903.176 591.83C889.245 591.953 875.128 592.378 861.215 591.605C845.493 590.732 830.302 586.108 815.208 581.943C791.41 575.378 767.701 569.487 743.874 563.219C733.359 560.453 722.794 559.028 712.329 556.703C707.747 555.685 719.084 549.558 719.672 549.288C727.352 545.77 734.085 544.645 742.45 544.645C759.527 544.645 777.39 542.144 793.778 537.23C804.406 534.043 815.831 535.208 826.822 535.208C859.533 535.208 893.609 545.779 925.055 554.082C942.053 558.57 960.243 562.611 977.731 564.867C983.226 565.576 989.259 566.094 994.141 567.488C998.159 568.636 1002.22 569.219 1006.13 570.334C1006.67 570.488 1009.58 572.524 1009.58 572.132C1009.58 569.849 1010.3 567.25 1008.23 566.215" stroke="white" stroke-linecap="round" stroke-linejoin="round"/>
</svg>
