<svg width="1164" height="807" viewBox="0 0 1164 807" fill="none" xmlns="http://www.w3.org/2000/svg">
<path d="M1143.56 616.817C1141.17 614.352 1132.67 606.657 1132.44 602.514C1132.21 598.478 1133.11 594.24 1131.64 590.419C1125.17 573.582 1129.26 549.451 1129.26 531.71C1129.26 501.965 1135.32 472.943 1137.12 443.248C1139.18 409.23 1140.41 375.075 1144.35 341.19C1149.68 295.395 1156.27 250.537 1156.27 204.348C1156.27 161.707 1154.39 117.356 1162.28 75.2747C1163.47 68.8954 1164.05 57.0572 1161.39 51.0845C1158.8 45.2442 1161.56 36.7486 1159.45 30.4258" stroke="white" stroke-linecap="round" stroke-linejoin="round"/>
<path d="M1159.45 32.0149C1158.67 27.6508 1155.95 5.31853 1147.97 4.99957C1129.06 4.24316 1109.95 4.99957 1091.03 4.99957C1042.69 4.99957 993.023 1.62973 944.918 6.23556C900.061 10.5304 854.976 17.0254 810.018 19.3018C737.62 22.9675 665.998 27.2475 593.454 27.2475C546.398 27.2475 499.641 26.6371 452.639 24.4223C407.514 22.296 362.695 16.2224 317.563 14.1812C263.685 11.7446 209.552 13.1115 155.824 9.85526C137.116 8.72144 118.739 5.78909 100.028 4.64643C73.9998 3.05694 48.0637 1.8213 21.9835 1.8213C19.5015 1.8213 -0.329809 -0.4596 1.05991 5.79414C1.5185 7.85779 3.87148 10.093 4.85618 12.0624C10.0145 22.3791 11.7533 32.6051 14.0378 43.8451C18.8317 67.4307 20.3847 91.6518 24.0141 115.444C29.676 152.562 33.4104 189.237 36.6389 226.596C39.5714 260.529 37.5217 295.339 37.5217 329.36C37.5217 368.264 37.5217 407.169 37.5217 446.073C37.5217 492.681 39.1109 539.203 39.1109 585.828C39.1109 593.182 42.2891 600.102 42.2891 607.635C42.2891 614.198 42.2891 620.76 42.2891 627.323C42.2891 659.882 24.0242 690.619 21.6304 722.936C20.3743 739.892 12.0956 757.228 12.0956 774.141C12.0956 784.735 12.0956 795.33 12.0956 805.924" stroke="white" stroke-linecap="round" stroke-linejoin="round"/>
<path d="M12.0957 805.924C64.827 805.924 117.573 806.293 170.303 805.924C238.861 805.444 307.261 799.567 375.831 799.567C423.564 799.567 471.297 799.567 519.03 799.567C550.562 799.567 582 797.978 613.495 797.978C636.565 797.978 661.064 797.927 683.947 795.153C762.08 785.682 842.459 790.032 921.081 790.032C959.103 790.032 997.124 790.032 1035.15 790.032C1039.63 790.032 1060.5 792.468 1062.51 788.443" stroke="white" stroke-linecap="round" stroke-linejoin="round"/>
<path d="M1063 788C1063 772.303 1063 756.606 1063 740.91C1063 719.341 1063.54 693.089 1052.13 673.832C1033.3 642.052 993.579 635.635 971.861 606.452C934.18 555.82 915.971 480.615 847.966 458.67C831.985 453.513 815.291 446.886 800.613 438.834C793.445 434.902 786.865 429.456 780.741 424.147C774.804 419.001 766.535 415.009 762.032 408.551C754.214 397.338 750 384.46 750 371" stroke="white" stroke-linecap="round" stroke-linejoin="round"/>
<path d="M749.687 370.912C749.687 347.931 758.548 324.043 775.468 307.481C786.139 297.036 807.157 303.269 817.275 311.649C831.842 323.714 829.12 349.068 829.12 365.759C829.12 383.539 831.552 403.228 827.727 420.626C823.493 439.883 814.623 455.886 808.217 474.129C803.697 487 794.264 504.25 784.526 514.142C774.614 524.21 762.524 531.587 752.474 541.424C737.506 556.075 727.39 571.064 727.39 592.578C727.39 601.647 727.39 610.716 727.39 619.784C727.39 628.716 731.57 637.217 731.57 646.157C731.57 653.172 732.814 658.126 727.699 663.132C723.076 667.658 718.151 671.872 713.454 676.47C706.433 683.343 698.25 682.465 690.46 686.701C687.538 688.29 682.665 688.747 679.311 688.747C674.564 688.747 675.07 686.019 670.95 686.019C662.593 686.019 654.049 688.747 645.169 688.747C642.881 688.747 635.532 689.971 635.414 687.08C635.241 682.854 638.4 681.345 638.201 677.834C637.765 670.163 618.562 656.507 611.723 664.875C605.63 672.331 607.753 676.124 611.413 683.291C614.181 688.709 618.275 695.568 624.962 695.568C631.137 695.568 638.926 696.932 645.865 696.932C650.241 696.932 668.377 699.526 671.337 696.629C674.676 693.36 670.938 690.111 677.221 690.111C680.617 690.111 686.03 691.125 688.679 689.05C691.279 687.014 695.353 687.066 698.124 684.655C701.401 681.804 705.568 679.484 709.273 677.152C717.817 671.776 724.837 667.096 731.493 659.495C735.493 654.927 727.973 642.518 726.306 637.215C724.393 631.128 723.209 622.249 723.209 615.768C723.209 604.76 721.815 593.89 721.815 582.65C721.815 568.855 729.283 561.605 737.145 550.67C743.436 541.919 748.688 533.074 758.822 527.783C772.025 520.891 782.627 513.617 789.326 500.501C795.975 487.486 798.712 472.73 805.43 459.578C810.76 449.143 816.597 439.819 820.449 428.507C824.317 417.15 825.822 404.378 829.043 393.344C831.101 386.295 829.12 376.009 829.12 368.79C829.12 359.393 829.12 349.996 829.12 340.598C829.12 334.592 830.359 332.649 824.94 330.292C821.609 328.843 816.542 328.192 813.869 325.139C804.39 314.314 788.136 310.502 773.997 314.377C765.276 316.768 758.209 318.872 753.248 326.503C748.487 333.826 750.794 347.04 748.293 355.3C746.026 362.789 746.678 371.289 746.9 379.096C747.162 388.361 755.868 395.224 760.526 402.589C768.751 415.595 781.698 428.866 795.675 435.707C806.154 440.835 815.593 448.183 826.178 453.364C838.223 459.259 850.76 463.419 862.489 469.733C874.067 475.967 878.597 490.484 889.354 497.773C909.167 511.2 921.07 526.274 930.077 548.548C936.14 563.54 942 579.147 942 595.306C942 600.796 933.971 593.611 932.942 591.82C929.267 585.425 926.62 578.499 923.109 572.117C907.492 543.727 898.799 507.923 898.799 475.644C898.799 458.436 900.193 441.463 900.193 424.415C900.193 411.581 897.396 390.153 886.567 381.067C878.979 374.7 872.775 375.004 863.108 375.004C827.209 375.004 784.738 370.002 756.268 396.072C732.634 417.713 721.013 451.355 721.815 482.768C722.13 495.073 735.244 509.861 743.493 518.235C756.613 531.553 767.812 546.158 782.591 557.945C794.192 567.198 802.309 582.656 803.881 597.277C804.638 604.315 806.533 620.539 801.249 625.999C790.212 637.402 770.84 635.974 756.035 635.547C741.946 635.142 729.661 627.11 717.635 621.224C709.198 617.095 700.172 612.251 692.55 606.825C686.106 602.238 681.766 595.857 675.827 591.29C665.316 583.205 650.786 578.391 638.201 575.224C632.798 573.864 628.144 572.799 622.562 572.799C619.632 572.799 610.199 571.264 607.852 573.102C601.801 577.84 601.607 586.227 603.439 592.502C606.274 602.214 620.218 603.435 626.743 597.049C628.726 595.108 631.081 590.338 631.233 587.804C631.617 581.408 628.864 583.711 634.717 583.711C641.477 583.711 647.931 587.804 654.227 587.804C658.742 587.804 658.935 589.406 660.421 584.318C661.76 579.73 657.634 578.98 653.53 577.194C647.138 574.413 639.099 577.282 632.627 574.466C625.622 571.419 614.589 572.799 606.845 572.799C596.354 572.799 595 580.414 595 588.486C595 595.302 600.001 598.541 605.065 602.506C608.144 604.917 627.052 609.006 627.052 602.127C627.052 596.332 632.627 591.882 632.627 585.076" stroke="white" stroke-linecap="round" stroke-linejoin="round"/>
</svg>
