<svg width="1145" height="810" viewBox="0 0 1145 810" fill="none" xmlns="http://www.w3.org/2000/svg">
<path d="M1118.01 610.212C1118.01 485.389 1116.36 360.579 1116.36 235.799C1116.36 176.089 1116.36 116.379 1116.36 56.6686C1116.36 45.3058 1113.11 26.9495 1117.18 15.5567C1119.39 9.37418 1088.13 12.253 1084.42 12.253C1020.37 12.253 956.315 12.253 892.261 12.253C845.659 12.253 799.42 13.2448 752.957 17.2085C694.067 22.2322 635.647 28.0908 576.488 28.6795C536.423 29.0781 498.636 25.6766 458.933 20.8792C429.38 17.3082 399.816 12.8567 370.193 9.95882C323.99 5.43894 276.99 10.3138 230.615 7.29755C194.847 4.97122 158.727 0.690265 122.879 0.690265C100.049 0.690265 77.5365 -0.0657091 54.971 3.62684C51.9518 4.12089 40.3125 4.23137 38.0857 6.0128C31.156 11.5565 22.6743 18.9493 14.5932 22.9898C11.0891 24.7419 2.82542 24.9462 1.47035 29.6889C0.773156 32.1291 1.37858 35.7457 1.37858 38.2233C1.37858 61.3794 1.37858 84.5355 1.37858 107.692C1.37858 180.372 1.37858 253.052 1.37858 325.732C1.37858 388.791 9.09941 450.641 13.7672 513.397C15.8563 541.483 16.9245 569.56 18.8145 597.64C20.1702 617.783 24.1002 637.653 25.7888 657.748C28.0571 684.741 31.5973 711.282 32.8549 738.32C33.5737 753.773 33.2229 769.807 34.5068 785.213C35.1923 793.44 34.1782 800.084 43.0412 797.235C70.6962 788.346 104.267 793.564 132.974 793.564C166.744 793.564 199.881 795.163 233.551 796.868C261.022 798.259 288.34 801.014 315.775 802.741C347 804.707 378.563 803.475 409.837 803.475C452.081 803.475 493.924 801.5 536.11 799.437C597.764 796.423 659.495 796.684 721.205 796.868C764.4 796.996 805.985 806.748 848.946 808.339C899.57 810.214 950.626 808.736 1001.28 808.431C1037.19 808.214 1073.58 805.102 1109.02 799.254C1115.9 798.117 1144.44 796.742 1144.44 786.957C1144.44 781.726 1144.44 776.495 1144.44 771.265C1144.44 763.158 1142.79 755.391 1142.79 747.313C1142.79 743.167 1143.27 724.429 1139.48 722.536" stroke="white" stroke-linecap="round" stroke-linejoin="round"/>
</svg>
