<svg width="1146" height="836" viewBox="0 0 1146 836" fill="none" xmlns="http://www.w3.org/2000/svg">
<path d="M1130.24 642.017C1130.24 625.953 1129.98 609.865 1130.42 593.806C1131.12 568.016 1136.2 542.997 1139.86 517.541C1144.48 485.483 1144.95 452.647 1144.95 420.303C1144.95 350.209 1141.68 280.316 1141.68 210.21C1141.68 163.906 1141.68 117.602 1141.68 71.2978C1141.68 61.1882 1138.41 53.9107 1138.41 43.8786C1138.41 36.9233 1136.78 30.3154 1136.78 23.4504C1136.78 17.7201 1131.36 23.8502 1129.24 24.1768C1120.64 25.4996 1110.75 24.3694 1102.09 24.2675C1061.91 23.7948 1021.77 15.4203 981.432 14.5528C960.935 14.112 940.459 13.996 919.966 13.1909C893.212 12.1399 867.033 7.86884 840.432 5.38279C813.937 2.90664 787.686 1.38794 761.08 1.38794C691.587 1.38794 626.341 19.1409 558.25 30.8046C511.141 38.8742 465.564 40.6101 417.976 40.6101C369.96 40.6101 324.133 56.9527 276.431 56.9527C251.542 56.9527 228.561 45.7653 203.071 45.5129C185.255 45.3365 166.847 44.2854 149.05 45.6037C138.186 46.4084 128.222 48.9075 117.001 48.7814C102.154 48.6146 91.29 42.2444 76.9612 42.2444C62.3374 42.2444 47.1366 38.9759 32.7455 38.9759C30.7329 38.9759 22.543 37.8099 22.2136 40.6101C21.653 45.3749 22.2136 50.5167 22.2136 55.3184C22.2136 77.3887 13.4363 98.2254 9.23034 119.781C3.03098 151.553 0.968262 181.227 0.968262 213.478C0.968262 244.12 1.70281 273.287 6.59737 303.544C10.6706 328.724 15.1272 353.887 20.5794 378.811C30.1286 422.464 30.3849 464.444 30.3849 508.916C30.3849 541.639 28.6398 572.129 21.8504 604.247C15.3803 634.856 6.35555 665.725 5.87103 697.218C5.66638 710.521 6.22797 723.274 8.23163 736.441C9.91551 747.506 14.2217 758.486 15.5858 769.398C16.6671 778.049 17.3108 786.11 17.3108 794.911C17.3108 803.654 14.9451 818.511 21.8504 825.417C24.5527 828.119 32.8598 825.054 36.5588 825.054C71.5101 825.054 105.741 831.153 140.606 832.862C178.485 834.719 217.251 834.859 255.186 834.859C343.133 834.859 431.081 834.859 519.028 834.859C560.644 834.859 602.17 831.755 643.776 831.591C683.3 831.434 722.827 831.591 762.351 831.591C809.031 831.591 856.357 830.826 902.715 824.691C957.159 817.485 1013.75 826.622 1068.5 824.963C1088.79 824.348 1107.61 816.882 1127.79 816.882C1136.6 816.882 1140.21 814.031 1136.78 805.443" stroke="white" stroke-linecap="round" stroke-linejoin="round"/>
</svg>
