<svg width="1138" height="835" viewBox="0 0 1138 835" fill="none" xmlns="http://www.w3.org/2000/svg">
<path d="M1110.74 634.052C1110.74 526.036 1099.2 416.609 1113.61 309.224C1117.92 277.07 1123.85 245.736 1125.39 213.282C1126.84 182.83 1125.5 152.038 1125.5 121.543C1125.5 110.415 1145.13 33.7561 1131.95 30.8286C1128.68 30.1012 1126.98 31.5162 1124.57 33.3911C1121.91 35.4629 1117.16 34.3077 1114.02 34.4161C1075.23 35.7535 1036.21 35.6979 997.266 36.3637C935.394 37.4213 873.612 42.7295 811.738 43.7438C745.331 44.8324 679.01 45.4863 612.576 45.4863C530.269 45.4863 448.135 41.7963 365.854 41.7963C311.345 41.7963 255.001 43.6171 201.544 31.5461C182.972 27.3525 165.799 22.5057 148.038 15.5558C136.537 11.0554 125.151 4.2045 112.982 1.61553C105.853 0.0985961 99.7064 1.74634 93.097 2.94805C65.2215 8.01632 34.4681 11.9862 9.35295 26.1135C0.417662 31.1396 5.07762 60.4728 4.63786 68.0367C0.835577 133.436 1.87031 198.952 1.87031 264.43C1.87031 323.33 -0.97419 383.016 3.71534 441.759C8.42994 500.815 20.3206 559.7 20.3206 619.087C20.3206 631.687 21.0299 644.533 20.2181 657.115C19.6279 666.263 15.3152 674.133 13.043 682.843C8.67564 699.585 5.56038 715.669 5.56038 733.069C5.56038 756.12 12.9405 778.231 12.9405 801.028C12.9405 810.745 13.0412 814.766 23.3957 813.43C39.7052 811.326 57.2573 813.02 73.6216 813.02C105.849 813.02 137.292 814.939 169.358 818.145C267.634 827.973 367.154 829.542 465.794 832.393C530.804 834.272 595.92 833.316 660.957 833.316C719.617 833.316 776.429 825.516 834.596 818.555C886.504 812.344 938.519 803.236 990.501 798.363C1012.75 796.277 1034.79 795.73 1056.61 790.88C1077 786.349 1097.5 782.501 1117.91 777.965C1123.74 776.669 1126.78 774.275 1132.88 774.275" stroke="white" stroke-linecap="round" stroke-linejoin="round"/>
</svg>
