<svg width="1174" height="823" viewBox="0 0 1174 823" fill="none" xmlns="http://www.w3.org/2000/svg">
<path d="M1143.51 609.352C1143.51 551.57 1143.51 493.788 1143.51 436.006C1143.51 390.574 1156.09 346.836 1158.67 301.63C1161.07 259.722 1164.24 218.637 1164.24 176.563C1164.24 143.161 1164.24 109.759 1164.24 76.3567C1164.24 67.0291 1167.66 52.631 1160.78 46.122C1152.37 38.1511 1146.19 28.5375 1138.32 20.2065C1132.06 13.5731 1118.64 16.7511 1109.63 16.7511C1072.7 16.7511 1036.88 12.0033 1000.11 9.84027C900.212 3.96402 799.71 10.3983 699.681 8.01659C583.717 5.25554 467.11 -6.89091 351.453 8.88044C329.861 11.8249 308.287 14.8348 286.664 17.6149C269.664 19.8007 252.352 18.6572 235.505 21.1663C214.684 24.2674 193.435 25.209 172.444 27.1173C145.08 29.6049 118.446 34.8363 90.8585 35.6598C79.067 36.0118 67.2377 35.7558 55.4406 35.7558C51.7732 35.7558 47.3671 36.5544 44.3066 34.412C43.1651 33.613 41.864 39.6342 40.8512 40.5549C37.9339 43.207 30.6942 44.0112 27.0296 44.7782C13.5776 47.5937 16.4877 48.8588 14.4557 61.8632C5.07979 121.869 1.74871 183.752 1.498 244.423C1.29705 293.053 1.498 341.688 1.498 390.318C1.498 437.46 8.64012 482.55 12.5361 529.302C14.1978 549.243 15.741 569.417 16.9513 589.388C17.6522 600.951 16.3539 612.514 17.9111 624.037C23.3017 663.927 28.0178 703.107 36.052 742.385C38.8562 756.094 41.3192 769.974 43.7307 783.754C44.3893 787.518 43.9021 801.623 49.0097 802.758C57.5313 804.652 68.5209 802.854 77.1329 802.854C103.562 802.854 129.909 804.582 156.319 804.582C223.37 804.582 290.52 806.753 357.404 811.493C427.604 816.468 498.264 821.859 568.663 821.859C610.661 821.859 652.73 823.426 694.306 816.292C767.082 803.804 839.916 792.46 913.148 782.506C967.414 775.13 1023.03 764.845 1077.76 764.845C1109.45 764.845 1141.14 763.117 1172.88 763.117" stroke="white" stroke-linecap="round" stroke-linejoin="round"/>
</svg>
