<svg width="198" height="79" viewBox="0 0 198 79" fill="none" xmlns="http://www.w3.org/2000/svg">
<path fill-rule="evenodd" clip-rule="evenodd" d="M2.63257 9.98265C2.26019 9.58308 1.62679 9.56728 1.21783 9.94737C0.808876 10.3275 0.779226 10.9595 1.15161 11.3591C23.8029 35.6642 45.5611 48.3668 78.6435 60.1769C111.824 72.0219 142.604 72.6861 196.248 67.7543C196.8 67.7036 197.215 67.2173 197.177 66.6682C197.155 66.3589 196.993 66.0956 196.758 65.9337C196.742 65.6517 196.591 65.3829 196.32 65.2147L177.377 53.4488C176.908 53.1574 176.257 53.2783 175.924 53.7189C175.591 54.1594 175.702 54.7528 176.171 55.0442L193.774 65.978C141.646 70.668 111.636 69.8192 79.3548 58.295C46.4969 46.5651 25.027 34.0122 2.63257 9.98265Z" fill="#F2874F"/>
</svg>
