<svg width="1154" height="839" viewBox="0 0 1154 839" fill="none" xmlns="http://www.w3.org/2000/svg">
<path d="M313.419 51.5188L313.702 53.4414L324.269 55.2266L325.475 55.4273L324.233 55.6207L314.251 57.1736L314.53 59.0654L330.105 60.975L329.842 59.186L319.371 58.0588L318.529 57.9727L319.319 57.8459L329.404 56.2147L329.165 54.5902L318.895 52.8243L317.796 52.6393L318.854 52.5467L328.731 51.6394L328.474 49.8915L313.419 51.5188Z" fill="white"/>
<path d="M324.613 74.3268L326.269 74.2457L324.898 68.2694L329.827 68.0028L331.404 74.8806L333.07 74.7972L331.072 66.086L315.736 66.9054L317.752 75.6976L319.408 75.6165L317.809 68.6476L323.245 68.3606L324.613 74.3268Z" fill="white"/>
<path d="M321.813 84.6662L335.339 82.4855L334.727 80.7068L319.567 83.1531L322.512 91.7123L324.15 91.4566L321.813 84.6662Z" fill="white"/>
<path d="M333.824 105.972L332.981 104.372C332.529 104.461 332.079 104.502 331.633 104.495C331.19 104.493 330.772 104.425 330.378 104.291C329.983 104.156 329.623 103.95 329.297 103.673C328.973 103.402 328.708 103.039 328.502 102.584C328.317 102.188 328.23 101.817 328.241 101.47C328.258 101.12 328.347 100.795 328.507 100.497C328.66 100.202 328.868 99.9303 329.13 99.6813C329.402 99.4353 329.697 99.2125 330.015 99.0128C330.333 98.8131 330.664 98.6381 331.007 98.4879C331.357 98.3346 331.688 98.2061 332 98.1025L334.07 97.4521C334.432 97.339 334.816 97.2381 335.222 97.1496C335.636 97.0642 336.055 97.0081 336.476 96.9815C336.888 96.9518 337.297 96.9547 337.703 96.9901C338.112 97.0317 338.498 97.1276 338.861 97.2778C339.215 97.425 339.54 97.6296 339.835 97.8917C340.134 98.16 340.38 98.5013 340.574 98.9156C340.774 99.3423 340.858 99.7385 340.826 100.104C340.802 100.473 340.7 100.816 340.519 101.133C340.334 101.443 340.089 101.726 339.783 101.982C339.478 102.237 339.144 102.468 338.783 102.674L339.622 104.334C340.203 104.009 340.711 103.632 341.146 103.203C341.584 102.78 341.918 102.312 342.148 101.8C342.378 101.287 342.489 100.738 342.48 100.153C342.478 99.5641 342.322 98.9482 342.012 98.3051C341.74 97.7362 341.405 97.2574 341.007 96.8688C340.615 96.477 340.183 96.1597 339.711 95.917C339.229 95.6712 338.717 95.4953 338.175 95.3892C337.638 95.28 337.091 95.2267 336.533 95.2291C335.966 95.2285 335.399 95.2743 334.833 95.3666C334.269 95.4652 333.723 95.5977 333.194 95.7642L331.161 96.4191C330.679 96.5854 330.205 96.7935 329.742 97.0434C329.284 97.2902 328.863 97.5771 328.477 97.9041C328.088 98.2249 327.747 98.5796 327.454 98.9682C327.162 99.3568 326.946 99.776 326.809 100.226C326.662 100.673 326.602 101.145 326.629 101.644C326.666 102.146 326.812 102.666 327.068 103.204C327.378 103.862 327.775 104.411 328.261 104.849C328.755 105.289 329.302 105.626 329.901 105.859C330.497 106.086 331.129 106.209 331.799 106.227C332.474 106.243 333.149 106.158 333.824 105.972Z" fill="white"/>
<path d="M344.707 118.73L346.252 117.938C346.69 117.704 347.118 117.426 347.535 117.104C347.962 116.784 348.354 116.434 348.711 116.053C349.058 115.671 349.355 115.262 349.602 114.824C349.853 114.392 350.022 113.943 350.11 113.476C350.198 113.008 350.191 112.529 350.089 112.037C349.997 111.546 349.779 111.054 349.435 110.559C349.079 110.047 348.67 109.633 348.208 109.318C347.751 109.009 347.263 108.781 346.746 108.636C346.218 108.489 345.67 108.413 345.1 108.409C344.535 108.41 343.974 108.463 343.417 108.57C342.85 108.674 342.294 108.823 341.748 109.015C341.212 109.209 340.702 109.427 340.218 109.669L338.665 110.467C338.227 110.701 337.797 110.976 337.376 111.292C336.959 111.614 336.576 111.966 336.229 112.348C335.882 112.73 335.585 113.14 335.338 113.577C335.091 114.015 334.924 114.467 334.836 114.934C334.748 115.401 334.75 115.88 334.842 116.371C334.944 116.862 335.164 117.353 335.504 117.843C335.861 118.354 336.268 118.765 336.725 119.075C337.187 119.39 337.678 119.623 338.2 119.774C338.718 119.919 339.259 119.991 339.825 119.99C340.39 119.989 340.956 119.937 341.523 119.832C342.08 119.725 342.627 119.575 343.163 119.381C343.709 119.189 344.223 118.972 344.707 118.73ZM345.189 116.411L343.596 117.225C343.263 117.391 342.903 117.551 342.518 117.704C342.132 117.857 341.737 117.986 341.334 118.092C340.921 118.196 340.508 118.265 340.096 118.3C339.684 118.335 339.288 118.315 338.908 118.241C338.523 118.17 338.16 118.032 337.82 117.825C337.486 117.614 337.192 117.323 336.938 116.951C336.696 116.596 336.557 116.247 336.521 115.904C336.495 115.563 336.54 115.23 336.655 114.906C336.765 114.586 336.936 114.281 337.17 113.99C337.404 113.699 337.665 113.428 337.952 113.175C338.239 112.922 338.54 112.694 338.855 112.49C339.169 112.287 339.465 112.11 339.741 111.959L341.331 111.159C341.659 110.997 342.016 110.84 342.402 110.687C342.787 110.534 343.187 110.405 343.6 110.301C344.007 110.201 344.414 110.136 344.82 110.105C345.236 110.076 345.639 110.099 346.029 110.175C346.409 110.25 346.764 110.389 347.094 110.595C347.434 110.801 347.731 111.091 347.985 111.463C348.227 111.818 348.364 112.164 348.395 112.501C348.431 112.844 348.394 113.175 348.285 113.495C348.171 113.81 347.997 114.112 347.764 114.403C347.535 114.69 347.28 114.957 346.998 115.206C346.707 115.453 346.402 115.675 346.083 115.873C345.769 116.077 345.471 116.256 345.189 116.411Z" fill="white"/>
<path d="M356.956 119.878L355.311 118.305L342.955 127.425L344.277 128.689L349.128 125.104L354.157 121.213L349.416 127.78L350.205 128.534L358.635 125.566L353.584 129.105L348.581 132.804L349.903 134.068L362.252 124.941L360.54 123.304L352.516 126.071L356.956 119.878Z" fill="white"/>
<path d="M367.317 139.273L368.567 138.185L363.793 134.338L367.5 131.079L372.994 135.507L374.251 134.411L367.293 128.803L355.751 138.934L362.774 144.595L364.025 143.507L358.458 139.02L362.551 135.432L367.317 139.273Z" fill="white"/>
<path d="M398.572 153.975L399.651 152.704L390.237 147.207L389.158 148.478L393.08 150.768L384.259 161.238L385.838 162.16L394.659 151.69L398.572 153.975Z" fill="white"/>
<path d="M409.066 164.668L409.807 163.098C410.012 162.645 410.181 162.164 410.316 161.655C410.459 161.141 410.556 160.625 410.607 160.105C410.649 159.591 410.635 159.085 410.564 158.588C410.5 158.092 410.36 157.633 410.145 157.209C409.93 156.785 409.632 156.409 409.251 156.081C408.879 155.748 408.406 155.491 407.832 155.308C407.237 155.12 406.661 155.041 406.103 155.073C405.552 155.106 405.027 155.223 404.528 155.424C404.02 155.629 403.539 155.903 403.085 156.247C402.637 156.592 402.225 156.977 401.848 157.401C401.463 157.829 401.113 158.286 400.797 158.771C400.491 159.252 400.219 159.735 399.983 160.222L399.239 161.802C399.034 162.254 398.861 162.734 398.72 163.242C398.585 163.751 398.497 164.263 398.454 164.777C398.412 165.292 398.426 165.798 398.497 166.295C398.568 166.792 398.711 167.253 398.927 167.677C399.142 168.101 399.435 168.479 399.807 168.812C400.188 169.14 400.662 169.394 401.23 169.575C401.824 169.763 402.397 169.841 402.948 169.807C403.506 169.775 404.038 169.66 404.544 169.462C405.043 169.262 405.516 168.989 405.964 168.643C406.411 168.298 406.828 167.911 407.213 167.482C407.59 167.058 407.932 166.606 408.238 166.126C408.554 165.64 408.829 165.154 409.066 164.668ZM408.033 162.535L407.268 164.152C407.105 164.487 406.917 164.833 406.704 165.189C406.492 165.546 406.258 165.889 406.002 166.218C405.738 166.552 405.454 166.859 405.148 167.138C404.843 167.416 404.517 167.642 404.17 167.815C403.822 167.995 403.45 168.106 403.055 168.149C402.662 168.185 402.251 168.134 401.822 167.994C401.414 167.86 401.091 167.668 400.854 167.418C400.625 167.164 400.458 166.873 400.352 166.546C400.243 166.225 400.193 165.878 400.201 165.505C400.209 165.132 400.25 164.758 400.324 164.383C400.398 164.007 400.497 163.643 400.622 163.29C400.747 162.936 400.874 162.616 401.001 162.329L401.774 160.725C401.935 160.397 402.122 160.054 402.334 159.698C402.547 159.341 402.785 158.996 403.049 158.662C403.311 158.334 403.594 158.034 403.897 157.762C404.209 157.485 404.543 157.258 404.898 157.081C405.245 156.908 405.611 156.802 405.998 156.764C406.393 156.721 406.805 156.769 407.233 156.909C407.641 157.043 407.961 157.234 408.192 157.482C408.429 157.732 408.602 158.017 408.71 158.337C408.812 158.656 408.858 159.001 408.85 159.374C408.844 159.741 408.805 160.108 408.733 160.477C408.653 160.851 408.547 161.213 408.415 161.564C408.29 161.918 408.163 162.241 408.033 162.535Z" fill="white"/>
<path d="M431.421 173.681L433.36 173.555L435.998 163.168L436.296 161.982L436.388 163.236L437.125 173.311L439.033 173.187L442.202 157.819L440.397 157.936L438.423 168.28L438.269 169.113L438.207 168.315L437.4 158.13L435.762 158.236L433.167 168.329L432.894 169.409L432.887 168.347L432.785 158.429L431.022 158.544L431.421 173.681Z" fill="white"/>
<path d="M453.958 167.414L455.058 171.205L456.832 170.917L452.407 156.306L450.848 156.559L446 172.675L447.928 172.362L449.147 168.195L453.958 167.414ZM449.648 166.419L451.666 159.458L453.495 165.794L449.648 166.419Z" fill="white"/>
<path d="M470.753 152.325L470.357 150.705L460.382 155.103L460.778 156.723L464.934 154.891L468.236 168.177L469.91 167.439L466.607 154.153L470.753 152.325Z" fill="white"/>
<path d="M484.275 151.501L483.643 149.969L478.474 153.267L476.567 148.715L482.516 144.919L481.878 143.378L474.344 148.186L480.267 162.355L487.871 157.503L487.239 155.971L481.211 159.817L479.115 154.794L484.275 151.501Z" fill="white"/>
<path d="M495.233 145.545L499.964 149.899L501.663 148.873L501.611 148.747L496.556 144.297C496.85 143.9 497.101 143.49 497.306 143.067C497.517 142.639 497.669 142.2 497.76 141.748C497.846 141.3 497.862 140.845 497.81 140.383C497.757 139.921 497.615 139.457 497.382 138.99C497.074 138.374 496.695 137.887 496.244 137.529C495.795 137.16 495.306 136.913 494.777 136.788C494.251 136.668 493.697 136.663 493.116 136.771C492.534 136.88 491.956 137.095 491.381 137.418L487.791 139.574L493.363 153.886L494.964 152.919L492.689 147.081L495.233 145.545ZM492.104 145.589L489.969 140.104L492.163 138.792C492.529 138.594 492.888 138.471 493.238 138.421C493.594 138.368 493.93 138.388 494.245 138.481C494.558 138.583 494.842 138.759 495.099 139.009C495.357 139.25 495.575 139.563 495.752 139.95C495.944 140.376 496.041 140.804 496.041 141.233C496.041 141.662 495.966 142.067 495.816 142.449C495.664 142.84 495.446 143.203 495.162 143.536C494.874 143.864 494.54 144.142 494.161 144.371L492.104 145.589Z" fill="white"/>
<path d="M508.662 144.262L510.124 142.981L505.894 133.134L505.409 132.012L506.245 132.951L512.962 140.496L514.401 139.236L507.56 125.114L506.2 126.306L510.93 135.714L511.315 136.469L510.78 135.874L503.94 128.284L502.705 129.366L506.79 138.953L507.23 139.976L506.579 139.138L500.461 131.331L499.132 132.495L508.662 144.262Z" fill="white"/>
<path d="M522.039 120.437L520.827 119.194C520.475 118.844 520.084 118.517 519.654 118.212C519.222 117.899 518.772 117.627 518.304 117.398C517.837 117.178 517.358 117.014 516.867 116.907C516.38 116.794 515.901 116.764 515.429 116.817C514.956 116.871 514.5 117.018 514.059 117.26C513.618 117.492 513.211 117.845 512.839 118.32C512.454 118.811 512.179 119.323 512.014 119.857C511.852 120.385 511.778 120.918 511.791 121.455C511.806 122.003 511.895 122.549 512.058 123.095C512.225 123.635 512.441 124.156 512.706 124.657C512.973 125.168 513.278 125.656 513.623 126.121C513.966 126.576 514.324 127 514.697 127.391L515.917 128.641C516.269 128.991 516.658 129.321 517.084 129.631C517.514 129.935 517.963 130.197 518.43 130.417C518.897 130.636 519.376 130.8 519.867 130.907C520.357 131.015 520.839 131.042 521.311 130.989C521.784 130.935 522.241 130.793 522.683 130.561C523.123 130.319 523.527 129.964 523.895 129.495C524.279 129.004 524.552 128.494 524.714 127.966C524.879 127.432 524.958 126.894 524.948 126.351C524.935 125.813 524.845 125.274 524.678 124.734C524.511 124.194 524.294 123.668 524.027 123.157C523.762 122.656 523.458 122.178 523.115 121.722C522.771 121.257 522.412 120.829 522.039 120.437ZM519.68 120.659L520.927 121.942C521.184 122.211 521.442 122.508 521.701 122.832C521.961 123.156 522.2 123.495 522.42 123.85C522.641 124.214 522.828 124.588 522.982 124.971C523.137 125.355 523.234 125.739 523.275 126.124C523.321 126.514 523.295 126.901 523.198 127.286C523.094 127.667 522.902 128.034 522.621 128.387C522.353 128.722 522.06 128.958 521.743 129.092C521.425 129.218 521.093 129.273 520.75 129.258C520.412 129.247 520.069 129.173 519.723 129.035C519.376 128.897 519.04 128.727 518.714 128.527C518.388 128.327 518.082 128.106 517.794 127.865C517.507 127.625 517.251 127.394 517.027 127.174L515.794 125.889C515.543 125.624 515.288 125.329 515.028 125.005C514.769 124.681 514.529 124.337 514.308 123.973C514.092 123.613 513.91 123.243 513.762 122.864C513.611 122.475 513.515 122.083 513.473 121.688C513.432 121.303 513.462 120.922 513.561 120.547C513.659 120.161 513.848 119.792 514.129 119.44C514.397 119.104 514.688 118.872 515.001 118.743C515.318 118.608 515.646 118.546 515.984 118.556C516.318 118.572 516.658 118.65 517.005 118.788C517.346 118.922 517.676 119.087 517.997 119.283C518.318 119.489 518.621 119.715 518.904 119.961C519.191 120.202 519.45 120.435 519.68 120.659Z" fill="white"/>
<path d="M528.465 111.152L534.728 112.603L535.699 110.872L535.591 110.788L528.998 109.414C529.059 108.924 529.074 108.444 529.044 107.974C529.017 107.498 528.931 107.041 528.788 106.603C528.641 106.171 528.43 105.767 528.156 105.391C527.883 105.015 527.529 104.682 527.097 104.392C526.525 104.008 525.955 103.771 525.385 103.682C524.813 103.584 524.266 103.611 523.744 103.763C523.228 103.918 522.744 104.187 522.291 104.568C521.839 104.95 521.443 105.423 521.103 105.987L519.045 109.635L530.956 119.329L531.871 117.697L527.011 113.744L528.465 111.152ZM525.765 112.736L521.2 109.021L522.46 106.796C522.681 106.443 522.932 106.159 523.212 105.943C523.496 105.721 523.798 105.572 524.117 105.497C524.44 105.432 524.774 105.445 525.121 105.536C525.464 105.617 525.808 105.782 526.153 106.031C526.531 106.307 526.826 106.631 527.038 107.004C527.25 107.377 527.385 107.766 527.443 108.172C527.504 108.588 527.493 109.011 527.411 109.441C527.322 109.868 527.169 110.275 526.952 110.662L525.765 112.736Z" fill="white"/>
<path d="M534.248 97.7693L541.943 97.4794L542.763 95.4905L533.472 95.9432L529.697 87.4855L528.77 89.7338L531.902 96.7239L532.862 98.8954L526.623 94.9413L525.891 96.7188L538.878 104.916L539.611 103.138L535.303 100.419L534.248 97.7693Z" fill="white"/>
<path d="M543.771 80.347C544.155 80.5144 544.469 80.7439 544.713 81.0356C544.951 81.3252 545.124 81.6494 545.232 82.0081C545.34 82.3669 545.388 82.7437 545.377 83.1385C545.359 83.5313 545.29 83.9123 545.17 84.2814C545.034 84.7036 544.846 85.0625 544.603 85.3582C544.357 85.6452 544.076 85.8674 543.76 86.0247C543.442 86.1887 543.093 86.2888 542.712 86.3251C542.327 86.3528 541.923 86.313 541.499 86.2058L540.946 88.0252C541.591 88.2361 542.218 88.3073 542.825 88.2387C543.433 88.1701 543.989 87.9846 544.494 87.682C545.003 87.3881 545.451 86.9993 545.837 86.5158C546.219 86.0236 546.51 85.4603 546.71 84.8261C546.905 84.2336 547.01 83.6139 547.026 82.9669C547.042 82.32 546.954 81.7031 546.764 81.1164C546.579 80.5317 546.287 80.0046 545.887 79.5352C545.48 79.0637 544.959 78.706 544.323 78.4619C543.739 78.2406 543.186 78.1663 542.664 78.2393C542.138 78.3035 541.643 78.4645 541.181 78.7221C540.719 78.9797 540.289 79.3088 539.892 79.7094C539.49 80.1013 539.125 80.5152 538.797 80.9512C538.6 81.2172 538.384 81.4881 538.148 81.7639C537.914 82.033 537.659 82.2633 537.383 82.4546C537.113 82.6546 536.818 82.7895 536.5 82.8592C536.184 82.9223 535.84 82.8755 535.467 82.7187C535.095 82.5619 534.788 82.3454 534.546 82.069C534.3 81.784 534.114 81.4667 533.989 81.1172C533.87 80.7696 533.811 80.4041 533.812 80.0205C533.806 79.635 533.861 79.2642 533.976 78.9083C534.117 78.4948 534.309 78.1621 534.552 77.9102C534.79 77.6497 535.067 77.4551 535.381 77.3263C535.694 77.2041 536.034 77.1447 536.402 77.1482C536.766 77.143 537.143 77.189 537.534 77.2861L538.09 75.4568C537.473 75.2473 536.872 75.1656 536.286 75.2117C535.693 75.2557 535.144 75.4039 534.64 75.656C534.141 75.9168 533.699 76.2747 533.314 76.7297C532.93 77.1848 532.636 77.7218 532.433 78.3408C532.24 78.9266 532.144 79.5384 532.146 80.1761C532.147 80.8139 532.252 81.4215 532.46 81.999C532.666 82.5831 532.975 83.1043 533.385 83.5625C533.796 84.0207 534.311 84.3655 534.928 84.5969C535.495 84.8055 536.032 84.8714 536.541 84.7944C537.043 84.7155 537.515 84.5442 537.958 84.2805C538.404 84.0255 538.821 83.7033 539.208 83.314C539.594 82.9246 539.948 82.5219 540.271 82.1058C540.485 81.8306 540.714 81.5528 540.959 81.2724C541.205 80.9854 541.471 80.7439 541.755 80.5479C542.044 80.3606 542.356 80.2385 542.692 80.1814C543.021 80.1223 543.381 80.1775 543.771 80.347Z" fill="white"/>
<path d="M8.93579 409.944L7.37983 396.187L5.60949 396.823L7.35541 412.241L15.8745 409.183L15.6944 407.517L8.93579 409.944Z" fill="white"/>
<path d="M20.1958 390.489L20.4419 392.19L23.6424 390.902L25.4487 402.864L22.2579 404.149L22.5103 405.837L30.7525 402.518L30.5 400.83L27.2321 402.146L25.4257 390.184L28.6841 388.871L28.438 387.17L20.1958 390.489Z" fill="white"/>
<path d="M44.263 389.98L43.9474 388.337L38.3714 390.836L37.3831 385.619L43.8789 382.707L43.5692 381.05L35.3285 384.745L38.2403 399.988L39.9662 399.214L38.687 392.479L44.263 389.98Z" fill="white"/>
<path d="M59.4132 382.864L59.2183 381.201L53.4664 383.325L52.8614 378.374L59.4809 375.929L59.283 374.256L50.899 377.351L52.7716 392.758L61.2335 389.633L61.0386 387.969L54.3314 390.446L53.6711 384.985L59.4132 382.864Z" fill="white"/>
<path d="M89.363 378.127L88.729 372.496L84.2088 374.02L84.364 375.675L87.1904 374.722L87.5117 378.193C87.2246 378.749 86.8391 379.193 86.3553 379.524C85.8762 379.846 85.3532 380.084 84.7861 380.239C84.3671 380.358 83.9874 380.384 83.6469 380.316C83.3113 380.24 83.009 380.101 82.74 379.9C82.4663 379.707 82.2254 379.464 82.0172 379.169C81.8138 378.865 81.6397 378.537 81.4948 378.185C81.3451 377.841 81.224 377.484 81.1316 377.114C81.0374 376.737 80.9692 376.377 80.9269 376.034L80.7384 374.215C80.6985 373.827 80.678 373.418 80.6769 372.988C80.6823 372.556 80.7125 372.122 80.7675 371.688C80.8243 371.26 80.9151 370.839 81.04 370.425C81.1715 370.008 81.3442 369.625 81.5581 369.276C81.7738 368.933 82.04 368.632 82.3568 368.372C82.6717 368.105 83.0509 367.905 83.4944 367.77C83.9182 367.642 84.2994 367.608 84.638 367.669C84.9814 367.721 85.2843 367.849 85.5467 368.052C85.8091 368.256 86.0363 368.515 86.2283 368.829C86.4204 369.144 86.5808 369.488 86.7097 369.86L88.4528 369.273C88.2705 368.648 88.0145 368.096 87.685 367.616C87.3554 367.136 86.9659 366.753 86.5165 366.467C86.0606 366.183 85.5483 366.009 84.9798 365.945C84.4179 365.879 83.8134 365.947 83.1664 366.151C82.5588 366.341 82.0265 366.612 81.5696 366.963C81.1108 367.307 80.7169 367.706 80.3879 368.16C80.0541 368.623 79.7815 369.127 79.5702 369.672C79.3571 370.211 79.1957 370.769 79.086 371.346C78.9715 371.932 78.905 372.523 78.8866 373.121C78.8665 373.711 78.8848 374.285 78.9416 374.842L79.1417 376.625C79.2093 377.142 79.3231 377.658 79.4831 378.173C79.6479 378.68 79.8575 379.153 80.1118 379.592C80.3614 380.041 80.6562 380.445 80.9964 380.805C81.3348 381.158 81.7146 381.438 82.1358 381.646C82.5523 381.864 83.0107 381.997 83.5112 382.048C84.0098 382.091 84.5441 382.028 85.1141 381.858C86.062 381.575 86.8967 381.111 87.6184 380.466C88.3449 379.813 88.9264 379.033 89.363 378.127Z" fill="white"/>
<path d="M101.962 368.421L101.784 366.755L96.0107 368.819L95.4561 363.863L102.101 361.487L101.92 359.812L93.5041 362.82L95.2197 378.245L103.714 375.208L103.536 373.542L96.8032 375.949L96.1985 370.482L101.962 368.421Z" fill="white"/>
<path d="M117.486 355.884L117.294 354.21L107.054 357.948L107.246 359.623L111.512 358.065L113.137 371.804L114.855 371.176L113.23 357.438L117.486 355.884Z" fill="white"/>
<path d="M131.187 361.085C131.257 361.501 131.239 361.897 131.132 362.274C131.024 362.643 130.852 362.981 130.616 363.286C130.381 363.591 130.099 363.858 129.769 364.087C129.437 364.309 129.088 364.482 128.721 364.607C128.302 364.75 127.906 364.812 127.533 364.792C127.164 364.763 126.83 364.666 126.531 364.502C126.225 364.34 125.954 364.115 125.718 363.824C125.487 363.525 125.301 363.17 125.16 362.758L123.371 363.401C123.547 364.058 123.827 364.615 124.212 365.072C124.597 365.529 125.05 365.873 125.57 366.104C126.087 366.345 126.647 366.477 127.252 366.502C127.861 366.518 128.48 366.417 129.108 366.198C129.698 366.001 130.263 365.713 130.801 365.336C131.34 364.958 131.798 364.514 132.175 364.004C132.554 363.5 132.828 362.942 132.996 362.331C133.162 361.712 133.173 361.069 133.029 360.401C132.895 359.788 132.656 359.289 132.314 358.905C131.977 358.512 131.578 358.204 131.117 357.98C130.656 357.757 130.154 357.603 129.611 357.519C129.073 357.426 128.537 357.376 128.002 357.37C127.678 357.369 127.339 357.355 126.986 357.328C126.639 357.299 126.312 357.229 126.007 357.118C125.696 357.017 125.427 356.857 125.197 356.638C124.975 356.417 124.827 356.106 124.754 355.706C124.681 355.306 124.693 354.924 124.788 354.558C124.888 354.184 125.048 353.841 125.266 353.527C125.487 353.22 125.754 352.951 126.069 352.72C126.381 352.483 126.715 352.304 127.069 352.184C127.483 352.049 127.859 352.006 128.197 352.053C128.54 352.092 128.849 352.201 129.124 352.381C129.393 352.564 129.626 352.807 129.822 353.111C130.023 353.406 130.189 353.743 130.321 354.122L132.12 353.475C131.958 352.843 131.7 352.3 131.345 351.847C130.988 351.387 130.57 351.027 130.091 350.766C129.608 350.514 129.075 350.367 128.495 350.326C127.914 350.285 127.315 350.368 126.699 350.575C126.115 350.771 125.562 351.062 125.04 351.448C124.519 351.834 124.078 352.286 123.717 352.805C123.35 353.327 123.09 353.894 122.937 354.508C122.784 355.121 122.78 355.751 122.924 356.397C123.06 356.988 123.297 357.469 123.635 357.839C123.971 358.203 124.367 358.487 124.822 358.691C125.272 358.904 125.761 359.051 126.289 359.133C126.817 359.215 127.338 359.262 127.854 359.276C128.195 359.285 128.546 359.306 128.908 359.337C129.277 359.366 129.618 359.438 129.932 359.553C130.242 359.677 130.511 359.859 130.739 360.1C130.966 360.335 131.115 360.663 131.187 361.085Z" fill="white"/>
<path d="M161.085 355.056L159.99 339.578L158.293 340.106L158.762 346.762L153.027 348.55L152.559 341.894L150.872 342.42L151.967 357.898L153.654 357.373L153.148 350.218L158.883 348.43L159.388 355.585L161.085 355.056Z" fill="white"/>
<path d="M173.916 347.258L175.158 350.974L176.895 350.511L171.925 336.205L170.399 336.612L166.292 353.34L168.18 352.836L169.207 348.514L173.916 347.258ZM169.627 346.674L171.326 339.457L173.393 345.669L169.627 346.674Z" fill="white"/>
<path d="M186.018 341.974L188.695 347.709L190.638 347.301L190.638 347.163L187.7 341.228C188.12 340.949 188.504 340.642 188.852 340.308C189.207 339.972 189.512 339.604 189.767 339.204C190.015 338.806 190.202 338.377 190.329 337.92C190.456 337.462 190.502 336.972 190.465 336.449C190.417 335.76 190.255 335.168 189.978 334.675C189.707 334.174 189.353 333.775 188.917 333.478C188.482 333.187 187.977 332.996 187.404 332.905C186.831 332.813 186.22 332.825 185.573 332.94L181.473 333.79L181.149 349.294L182.979 348.909L183.109 342.585L186.018 341.974ZM183.139 340.967L183.264 335.025L185.767 334.51C186.177 334.445 186.552 334.448 186.891 334.518C187.237 334.587 187.537 334.718 187.79 334.912C188.037 335.115 188.23 335.378 188.37 335.702C188.515 336.018 188.596 336.39 188.611 336.818C188.626 337.288 188.552 337.728 188.389 338.136C188.227 338.545 188.005 338.906 187.723 339.22C187.436 339.542 187.099 339.814 186.713 340.036C186.326 340.252 185.915 340.405 185.481 340.496L183.139 340.967Z" fill="white"/>
<path d="M196.144 346.174L199.629 345.653C200.341 345.547 201.005 345.36 201.619 345.093C202.24 344.826 202.803 344.493 203.307 344.096C203.76 343.742 204.176 343.326 204.555 342.85C204.941 342.372 205.268 341.862 205.537 341.318C205.811 340.759 206.029 340.164 206.192 339.531C206.354 338.891 206.455 338.232 206.495 337.555L206.545 336.425C206.565 335.827 206.529 335.259 206.437 334.72C206.344 334.175 206.202 333.668 206.012 333.199C205.806 332.706 205.538 332.26 205.209 331.861C204.879 331.456 204.497 331.128 204.064 330.878C203.599 330.598 203.074 330.4 202.486 330.285C201.905 330.169 201.265 330.157 200.565 330.247L197.316 330.723L196.144 346.174ZM199.088 332.052L200.682 331.825C201.198 331.768 201.658 331.79 202.064 331.891C202.469 331.984 202.824 332.137 203.129 332.351C203.405 332.554 203.644 332.802 203.845 333.093C204.052 333.377 204.214 333.689 204.329 334.028C204.477 334.419 204.579 334.841 204.636 335.294C204.692 335.74 204.711 336.199 204.692 336.67L204.635 337.833C204.599 338.335 204.524 338.829 204.41 339.315C204.295 339.793 204.143 340.246 203.954 340.673C203.758 341.101 203.519 341.508 203.235 341.893C202.958 342.27 202.638 342.601 202.276 342.886C201.909 343.193 201.495 343.451 201.036 343.659C200.575 343.861 200.071 344.006 199.524 344.095L198.156 344.289L199.088 332.052Z" fill="white"/>
<path d="M234.037 336.647C234.025 337.068 233.931 337.452 233.754 337.799C233.576 338.139 233.342 338.435 233.052 338.686C232.761 338.938 232.432 339.143 232.064 339.3C231.696 339.451 231.319 339.551 230.935 339.599C230.495 339.656 230.094 339.637 229.732 339.542C229.375 339.44 229.066 339.278 228.803 339.057C228.533 338.838 228.311 338.562 228.135 338.231C227.966 337.892 227.852 337.506 227.793 337.075L225.91 337.346C225.957 338.024 226.125 338.625 226.415 339.15C226.705 339.674 227.083 340.102 227.55 340.433C228.011 340.772 228.536 341.014 229.126 341.16C229.721 341.298 230.349 341.323 231.008 341.235C231.626 341.16 232.236 340.992 232.838 340.73C233.44 340.469 233.975 340.126 234.444 339.702C234.914 339.285 235.291 338.794 235.574 338.229C235.856 337.657 235.991 337.029 235.979 336.346C235.965 335.719 235.827 335.183 235.565 334.739C235.309 334.286 234.976 333.904 234.567 333.593C234.157 333.282 233.693 333.03 233.176 332.839C232.665 332.64 232.148 332.484 231.624 332.371C231.305 332.305 230.975 332.223 230.633 332.126C230.298 332.027 229.991 331.893 229.712 331.724C229.427 331.562 229.192 331.351 229.009 331.091C228.833 330.83 228.748 330.496 228.754 330.09C228.759 329.684 228.844 329.312 229.008 328.973C229.179 328.627 229.402 328.323 229.677 328.059C229.953 327.803 230.267 327.593 230.621 327.431C230.974 327.261 231.336 327.153 231.707 327.106C232.14 327.058 232.518 327.091 232.841 327.205C233.17 327.312 233.452 327.481 233.688 327.712C233.917 327.945 234.099 328.23 234.233 328.567C234.374 328.896 234.472 329.259 234.528 329.657L236.421 329.384C236.384 328.732 236.234 328.149 235.973 327.635C235.711 327.113 235.37 326.677 234.95 326.325C234.524 325.981 234.029 325.731 233.466 325.574C232.904 325.417 232.299 325.379 231.654 325.458C231.042 325.532 230.443 325.705 229.856 325.979C229.269 326.252 228.749 326.607 228.294 327.042C227.833 327.479 227.468 327.983 227.2 328.553C226.931 329.122 226.805 329.738 226.823 330.4C226.842 331.005 226.982 331.523 227.242 331.954C227.502 332.378 227.836 332.735 228.244 333.026C228.646 333.324 229.098 333.567 229.601 333.753C230.104 333.939 230.607 334.09 231.11 334.206C231.444 334.284 231.785 334.375 232.135 334.478C232.491 334.581 232.813 334.719 233.099 334.895C233.379 335.078 233.608 335.311 233.786 335.593C233.964 335.868 234.047 336.219 234.037 336.647Z" fill="white"/>
<path d="M251.01 331.409L251.129 329.663C251.155 329.163 251.139 328.652 251.08 328.129C251.027 327.599 250.93 327.085 250.79 326.588C250.643 326.099 250.448 325.641 250.202 325.214C249.964 324.787 249.669 324.423 249.316 324.124C248.964 323.824 248.552 323.603 248.082 323.46C247.617 323.309 247.086 323.269 246.488 323.339C245.87 323.413 245.308 323.579 244.802 323.839C244.304 324.098 243.86 324.423 243.47 324.814C243.074 325.212 242.728 325.663 242.431 326.166C242.141 326.668 241.898 327.191 241.703 327.736C241.5 328.288 241.341 328.852 241.224 329.428C241.114 329.995 241.037 330.551 240.994 331.095L240.875 332.852C240.849 333.352 240.862 333.863 240.914 334.387C240.973 334.909 241.076 335.415 241.223 335.905C241.369 336.394 241.565 336.852 241.81 337.278C242.055 337.705 242.354 338.068 242.707 338.368C243.059 338.667 243.467 338.892 243.932 339.043C244.402 339.186 244.933 339.223 245.524 339.154C246.143 339.08 246.702 338.914 247.2 338.655C247.705 338.395 248.156 338.069 248.553 337.678C248.942 337.287 249.282 336.841 249.572 336.339C249.862 335.837 250.108 335.309 250.31 334.757C250.506 334.212 250.659 333.656 250.77 333.088C250.886 332.513 250.966 331.953 251.01 331.409ZM249.284 329.882L249.158 331.681C249.128 332.056 249.079 332.451 249.011 332.865C248.943 333.28 248.85 333.692 248.732 334.099C248.609 334.515 248.456 334.914 248.274 335.296C248.091 335.678 247.871 336.02 247.612 336.322C247.354 336.631 247.05 336.887 246.7 337.091C246.349 337.287 245.95 337.41 245.503 337.459C245.076 337.505 244.708 337.463 244.398 337.332C244.094 337.193 243.834 336.996 243.618 336.74C243.402 336.491 243.23 336.194 243.103 335.849C242.976 335.503 242.879 335.143 242.812 334.768C242.744 334.394 242.705 334.018 242.693 333.643C242.682 333.267 242.683 332.921 242.697 332.605L242.834 330.814C242.864 330.447 242.914 330.055 242.982 329.641C243.05 329.226 243.146 328.81 243.27 328.395C243.394 327.986 243.548 327.594 243.731 327.219C243.92 326.836 244.146 326.489 244.411 326.179C244.67 325.877 244.971 325.628 245.315 325.433C245.666 325.23 246.065 325.104 246.512 325.054C246.938 325.008 247.303 325.051 247.606 325.183C247.916 325.314 248.179 325.504 248.395 325.753C248.604 326.002 248.772 326.3 248.899 326.645C249.026 326.984 249.122 327.337 249.189 327.705C249.249 328.081 249.282 328.457 249.287 328.833C249.298 329.209 249.297 329.559 249.284 329.882Z" fill="white"/>
<path d="M259.161 321.771L256.907 322.083L255.57 337.522L257.381 337.271L257.902 331.207L258.313 324.812L260.086 332.654L261.167 332.504L264.504 324.006L263.816 330.199L263.28 336.454L265.091 336.203L266.418 320.766L264.071 321.091L260.853 329.142L259.161 321.771Z" fill="white"/>
<path d="M279.962 327.118L280.118 325.453L274.042 326.278L274.481 321.317L281.474 320.368L281.629 318.692L272.773 319.894L271.395 335.329L280.334 334.116L280.49 332.45L273.405 333.412L273.896 327.941L279.962 327.118Z" fill="white"/>
<path d="M297.241 318.262L297.4 316.587L286.594 318.023L286.435 319.699L290.936 319.1L289.679 332.856L291.492 332.615L292.75 318.859L297.241 318.262Z" fill="white"/>
<path d="M302.435 315.925L302.263 317.632L305.685 317.187L304.551 329.212L301.14 329.656L300.978 331.352L309.789 330.205L309.951 328.51L306.458 328.964L307.591 316.939L311.074 316.486L311.246 314.779L302.435 315.925Z" fill="white"/>
<path d="M319.275 313.746L317.017 314.034L315.52 329.456L317.334 329.225L317.918 323.167L318.395 316.777L320.087 324.638L321.17 324.5L324.594 316.04L323.843 322.225L323.242 328.473L325.056 328.242L326.542 312.821L324.192 313.121L320.891 321.136L319.275 313.746Z" fill="white"/>
<path d="M339.99 319.35L340.178 317.688L334.087 318.389L334.62 313.438L341.631 312.632L341.818 310.96L332.939 311.981L331.267 327.383L340.229 326.353L340.416 324.691L333.313 325.508L333.909 320.049L339.99 319.35Z" fill="white"/>
<path d="M354.023 321.429C353.973 321.847 353.843 322.22 353.634 322.547C353.425 322.868 353.164 323.138 352.851 323.359C352.539 323.58 352.192 323.751 351.811 323.871C351.43 323.984 351.045 324.045 350.658 324.054C350.215 324.066 349.817 324.007 349.465 323.876C349.119 323.738 348.826 323.546 348.585 323.3C348.337 323.054 348.141 322.758 347.997 322.411C347.861 322.056 347.783 321.661 347.764 321.226L345.864 321.306C345.847 321.985 345.958 322.601 346.198 323.151C346.438 323.702 346.775 324.166 347.209 324.543C347.636 324.926 348.137 325.221 348.71 325.425C349.291 325.622 349.913 325.71 350.577 325.689C351.2 325.677 351.824 325.571 352.448 325.371C353.071 325.172 353.637 324.885 354.144 324.51C354.651 324.142 355.071 323.692 355.406 323.158C355.741 322.618 355.934 322.007 355.985 321.326C356.03 320.701 355.942 320.154 355.723 319.685C355.511 319.209 355.215 318.795 354.836 318.444C354.457 318.093 354.019 317.796 353.522 317.554C353.032 317.305 352.531 317.097 352.02 316.932C351.709 316.834 351.387 316.719 351.056 316.588C350.731 316.456 350.438 316.292 350.176 316.095C349.907 315.906 349.693 315.672 349.535 315.395C349.384 315.117 349.33 314.777 349.374 314.373C349.417 313.969 349.537 313.608 349.732 313.288C349.934 312.961 350.184 312.68 350.483 312.446C350.782 312.218 351.115 312.042 351.482 311.915C351.85 311.782 352.22 311.711 352.594 311.702C353.03 311.698 353.403 311.768 353.714 311.915C354.032 312.054 354.297 312.25 354.511 312.505C354.717 312.759 354.871 313.061 354.974 313.41C355.083 313.751 355.147 314.123 355.166 314.524L357.076 314.443C357.1 313.791 357.006 313.196 356.794 312.658C356.582 312.112 356.283 311.644 355.897 311.251C355.505 310.866 355.035 310.567 354.49 310.355C353.944 310.142 353.346 310.043 352.695 310.056C352.079 310.068 351.466 310.181 350.856 310.394C350.246 310.606 349.694 310.907 349.201 311.294C348.701 311.683 348.291 312.147 347.97 312.687C347.649 313.227 347.466 313.827 347.422 314.487C347.384 315.091 347.475 315.62 347.695 316.075C347.914 316.523 348.213 316.912 348.592 317.242C348.964 317.58 349.392 317.867 349.876 318.103C350.359 318.339 350.846 318.54 351.337 318.706C351.661 318.817 351.993 318.942 352.331 319.08C352.677 319.218 352.984 319.388 353.253 319.592C353.515 319.802 353.721 320.057 353.872 320.355C354.023 320.647 354.073 321.005 354.023 321.429Z" fill="white"/>
<path d="M365.252 324.68L365.659 322.869L363.622 322.837L363.182 324.688C363.044 325.288 362.838 325.853 362.564 326.381C362.298 326.91 361.967 327.414 361.572 327.892L362.676 328.585C362.973 328.361 363.251 328.113 363.51 327.84C363.775 327.574 364.013 327.291 364.224 326.99C364.466 326.647 364.674 326.28 364.85 325.889C365.025 325.497 365.159 325.094 365.252 324.68Z" fill="white"/>
<path d="M400.336 322.404L398.53 322.293C398.355 322.723 398.141 323.127 397.889 323.503C397.644 323.879 397.356 324.2 397.026 324.466C396.695 324.731 396.324 324.931 395.911 325.065C395.505 325.2 395.055 325.237 394.56 325.177C394.126 325.129 393.767 325.01 393.482 324.821C393.198 324.625 392.975 324.381 392.814 324.091C392.651 323.807 392.538 323.489 392.474 323.137C392.418 322.778 392.394 322.412 392.402 322.037C392.41 321.663 392.446 321.291 392.51 320.921C392.574 320.544 392.649 320.195 392.735 319.876L393.332 317.777C393.437 317.41 393.564 317.031 393.714 316.64C393.871 316.243 394.054 315.858 394.265 315.486C394.467 315.12 394.695 314.773 394.949 314.446C395.21 314.119 395.503 313.84 395.829 313.609C396.148 313.384 396.499 313.214 396.881 313.099C397.271 312.984 397.693 312.951 398.147 313.001C398.615 313.052 398.993 313.186 399.282 313.403C399.578 313.614 399.809 313.879 399.975 314.198C400.133 314.516 400.235 314.871 400.28 315.264C400.326 315.656 400.335 316.06 400.308 316.474L402.163 316.621C402.211 315.958 402.175 315.33 402.056 314.737C401.943 314.145 401.735 313.618 401.433 313.157C401.13 312.695 400.731 312.316 400.236 312.02C399.741 311.717 399.139 311.53 398.429 311.46C397.802 311.397 397.216 311.434 396.67 311.571C396.126 311.702 395.621 311.905 395.157 312.181C394.686 312.463 394.256 312.808 393.868 313.214C393.48 313.614 393.133 314.052 392.828 314.528C392.514 315.01 392.24 315.517 392.005 316.047C391.776 316.577 391.586 317.111 391.434 317.648L390.861 319.717C390.734 320.214 390.647 320.725 390.601 321.249C390.555 321.766 390.563 322.274 390.624 322.772C390.678 323.269 390.787 323.743 390.952 324.194C391.116 324.644 391.348 325.045 391.65 325.395C391.943 325.751 392.306 326.048 392.739 326.283C393.18 326.513 393.696 326.658 394.288 326.718C395.011 326.796 395.69 326.742 396.325 326.556C396.967 326.364 397.551 326.074 398.077 325.685C398.596 325.295 399.048 324.82 399.433 324.26C399.819 323.694 400.12 323.075 400.336 322.404Z" fill="white"/>
<path d="M416.4 321.601L416.87 319.92C416.997 319.437 417.084 318.934 417.132 318.41C417.188 317.879 417.197 317.356 417.161 316.838C417.116 316.328 417.017 315.837 416.864 315.365C416.717 314.895 416.502 314.474 416.218 314.104C415.934 313.733 415.576 313.425 415.145 313.182C414.721 312.931 414.21 312.775 413.611 312.711C412.991 312.647 412.408 312.685 411.861 312.828C411.321 312.971 410.821 313.19 410.361 313.486C409.893 313.788 409.463 314.152 409.072 314.578C408.687 315.005 408.343 315.463 408.041 315.952C407.732 316.448 407.462 316.964 407.231 317.501C407.008 318.031 406.821 318.558 406.668 319.08L406.197 320.771C406.07 321.254 405.979 321.757 405.924 322.281C405.877 322.805 405.875 323.322 405.919 323.833C405.963 324.344 406.062 324.835 406.216 325.306C406.369 325.777 406.588 326.198 406.872 326.569C407.156 326.94 407.51 327.25 407.933 327.5C408.365 327.744 408.876 327.897 409.469 327.96C410.088 328.025 410.668 327.986 411.208 327.843C411.755 327.7 412.262 327.481 412.729 327.186C413.189 326.891 413.611 326.529 413.996 326.103C414.381 325.676 414.729 325.215 415.038 324.719C415.34 324.23 415.602 323.72 415.825 323.189C416.056 322.653 416.247 322.123 416.4 321.601ZM415.021 319.726L414.534 321.458C414.429 321.817 414.301 322.192 414.15 322.583C414 322.973 413.826 323.355 413.628 323.728C413.423 324.107 413.193 324.463 412.938 324.796C412.682 325.13 412.397 325.415 412.083 325.653C411.769 325.898 411.419 326.082 411.036 326.203C410.653 326.317 410.237 326.349 409.79 326.298C409.364 326.249 409.012 326.127 408.736 325.93C408.467 325.727 408.252 325.477 408.092 325.179C407.931 324.888 407.824 324.56 407.769 324.194C407.715 323.828 407.693 323.455 407.703 323.073C407.713 322.692 407.75 322.316 407.815 321.947C407.879 321.577 407.951 321.239 408.029 320.933L408.525 319.212C408.629 318.86 408.756 318.488 408.907 318.097C409.058 317.707 409.236 317.322 409.441 316.943C409.645 316.571 409.875 316.221 410.129 315.895C410.392 315.562 410.684 315.274 411.005 315.029C411.319 314.791 411.664 314.615 412.04 314.5C412.424 314.378 412.84 314.343 413.287 314.394C413.713 314.443 414.061 314.565 414.331 314.761C414.608 314.958 414.827 315.201 414.987 315.492C415.141 315.783 415.245 316.111 415.3 316.477C415.355 316.836 415.378 317.202 415.369 317.577C415.352 317.957 415.308 318.332 415.236 318.702C415.171 319.072 415.1 319.413 415.021 319.726Z" fill="white"/>
<path d="M425.971 313.882L423.7 313.732L419.519 328.609L421.345 328.73L422.983 322.885L424.573 316.693L424.857 324.747L425.946 324.819L430.8 317.158L428.975 323.094L427.286 329.123L429.111 329.244L433.281 314.366L430.917 314.209L426.263 321.457L425.971 313.882Z" fill="white"/>
<path d="M444.706 322.975L445.114 321.356L438.986 321.164L440.176 316.339L447.229 316.561L447.637 314.932L438.704 314.651L434.992 329.661L444.008 329.944L444.415 328.326L437.269 328.101L438.588 322.782L444.706 322.975Z" fill="white"/>
<path d="M475.69 325.128L473.881 325.175C473.74 325.619 473.559 326.04 473.338 326.436C473.123 326.832 472.861 327.177 472.553 327.471C472.245 327.764 471.89 327.995 471.49 328.165C471.096 328.334 470.65 328.411 470.152 328.394C469.716 328.384 469.348 328.298 469.049 328.134C468.751 327.963 468.509 327.741 468.325 327.465C468.141 327.197 468.002 326.89 467.911 326.545C467.826 326.193 467.773 325.83 467.752 325.456C467.73 325.082 467.737 324.709 467.771 324.335C467.805 323.954 467.852 323.6 467.912 323.274L468.341 321.132C468.417 320.757 468.513 320.369 468.632 319.966C468.757 319.557 468.91 319.158 469.089 318.769C469.262 318.386 469.462 318.021 469.689 317.673C469.923 317.325 470.194 317.022 470.501 316.763C470.8 316.511 471.136 316.311 471.509 316.163C471.888 316.014 472.306 315.945 472.763 315.954C473.233 315.964 473.621 316.065 473.926 316.256C474.238 316.44 474.489 316.684 474.679 316.987C474.862 317.29 474.992 317.635 475.069 318.022C475.145 318.409 475.186 318.81 475.192 319.225L477.052 319.209C477.048 318.545 476.963 317.922 476.796 317.342C476.637 316.762 476.388 316.256 476.05 315.822C475.712 315.389 475.285 315.047 474.767 314.795C474.25 314.537 473.635 314.403 472.922 314.396C472.292 314.387 471.71 314.475 471.177 314.66C470.645 314.837 470.158 315.084 469.718 315.399C469.27 315.721 468.869 316.102 468.514 316.541C468.159 316.973 467.848 317.44 467.581 317.94C467.307 318.448 467.074 318.976 466.881 319.525C466.696 320.073 466.548 320.621 466.439 321.169L466.032 323.28C465.944 323.786 465.898 324.302 465.894 324.828C465.889 325.347 465.937 325.852 466.038 326.343C466.131 326.833 466.277 327.296 466.477 327.73C466.676 328.165 466.94 328.543 467.268 328.866C467.589 329.195 467.974 329.458 468.424 329.655C468.881 329.845 469.408 329.944 470.003 329.953C470.73 329.968 471.402 329.855 472.02 329.614C472.645 329.366 473.204 329.026 473.698 328.592C474.184 328.159 474.597 327.647 474.936 327.056C475.276 326.457 475.527 325.815 475.69 325.128Z" fill="white"/>
<path d="M485.29 323.549L486.749 329.736L488.734 329.761L488.762 329.627L487.088 323.188C487.555 323.007 487.994 322.791 488.403 322.54C488.818 322.289 489.191 321.996 489.522 321.661C489.845 321.326 490.116 320.949 490.333 320.53C490.55 320.11 490.693 319.641 490.763 319.123C490.856 318.439 490.817 317.826 490.646 317.284C490.482 316.735 490.217 316.267 489.85 315.882C489.482 315.503 489.027 315.207 488.484 314.992C487.941 314.777 487.342 314.655 486.685 314.626L482.497 314.562L479.039 329.637L480.909 329.661L482.318 323.511L485.29 323.549ZM482.675 321.937L484.001 316.16L486.556 316.203C486.971 316.229 487.337 316.313 487.655 316.456C487.98 316.598 488.247 316.792 488.455 317.037C488.656 317.289 488.792 317.588 488.863 317.936C488.942 318.276 488.945 318.657 488.873 319.078C488.793 319.541 488.631 319.954 488.389 320.318C488.148 320.682 487.857 320.986 487.518 321.231C487.171 321.482 486.786 321.675 486.363 321.808C485.94 321.934 485.507 321.994 485.064 321.988L482.675 321.937Z" fill="white"/>
<path d="M500.777 322.502L499.337 314.865L497.301 314.792L499.489 324.243L498.076 329.948L499.821 330.011L501.227 324.534L508.237 315.185L506.004 315.105L500.777 322.502Z" fill="white"/>
<path d="M524.185 331.195L526.122 331.351L530.597 321.491L531.105 320.365L530.97 321.615L529.883 331.655L531.789 331.809L537.685 317.114L535.882 316.968L532.07 326.882L531.768 327.681L531.85 326.885L532.889 316.727L531.252 316.595L526.873 326.171L526.408 327.196L526.593 326.148L528.279 316.355L526.518 316.212L524.185 331.195Z" fill="white"/>
<path d="M543.188 317.616L542.66 319.242L546.091 319.599L542.446 331.072L539.025 330.716L538.509 332.333L547.346 333.252L547.863 331.635L544.359 331.271L548.004 319.798L551.497 320.161L552.025 318.535L543.188 317.616Z" fill="white"/>
<path d="M567.843 322.112L568.39 320.527L557.575 319.15L557.029 320.735L561.534 321.309L557.1 334.336L558.914 334.567L563.349 321.54L567.843 322.112Z" fill="white"/>
<path d="M577.624 337.152L582.901 322.652L581.144 322.387L578.873 328.621L572.933 327.726L575.205 321.492L573.458 321.229L568.18 335.729L569.927 335.993L572.367 329.29L578.307 330.185L575.867 336.887L577.624 337.152Z" fill="white"/>
<path d="M612.931 328.083L611.146 327.731L607.173 337.388C606.996 337.805 606.766 338.201 606.484 338.576C606.202 338.951 605.88 339.269 605.517 339.529C605.147 339.788 604.741 339.972 604.298 340.082C603.863 340.187 603.406 340.185 602.926 340.076C602.474 339.973 602.114 339.789 601.846 339.524C601.587 339.254 601.401 338.942 601.288 338.588C601.175 338.234 601.131 337.854 601.157 337.45C601.183 337.046 601.264 336.649 601.4 336.259L605.304 326.578L603.551 326.231L599.596 335.903C599.38 336.524 599.281 337.147 599.298 337.771C599.317 338.389 599.45 338.959 599.696 339.481C599.934 340.008 600.283 340.465 600.743 340.852C601.205 341.233 601.774 341.497 602.451 341.645C603.168 341.801 603.865 341.808 604.542 341.666C605.22 341.524 605.847 341.271 606.425 340.905C607.001 340.545 607.513 340.092 607.961 339.545C608.409 338.998 608.759 338.397 609.011 337.741L612.931 328.083Z" fill="white"/>
<path d="M621.722 341.45C621.576 341.844 621.364 342.173 621.086 342.438C620.81 342.696 620.495 342.892 620.141 343.027C619.788 343.162 619.413 343.239 619.016 343.257C618.621 343.269 618.235 343.23 617.858 343.14C617.426 343.037 617.055 342.877 616.745 342.66C616.442 342.437 616.203 342.175 616.027 341.873C615.844 341.571 615.723 341.232 615.664 340.857C615.614 340.477 615.63 340.073 615.713 339.644L613.856 339.234C613.682 339.891 613.647 340.518 613.752 341.116C613.856 341.713 614.075 342.251 614.408 342.729C614.732 343.212 615.148 343.627 615.656 343.973C616.172 344.314 616.754 344.559 617.402 344.71C618.007 344.858 618.635 344.915 619.285 344.881C619.934 344.847 620.548 344.713 621.125 344.479C621.701 344.251 622.212 343.921 622.66 343.488C623.109 343.048 623.437 342.503 623.644 341.854C623.832 341.257 623.874 340.702 623.771 340.19C623.675 339.672 623.485 339.194 623.2 338.755C622.914 338.316 622.559 337.915 622.134 337.551C621.718 337.183 621.281 336.852 620.825 336.56C620.546 336.385 620.262 336.191 619.972 335.978C619.688 335.766 619.442 335.531 619.234 335.272C619.018 335.018 618.865 334.737 618.777 334.426C618.695 334.117 618.722 333.772 618.857 333.39C618.993 333.009 619.192 332.688 619.455 332.427C619.726 332.16 620.034 331.951 620.377 331.8C620.718 331.656 621.082 331.569 621.466 331.541C621.853 331.506 622.228 331.532 622.591 331.619C623.014 331.727 623.359 331.892 623.626 332.114C623.901 332.33 624.113 332.59 624.26 332.892C624.401 333.193 624.48 333.526 624.499 333.892C624.525 334.252 624.501 334.63 624.426 335.025L626.294 335.437C626.468 334.809 626.514 334.206 626.434 333.628C626.355 333.043 626.174 332.51 625.892 332.029C625.601 331.553 625.216 331.142 624.738 330.795C624.259 330.448 623.703 330.198 623.07 330.044C622.471 329.897 621.852 329.849 621.213 329.899C620.573 329.95 619.97 330.1 619.403 330.351C618.829 330.6 618.325 330.946 617.889 331.389C617.454 331.832 617.138 332.369 616.942 332.999C616.766 333.578 616.731 334.116 616.838 334.615C616.947 335.107 617.146 335.563 617.437 335.982C617.719 336.406 618.066 336.794 618.479 337.148C618.892 337.502 619.317 337.823 619.753 338.111C620.041 338.302 620.333 338.508 620.629 338.73C620.931 338.952 621.189 339.197 621.402 339.464C621.607 339.737 621.748 340.037 621.825 340.366C621.903 340.689 621.869 341.05 621.722 341.45Z" fill="white"/>
<path d="M648.182 336.288L647.433 337.819L650.766 338.712L645.556 349.526L642.234 348.636L641.497 350.16L650.08 352.459L650.817 350.935L647.414 350.023L652.623 339.209L656.016 340.118L656.765 338.587L648.182 336.288Z" fill="white"/>
<path d="M666.731 350.221L667.478 348.739L661.611 347.03L663.993 342.334L670.827 344.325L671.587 342.836L662.917 340.31L655.977 354.047L657.793 354.576L660.865 348.511L666.731 350.221Z" fill="white"/>
<path d="M691.965 357.281L692.547 349.469L690.618 348.816L690.286 358.6L687.47 363.724L689.124 364.284L691.874 359.379L700.983 352.324L698.867 351.608L691.965 357.281Z" fill="white"/>
<path d="M708.685 364.029L709.531 362.511C709.765 362.073 709.967 361.604 710.135 361.105C710.312 360.602 710.444 360.094 710.529 359.579C710.606 359.069 710.625 358.564 710.587 358.065C710.555 357.567 710.446 357.101 710.259 356.665C710.072 356.23 709.8 355.837 709.441 355.487C709.091 355.133 708.635 354.847 708.073 354.629C707.491 354.405 706.92 354.291 706.361 354.288C705.807 354.288 705.275 354.372 704.762 354.541C704.241 354.714 703.742 354.958 703.265 355.272C702.795 355.588 702.357 355.946 701.952 356.345C701.539 356.749 701.158 357.182 700.811 357.646C700.472 358.106 700.169 358.571 699.9 359.041L699.052 360.569C698.817 361.007 698.612 361.475 698.437 361.971C698.269 362.47 698.146 362.975 698.07 363.485C697.993 363.995 697.974 364.5 698.012 365C698.05 365.499 698.163 365.967 698.35 366.402C698.537 366.838 698.805 367.233 699.155 367.587C699.513 367.937 699.97 368.22 700.526 368.435C701.108 368.659 701.675 368.772 702.229 368.772C702.789 368.775 703.328 368.693 703.847 368.527C704.359 368.358 704.85 368.115 705.32 367.799C705.791 367.482 706.233 367.122 706.647 366.719C707.051 366.32 707.423 365.89 707.762 365.431C708.109 364.967 708.417 364.5 708.685 364.029ZM707.795 361.842L706.922 363.405C706.737 363.729 706.526 364.061 706.29 364.403C706.054 364.745 705.797 365.073 705.52 365.385C705.234 365.702 704.929 365.99 704.605 366.249C704.281 366.507 703.941 366.712 703.583 366.863C703.222 367.021 702.843 367.108 702.445 367.127C702.05 367.139 701.642 367.062 701.223 366.897C700.824 366.738 700.514 366.527 700.294 366.263C700.082 365.996 699.934 365.696 699.849 365.363C699.762 365.037 699.735 364.689 699.768 364.318C699.801 363.947 699.867 363.576 699.965 363.207C700.064 362.837 700.188 362.481 700.336 362.136C700.485 361.792 700.632 361.481 700.779 361.202L701.657 359.652C701.84 359.335 702.05 359.006 702.286 358.664C702.522 358.322 702.783 357.992 703.069 357.676C703.353 357.365 703.655 357.084 703.977 356.832C704.307 356.575 704.656 356.369 705.023 356.214C705.381 356.064 705.754 355.981 706.143 355.966C706.541 355.948 706.95 356.021 707.368 356.187C707.768 356.346 708.074 356.556 708.289 356.817C708.509 357.08 708.663 357.375 708.75 357.701C708.83 358.025 708.854 358.372 708.821 358.743C708.791 359.108 708.727 359.471 708.631 359.834C708.526 360.201 708.396 360.556 708.241 360.898C708.092 361.242 707.944 361.557 707.795 361.842Z" fill="white"/>
<path d="M726.853 361.873L725.156 361.221L719.781 370.134C719.543 370.518 719.257 370.872 718.923 371.196C718.59 371.521 718.225 371.781 717.829 371.978C717.426 372.172 716.999 372.287 716.548 372.321C716.105 372.352 715.656 372.272 715.202 372.083C714.774 371.904 714.448 371.66 714.226 371.352C714.013 371.04 713.878 370.699 713.821 370.328C713.764 369.958 713.779 369.574 713.866 369.177C713.953 368.78 714.093 368.399 714.286 368.036L719.596 359.087L717.928 358.447L712.569 367.376C712.262 367.956 712.07 368.558 711.992 369.181C711.916 369.797 711.959 370.385 712.121 370.945C712.274 371.508 712.547 372.021 712.94 372.484C713.335 372.94 713.854 373.298 714.496 373.559C715.176 373.836 715.86 373.961 716.546 373.935C717.232 373.909 717.887 373.763 718.51 373.498C719.131 373.239 719.703 372.876 720.226 372.408C720.749 371.941 721.184 371.403 721.531 370.795L726.853 361.873Z" fill="white"/>
<path d="M749.376 382.588L747.703 381.903C747.413 382.261 747.094 382.58 746.747 382.86C746.407 383.144 746.042 383.36 745.653 383.51C745.265 383.659 744.856 383.733 744.428 383.729C744.006 383.729 743.57 383.62 743.12 383.404C742.724 383.219 742.419 382.99 742.205 382.716C741.993 382.437 741.853 382.131 741.785 381.8C741.713 381.475 741.698 381.133 741.74 380.774C741.79 380.411 741.873 380.051 741.989 379.694C742.105 379.336 742.247 378.99 742.414 378.654C742.584 378.313 742.755 378.002 742.928 377.722L744.099 375.895C744.304 375.576 744.534 375.252 744.788 374.924C745.051 374.592 745.336 374.281 745.642 373.991C745.939 373.704 746.255 373.443 746.589 373.21C746.929 372.979 747.287 372.805 747.662 372.688C748.028 372.573 748.408 372.522 748.803 372.534C749.204 372.548 749.612 372.652 750.027 372.845C750.454 373.044 750.772 373.294 750.982 373.595C751.201 373.893 751.342 374.222 751.407 374.581C751.464 374.938 751.458 375.312 751.387 375.704C751.317 376.096 751.209 376.487 751.064 376.877L752.772 377.613C753.01 376.991 753.158 376.375 753.216 375.767C753.28 375.161 753.236 374.588 753.084 374.047C752.932 373.507 752.665 373.015 752.283 372.571C751.903 372.121 751.388 371.749 750.738 371.454C750.164 371.192 749.6 371.04 749.045 370.997C748.493 370.948 747.958 370.982 747.44 371.099C746.914 371.219 746.408 371.413 745.924 371.679C745.442 371.94 744.988 372.25 744.562 372.61C744.127 372.973 743.721 373.372 743.346 373.806C742.977 374.243 742.643 374.695 742.344 375.162L741.204 376.969C740.941 377.406 740.711 377.869 740.516 378.358C740.324 378.841 740.184 379.332 740.098 379.83C740.005 380.326 739.971 380.817 739.996 381.302C740.021 381.788 740.125 382.248 740.308 382.681C740.482 383.118 740.74 383.519 741.08 383.884C741.43 384.246 741.876 384.551 742.418 384.799C743.078 385.106 743.734 385.271 744.387 385.296C745.05 385.317 745.685 385.224 746.294 385.019C746.897 384.81 747.461 384.498 747.986 384.083C748.514 383.662 748.978 383.164 749.376 382.588Z" fill="white"/>
<path d="M760.713 388.368L759.54 392.139L761.177 392.883L765.543 378.246L764.105 377.593L751.187 388.341L752.965 389.15L756.276 386.351L760.713 388.368ZM757.673 385.148L763.189 380.464L761.22 386.761L757.673 385.148Z" fill="white"/>
<path d="M774.202 399.01L783.02 386.454L781.304 385.634L774.652 395.055L776.101 383.146L774.432 382.348L765.614 394.903L767.33 395.724L773.991 386.284L772.533 398.212L774.202 399.01Z" fill="white"/>
<path d="M793.506 392.167L794.399 390.917L792.754 390.092L791.825 391.37C791.464 391.855 791.055 392.27 790.6 392.616C790.145 392.961 789.65 393.267 789.118 393.535L789.661 394.667C790.056 394.587 790.438 394.468 790.808 394.313C791.184 394.16 791.538 393.974 791.87 393.753C792.181 393.545 792.475 393.308 792.751 393.044C793.031 392.773 793.283 392.481 793.506 392.167Z" fill="white"/>
<path d="M808.487 401.236L809.491 399.909L799.833 394.852L798.829 396.18L802.852 398.286L794.647 409.216L796.267 410.064L804.472 399.135L808.487 401.236Z" fill="white"/>
<path d="M829.933 423.3L828.348 422.431C828.025 422.758 827.678 423.043 827.307 423.285C826.942 423.532 826.56 423.708 826.161 423.815C825.761 423.923 825.35 423.951 824.927 423.901C824.509 423.854 824.089 423.698 823.666 423.433C823.293 423.205 823.015 422.942 822.831 422.645C822.649 422.343 822.542 422.022 822.507 421.683C822.469 421.35 822.488 421.006 822.565 420.652C822.652 420.294 822.77 419.943 822.921 419.598C823.071 419.253 823.246 418.922 823.445 418.605C823.647 418.282 823.848 417.989 824.047 417.728L825.388 416.029C825.622 415.732 825.882 415.434 826.166 415.133C826.46 414.83 826.773 414.55 827.105 414.293C827.427 414.038 827.765 413.812 828.119 413.615C828.479 413.422 828.85 413.287 829.232 413.21C829.606 413.136 829.987 413.126 830.376 413.18C830.771 413.238 831.164 413.387 831.555 413.626C831.957 413.871 832.247 414.156 832.424 414.481C832.61 414.802 832.717 415.146 832.745 415.513C832.766 415.876 832.722 416.25 832.613 416.634C832.504 417.018 832.358 417.398 832.175 417.772L833.791 418.694C834.088 418.098 834.296 417.499 834.414 416.896C834.539 416.297 834.553 415.719 834.457 415.162C834.361 414.605 834.146 414.083 833.813 413.598C833.482 413.106 833.011 412.678 832.398 412.312C831.857 411.987 831.314 411.774 830.77 411.67C830.229 411.561 829.696 411.536 829.173 411.597C828.64 411.659 828.12 411.798 827.615 412.012C827.113 412.22 826.633 412.48 826.175 412.793C825.708 413.109 825.267 413.464 824.853 413.857C824.444 414.254 824.068 414.67 823.726 415.105L822.418 416.787C822.114 417.196 821.84 417.634 821.598 418.102C821.359 418.564 821.172 419.039 821.037 419.528C820.896 420.014 820.813 420.501 820.789 420.99C820.765 421.478 820.821 421.949 820.959 422.403C821.087 422.859 821.301 423.288 821.601 423.691C821.911 424.091 822.321 424.444 822.832 424.752C823.454 425.13 824.086 425.368 824.73 425.464C825.382 425.557 826.02 425.534 826.642 425.395C827.259 425.252 827.848 425.002 828.409 424.644C828.974 424.28 829.482 423.832 829.933 423.3Z" fill="white"/>
<path d="M838.837 426.647L837.325 432.926L839.033 433.937L839.118 433.83L840.556 427.219C841.042 427.29 841.519 427.314 841.986 427.293C842.458 427.275 842.913 427.198 843.349 427.062C843.78 426.922 844.183 426.719 844.56 426.45C844.936 426.182 845.271 425.833 845.564 425.403C845.951 424.835 846.193 424.266 846.287 423.694C846.392 423.119 846.371 422.568 846.226 422.039C846.078 421.517 845.817 421.024 845.443 420.561C845.069 420.098 844.604 419.689 844.048 419.336L840.45 417.192L830.691 428.996L832.3 429.949L836.28 425.132L838.837 426.647ZM837.295 423.898L841.035 419.375L843.23 420.687C843.577 420.917 843.856 421.175 844.068 421.461C844.285 421.751 844.429 422.058 844.5 422.381C844.561 422.707 844.545 423.044 844.451 423.391C844.366 423.735 844.198 424.078 843.947 424.421C843.669 424.796 843.344 425.086 842.971 425.292C842.599 425.498 842.21 425.626 841.807 425.677C841.394 425.73 840.974 425.711 840.548 425.62C840.125 425.522 839.722 425.36 839.341 425.134L837.295 423.898Z" fill="white"/>
<path d="M852.824 433.471L854.966 425.882L853.232 424.814L850.933 434.405L847.173 438.85L848.66 439.766L852.312 435.523L862.55 430.552L860.647 429.381L852.824 433.471Z" fill="white"/>
<path d="M882.026 453.165L883.165 451.863C883.485 451.485 883.779 451.069 884.048 450.616C884.327 450.161 884.562 449.69 884.754 449.202C884.937 448.717 885.064 448.224 885.134 447.722C885.21 447.225 885.204 446.739 885.117 446.267C885.03 445.794 884.851 445.344 884.581 444.916C884.319 444.486 883.941 444.099 883.446 443.755C882.933 443.399 882.407 443.155 881.868 443.023C881.335 442.895 880.803 442.855 880.273 442.903C879.734 442.954 879.201 443.079 878.674 443.279C878.153 443.482 877.655 443.734 877.179 444.034C876.694 444.337 876.235 444.676 875.801 445.054C875.376 445.429 874.984 445.817 874.625 446.219L873.48 447.53C873.16 447.908 872.863 448.322 872.588 448.771C872.319 449.224 872.093 449.694 871.911 450.179C871.728 450.664 871.601 451.158 871.531 451.659C871.461 452.161 871.469 452.648 871.556 453.12C871.643 453.593 871.817 454.044 872.079 454.474C872.349 454.902 872.73 455.287 873.219 455.627C873.732 455.982 874.255 456.224 874.788 456.352C875.327 456.484 875.864 456.528 876.4 456.484C876.93 456.435 877.455 456.309 877.976 456.106C878.497 455.902 879 455.649 879.485 455.347C879.961 455.047 880.411 454.709 880.835 454.334C881.27 453.956 881.666 453.567 882.026 453.165ZM881.635 450.802L880.46 452.143C880.212 452.419 879.938 452.698 879.637 452.981C879.336 453.264 879.019 453.527 878.685 453.772C878.341 454.018 877.986 454.231 877.619 454.412C877.251 454.593 876.879 454.716 876.501 454.782C876.12 454.854 875.736 454.853 875.349 454.78C874.965 454.701 874.589 454.531 874.22 454.271C873.869 454.022 873.616 453.743 873.46 453.432C873.313 453.119 873.234 452.789 873.224 452.442C873.21 452.1 873.258 451.75 873.369 451.392C873.48 451.034 873.623 450.684 873.797 450.342C873.971 450.001 874.166 449.677 874.383 449.372C874.6 449.067 874.809 448.794 875.009 448.553L876.188 447.227C876.432 446.957 876.704 446.68 877.005 446.397C877.306 446.115 877.628 445.85 877.971 445.604C878.311 445.363 878.663 445.156 879.027 444.981C879.4 444.804 879.78 444.682 880.167 444.614C880.544 444.548 880.921 444.552 881.3 444.628C881.687 444.701 882.065 444.868 882.433 445.128C882.784 445.377 883.035 445.654 883.185 445.961C883.342 446.272 883.427 446.598 883.441 446.94C883.449 447.277 883.398 447.625 883.287 447.984C883.18 448.336 883.041 448.68 882.87 449.016C882.69 449.354 882.489 449.673 882.267 449.974C882.05 450.28 881.84 450.556 881.635 450.802Z" fill="white"/>
<path d="M889.247 466.183L899.702 455.02L898.137 453.94L890.256 462.31L893.391 450.663L891.868 449.612L881.413 460.775L882.978 461.855L890.87 453.467L887.724 465.132L889.247 466.183Z" fill="white"/>
<path d="M917.713 481.435L916.259 480.362C915.901 480.646 915.524 480.885 915.128 481.079C914.738 481.278 914.34 481.404 913.933 481.46C913.527 481.515 913.118 481.49 912.707 481.385C912.302 481.284 911.907 481.073 911.523 480.753C911.185 480.477 910.943 480.178 910.798 479.858C910.657 479.532 910.591 479.198 910.599 478.855C910.602 478.518 910.664 478.177 910.784 477.833C910.913 477.487 911.073 477.152 911.264 476.827C911.455 476.502 911.668 476.194 911.903 475.903C912.142 475.607 912.376 475.341 912.605 475.106L914.136 473.583C914.404 473.317 914.696 473.053 915.013 472.79C915.34 472.525 915.683 472.286 916.042 472.072C916.391 471.86 916.752 471.678 917.124 471.527C917.503 471.381 917.885 471.294 918.271 471.267C918.648 471.242 919.025 471.281 919.401 471.386C919.783 471.496 920.152 471.695 920.507 471.984C920.873 472.282 921.123 472.604 921.257 472.951C921.401 473.296 921.464 473.654 921.445 474.024C921.421 474.389 921.332 474.756 921.177 475.126C921.022 475.496 920.831 475.856 920.605 476.206L922.082 477.336C922.448 476.78 922.727 476.208 922.919 475.622C923.116 475.04 923.201 474.465 923.175 473.896C923.15 473.327 923.003 472.778 922.734 472.25C922.47 471.716 922.058 471.227 921.5 470.782C921.007 470.387 920.499 470.103 919.976 469.93C919.457 469.75 918.935 469.656 918.412 469.648C917.88 469.642 917.351 469.713 916.826 469.861C916.306 470.003 915.801 470.201 915.312 470.454C914.813 470.709 914.335 471.006 913.878 471.345C913.426 471.688 913.004 472.054 912.613 472.444L911.117 473.954C910.767 474.323 910.443 474.725 910.147 475.161C909.854 475.591 909.611 476.041 909.418 476.512C909.218 476.979 909.077 477.455 908.992 477.94C908.908 478.424 908.905 478.902 908.985 479.373C909.055 479.845 909.212 480.301 909.458 480.742C909.714 481.182 910.074 481.589 910.539 481.962C911.104 482.421 911.698 482.74 912.32 482.919C912.951 483.097 913.582 483.157 914.212 483.099C914.837 483.037 915.448 482.863 916.045 482.579C916.646 482.289 917.202 481.908 917.713 481.435Z" fill="white"/>
<path d="M925.762 488.62L923.789 492.056L925.194 493.178L932.673 479.796L931.438 478.811L916.619 486.329L918.145 487.549L921.954 485.579L925.762 488.62ZM923.565 484.725L929.914 481.421L926.61 487.157L923.565 484.725Z" fill="white"/>
<path d="M942.077 487.447L940.329 485.99L929.021 496.251L930.425 497.422L934.865 493.388L939.451 489.031L935.38 496.076L936.218 496.775L944.217 493.071L939.578 497.074L934.999 501.235L936.404 502.406L947.705 492.139L945.885 490.622L938.268 494.089L942.077 487.447Z" fill="white"/>
<path d="M947.175 503.596L949.436 505.573C949.959 506.027 950.527 506.382 951.139 506.638C951.756 506.899 952.379 507.041 953.009 507.065C953.634 507.085 954.245 506.978 954.842 506.745C955.444 506.507 955.997 506.125 956.501 505.599C956.956 505.124 957.278 504.614 957.466 504.072C957.664 503.529 957.744 502.984 957.705 502.437C957.661 501.885 957.502 501.348 957.229 500.827C956.966 500.305 956.6 499.826 956.131 499.392L952.63 496.339L941.15 506.398L942.563 507.624L947.175 503.596ZM948.371 502.544L952.854 498.624L955.108 500.595C955.404 500.879 955.619 501.185 955.754 501.513C955.899 501.841 955.97 502.172 955.966 502.508C955.957 502.839 955.875 503.167 955.72 503.491C955.575 503.814 955.36 504.114 955.075 504.389C954.742 504.714 954.377 504.952 953.979 505.102C953.588 505.257 953.191 505.33 952.789 505.32C952.378 505.312 951.972 505.23 951.572 505.075C951.177 504.915 950.806 504.685 950.461 504.386L948.371 502.544Z" fill="white"/>
<path d="M971.272 512.85L969.921 511.632L962.024 518.298C961.678 518.583 961.297 518.822 960.882 519.017C960.467 519.211 960.045 519.333 959.615 519.384C959.18 519.43 958.748 519.39 958.32 519.265C957.902 519.14 957.514 518.907 957.158 518.567C956.822 518.245 956.603 517.898 956.499 517.525C956.405 517.151 956.393 516.777 956.463 516.402C956.533 516.027 956.674 515.664 956.885 515.314C957.096 514.964 957.351 514.648 957.649 514.367L965.499 507.644L964.172 506.447L956.283 513.135C955.809 513.584 955.433 514.093 955.155 514.663C954.882 515.228 954.728 515.806 954.693 516.399C954.648 516.993 954.73 517.58 954.94 518.16C955.154 518.736 955.514 519.261 956.019 519.735C956.556 520.238 957.145 520.596 957.786 520.811C958.428 521.026 959.079 521.115 959.742 521.078C960.399 521.047 961.046 520.899 961.683 520.634C962.319 520.369 962.898 520.005 963.42 519.543L971.272 512.85Z" fill="white"/>
<path d="M971.802 528.638C971.495 528.92 971.162 529.11 970.802 529.21C970.447 529.304 970.087 529.324 969.723 529.269C969.36 529.214 969.005 529.095 968.658 528.914C968.316 528.728 968.006 528.499 967.726 528.23C967.407 527.922 967.165 527.592 967.002 527.241C966.848 526.889 966.766 526.534 966.756 526.174C966.741 525.81 966.796 525.444 966.92 525.077C967.054 524.71 967.256 524.354 967.526 524.009L966.135 522.711C965.682 523.216 965.36 523.764 965.171 524.355C964.982 524.945 964.918 525.539 964.98 526.136C965.032 526.733 965.193 527.315 965.464 527.88C965.745 528.445 966.126 528.957 966.608 529.416C967.055 529.852 967.563 530.217 968.132 530.511C968.701 530.805 969.286 530.991 969.886 531.068C970.482 531.151 971.071 531.109 971.654 530.942C972.241 530.77 972.773 530.443 973.252 529.962C973.689 529.518 973.983 529.039 974.133 528.526C974.293 528.012 974.353 527.486 974.314 526.948C974.275 526.41 974.159 525.871 973.966 525.331C973.783 524.791 973.565 524.275 973.312 523.784C973.157 523.487 973.005 523.17 972.857 522.833C972.714 522.501 972.614 522.166 972.557 521.829C972.49 521.493 972.492 521.162 972.561 520.839C972.635 520.519 972.818 520.222 973.111 519.946C973.403 519.67 973.722 519.48 974.068 519.376C974.423 519.272 974.782 519.237 975.144 519.272C975.502 519.313 975.852 519.416 976.192 519.583C976.538 519.744 976.845 519.955 977.114 520.216C977.424 520.524 977.641 520.845 977.765 521.178C977.899 521.511 977.958 521.85 977.943 522.196C977.923 522.537 977.836 522.877 977.681 523.216C977.536 523.554 977.34 523.882 977.093 524.201L978.491 525.505C978.931 525.026 979.252 524.506 979.452 523.945C979.657 523.378 979.751 522.808 979.734 522.234C979.708 521.66 979.571 521.097 979.325 520.545C979.078 519.994 978.721 519.49 978.254 519.035C977.813 518.604 977.308 518.252 976.74 517.977C976.172 517.703 975.588 517.537 974.989 517.48C974.384 517.418 973.794 517.478 973.217 517.659C972.64 517.841 972.122 518.166 971.662 518.637C971.243 519.07 970.963 519.537 970.822 520.04C970.686 520.538 970.644 521.048 970.696 521.57C970.739 522.093 970.854 522.617 971.041 523.142C971.229 523.667 971.441 524.168 971.679 524.646C971.835 524.962 971.988 525.294 972.137 525.641C972.291 525.993 972.396 526.342 972.454 526.689C972.501 527.037 972.481 527.378 972.394 527.713C972.311 528.042 972.114 528.351 971.802 528.638Z" fill="white"/>
<path d="M993.171 549.3L990.866 552.529L992.141 553.797L1000.91 541.2L999.794 540.086L984.362 546.055L985.747 547.434L989.717 545.862L993.171 549.3ZM991.398 545.177L998.018 542.537L994.16 547.926L991.398 545.177Z" fill="white"/>
<path d="M1001.73 563.554L1013.92 554.403L1012.6 553.042L1003.41 559.896L1008.57 548.915L1007.28 547.591L995.083 556.742L996.412 558.103L1005.61 551.233L1000.44 562.23L1001.73 563.554Z" fill="white"/>
<path d="M1014.59 566.057L1018.46 559.129L1017.06 557.652L1012.55 566.508L1007.89 569.948L1009.09 571.214L1013.6 567.947L1024.59 565.587L1023.05 563.967L1014.59 566.057Z" fill="white"/>
<path d="M1029.44 570.787L1027.89 569.116L1015.49 577.962L1016.73 579.304L1021.6 575.826L1026.66 572.043L1021.78 578.573L1022.52 579.374L1030.86 576.665L1025.8 580.087L1020.77 583.675L1022.01 585.018L1034.42 576.165L1032.81 574.425L1024.87 576.945L1029.44 570.787Z" fill="white"/>
<path d="M1037.72 592.343L1039.12 591.336C1039.52 591.041 1039.9 590.703 1040.26 590.322C1040.63 589.941 1040.97 589.534 1041.27 589.101C1041.56 588.668 1041.8 588.213 1041.98 587.737C1042.17 587.266 1042.28 586.787 1042.31 586.302C1042.34 585.816 1042.27 585.33 1042.11 584.845C1041.96 584.359 1041.69 583.888 1041.3 583.43C1040.89 582.958 1040.44 582.592 1039.96 582.333C1039.48 582.079 1038.98 581.912 1038.46 581.832C1037.93 581.752 1037.39 581.748 1036.84 581.818C1036.29 581.893 1035.75 582.021 1035.22 582.202C1034.69 582.382 1034.17 582.606 1033.66 582.873C1033.17 583.14 1032.7 583.428 1032.26 583.737L1030.86 584.751C1030.46 585.046 1030.08 585.381 1029.71 585.757C1029.34 586.138 1029.02 586.545 1028.73 586.979C1028.44 587.412 1028.2 587.867 1028.01 588.343C1027.83 588.819 1027.72 589.3 1027.69 589.786C1027.67 590.272 1027.73 590.757 1027.88 591.243C1028.04 591.729 1028.31 592.198 1028.7 592.65C1029.11 593.122 1029.55 593.486 1030.03 593.74C1030.52 593.999 1031.02 594.171 1031.55 594.255C1032.07 594.335 1032.6 594.337 1033.15 594.262C1033.69 594.187 1034.24 594.059 1034.77 593.878C1035.3 593.697 1035.81 593.473 1036.31 593.206C1036.81 592.939 1037.28 592.652 1037.72 592.343ZM1037.9 589.926L1036.46 590.961C1036.16 591.174 1035.83 591.383 1035.47 591.589C1035.12 591.794 1034.75 591.977 1034.38 592.137C1033.99 592.297 1033.6 592.422 1033.2 592.511C1032.81 592.6 1032.42 592.632 1032.04 592.607C1031.66 592.586 1031.29 592.493 1030.94 592.328C1030.59 592.158 1030.27 591.901 1029.98 591.557C1029.7 591.228 1029.52 590.892 1029.45 590.549C1029.38 590.206 1029.38 589.863 1029.45 589.519C1029.52 589.18 1029.65 588.847 1029.84 588.521C1030.03 588.196 1030.25 587.886 1030.5 587.592C1030.74 587.298 1031.01 587.027 1031.29 586.779C1031.57 586.531 1031.83 586.313 1032.08 586.124L1033.52 585.103C1033.82 584.896 1034.15 584.689 1034.5 584.483C1034.86 584.278 1035.23 584.095 1035.61 583.935C1036 583.78 1036.38 583.66 1036.77 583.576C1037.17 583.492 1037.57 583.462 1037.95 583.488C1038.33 583.514 1038.69 583.609 1039.03 583.774C1039.39 583.939 1039.71 584.194 1040 584.538C1040.28 584.867 1040.46 585.2 1040.53 585.538C1040.61 585.881 1040.61 586.222 1040.54 586.561C1040.47 586.895 1040.34 587.225 1040.15 587.551C1039.96 587.872 1039.75 588.177 1039.51 588.466C1039.26 588.755 1038.99 589.021 1038.7 589.263C1038.42 589.511 1038.16 589.732 1037.9 589.926Z" fill="white"/>
<path d="M1044.21 600.438L1040.97 606.086L1042.28 607.575L1042.39 607.497L1045.66 601.503C1046.09 601.716 1046.53 601.881 1046.98 601.999C1047.43 602.122 1047.88 602.182 1048.33 602.18C1048.77 602.172 1049.21 602.093 1049.64 601.945C1050.08 601.796 1050.49 601.556 1050.89 601.225C1051.42 600.789 1051.81 600.308 1052.07 599.781C1052.33 599.254 1052.47 598.712 1052.49 598.156C1052.5 597.604 1052.4 597.048 1052.18 596.488C1051.96 595.927 1051.65 595.393 1051.22 594.884L1048.46 591.736L1035.87 600.302L1037.1 601.705L1042.24 598.209L1044.21 600.438ZM1043.55 597.311L1048.38 594.029L1050.06 595.953C1050.32 596.28 1050.51 596.613 1050.63 596.954C1050.75 597.3 1050.79 597.641 1050.77 597.976C1050.73 598.311 1050.62 598.632 1050.43 598.941C1050.25 599.251 1049.99 599.534 1049.66 599.792C1049.29 600.074 1048.9 600.259 1048.49 600.349C1048.08 600.438 1047.67 600.448 1047.28 600.377C1046.88 600.306 1046.49 600.163 1046.11 599.948C1045.74 599.728 1045.41 599.451 1045.12 599.119L1043.55 597.311Z" fill="white"/>
<path d="M1056.95 613.823L1058.32 612.919L1054.32 608.275L1058.39 605.561L1063 610.906L1064.38 609.995L1058.54 603.225L1045.86 611.661L1051.75 618.493L1053.12 617.589L1048.45 612.174L1052.95 609.187L1056.95 613.823Z" fill="white"/>
<path d="M1058.84 624.969C1058.54 625.247 1058.39 625.58 1058.37 625.966C1058.35 626.352 1058.48 626.707 1058.75 627.03C1059.02 627.352 1059.35 627.531 1059.74 627.564C1060.13 627.597 1060.49 627.46 1060.82 627.153C1061.14 626.855 1061.31 626.509 1061.33 626.113C1061.35 625.716 1061.22 625.362 1060.93 625.048C1060.64 624.704 1060.3 624.533 1059.9 624.534C1059.51 624.536 1059.15 624.68 1058.84 624.969Z" fill="white"/>
</svg>
