<svg width="351" height="212" viewBox="0 0 351 212" fill="none" xmlns="http://www.w3.org/2000/svg">
<path d="M28.1729 1.39844C17.1853 66.0862 36.0375 121.753 98.6904 157.459C120.343 169.799 143.14 176.423 167.124 182.986C201.213 192.313 228.67 188.215 261.053 175.488C295.395 161.991 318.911 133.959 340.396 107.514" stroke="white" stroke-width="1.23122" stroke-linecap="round" stroke-linejoin="round"/>
<path d="M49.7209 6.34213L48.0507 6.02473L48.0177 9.47479L36.2427 7.31457L36.2756 3.8749L34.6157 3.568L34.5306 12.4529L36.1905 12.7599L36.2242 9.23705L47.9993 11.3973L47.9656 14.9097L49.6358 15.2271L49.7209 6.34213Z" fill="white"/>
<path d="M35.033 27.7984L50.2892 29.5617L50.1809 27.663L38.7161 26.308L49.8525 21.9047L49.7471 20.0578L34.4909 18.2945L34.5992 20.1932L46.0848 21.5471L34.9276 25.9515L35.033 27.7984Z" fill="white"/>
<path d="M43.336 42.5113L44.9905 42.5699L44.1685 36.5148L49.4185 36.7146L50.376 43.7686L52.0421 43.836L50.8274 34.8873L35.4816 34.3274L35.736 36.2016L42.514 36.4562L43.336 42.5113Z" fill="white"/>
<path d="M44.9783 54.1132L39.3565 57.2331L39.796 59.1688L39.9324 59.1591L45.7467 55.761C46.0304 56.1655 46.3409 56.5319 46.6783 56.8603C47.0173 57.1954 47.3868 57.4774 47.7869 57.7062C48.1854 57.9283 48.6122 58.0872 49.0673 58.1828C49.5224 58.2784 50.0079 58.289 50.5238 58.2145C51.2049 58.1166 51.7867 57.91 52.2692 57.5944C52.76 57.284 53.1483 56.8975 53.434 56.4348C53.7129 55.9736 53.8924 55.4498 53.9723 54.8632C54.0523 54.2767 54.0296 53.6602 53.9041 53.0138L52.987 48.9274L37.6493 49.7135L38.0635 51.5376L44.3202 51.2148L44.9783 54.1132ZM45.9205 51.1285L51.7986 50.8277L52.3545 53.323C52.4263 53.733 52.4306 54.1121 52.3676 54.4603C52.3061 54.8153 52.1817 55.1277 51.9943 55.3976C51.7986 55.6623 51.5418 55.8768 51.224 56.0414C50.9144 56.2111 50.5482 56.3191 50.1253 56.3654C49.6604 56.4141 49.2243 56.371 48.8171 56.2361C48.41 56.1012 48.0487 55.9026 47.7334 55.6403C47.4098 55.3728 47.1344 55.0516 46.9073 54.677C46.6869 54.3007 46.5276 53.8964 46.4294 53.464L45.9205 51.1285Z" fill="white"/>
<path d="M50.7931 71.6045L52.4328 71.3632L50.4886 65.5481L55.3681 64.8043L57.6056 71.4965L59.2551 71.2519L56.4212 62.7757L41.2372 65.0799L44.0974 73.6349L45.7371 73.3935L43.47 66.6126L48.8523 65.7994L50.7931 71.6045Z" fill="white"/>
<path d="M57.2425 87.1632L58.5277 86.798C59.0158 86.6486 59.5037 86.4574 59.9913 86.2243C60.4851 85.9883 60.9507 85.7158 61.3879 85.4068C61.8159 85.0944 62.2001 84.745 62.5405 84.3587C62.8809 83.9723 63.1448 83.5526 63.3323 83.0995C63.5134 82.6494 63.6026 82.1655 63.5999 81.6477C63.6063 81.1333 63.4864 80.5934 63.2402 80.0279C62.9824 79.4373 62.652 78.9374 62.2492 78.5283C61.8492 78.1255 61.4036 77.7972 60.9122 77.5435C60.4117 77.2864 59.875 77.0996 59.302 76.9828C58.7319 76.8724 58.1555 76.8145 57.5729 76.8091C56.9811 76.8003 56.3911 76.8365 55.8027 76.9177C55.2173 77.0052 54.6573 77.1229 54.1227 77.2709L52.8281 77.6405C52.3462 77.7869 51.8615 77.9767 51.3739 78.2098C50.8863 78.4429 50.4285 78.7156 50.0005 79.028C49.5724 79.3404 49.1882 79.6898 48.8478 80.0762C48.5074 80.4625 48.2467 80.8808 48.0655 81.3309C47.8752 81.7777 47.7799 82.2568 47.7798 82.7682C47.7797 83.2797 47.9027 83.8182 48.1489 84.3837C48.2386 84.5941 48.3425 84.7941 48.4607 84.9837C48.5818 85.1796 48.714 85.3665 48.8574 85.5445L47.5901 88.821L49.2448 89.6016L50.3606 86.7157C50.8911 87.0047 51.441 87.2199 52.0101 87.3613C52.5793 87.5027 53.1564 87.587 53.7414 87.6142C54.3235 87.6351 54.9088 87.6049 55.4971 87.5237C56.0917 87.4396 56.6735 87.3194 57.2425 87.1632ZM57.7709 85.087L56.4436 85.4602C56.0653 85.5665 55.6611 85.658 55.231 85.7347C54.81 85.8148 54.3838 85.8669 53.9522 85.8909C53.5143 85.9178 53.0822 85.9077 52.6558 85.8606C52.2295 85.8134 51.8312 85.7114 51.4609 85.5544C51.0843 85.4003 50.7469 85.1823 50.4487 84.9004C50.1504 84.6185 49.9072 84.2576 49.7192 83.8179C49.5428 83.4034 49.4709 83.0168 49.5036 82.6582C49.5454 82.303 49.6577 81.9763 49.8404 81.6781C50.0202 81.3736 50.2564 81.1003 50.549 80.8582C50.8479 80.6131 51.1707 80.3952 51.5175 80.2043C51.8614 80.0071 52.2138 79.8365 52.5747 79.6926C52.9448 79.552 53.2878 79.4354 53.6037 79.3427L54.931 78.9695C55.303 78.8662 55.6995 78.7744 56.1204 78.6943C56.5442 78.6205 56.9765 78.5733 57.4173 78.5526C57.849 78.5286 58.2748 78.5416 58.6948 78.5917C59.1241 78.6451 59.5284 78.752 59.9079 78.9124C60.2782 79.0694 60.611 79.2857 60.9064 79.5613C61.2109 79.8403 61.4557 80.1965 61.6409 80.63C61.8173 81.0445 61.8892 81.4311 61.8565 81.7897C61.8239 82.1483 61.7193 82.4752 61.5429 82.7705C61.3602 83.0687 61.1194 83.3403 60.8205 83.5854C60.528 83.8275 60.2083 84.044 59.8614 84.2349C59.5146 84.4258 59.1593 84.5901 58.7955 84.7277C58.4347 84.8717 58.0931 84.9915 57.7709 85.087Z" fill="white"/>
<path d="M72.2736 96.7108L71.3226 95.1606L61.6538 98.9953C61.2324 99.1563 60.7908 99.2646 60.3291 99.3203C59.8675 99.3759 59.42 99.3619 58.9866 99.2783C58.5497 99.1887 58.1416 99.0204 57.7625 98.7735C57.393 98.5288 57.0855 98.1932 56.84 97.7666C56.6091 97.3637 56.4989 96.9721 56.5094 96.5918C56.5294 96.2137 56.6293 95.8598 56.8091 95.5301C56.9888 95.2004 57.2336 94.9039 57.5435 94.6406C57.8534 94.3773 58.1953 94.1595 58.5691 93.9871L68.2087 90.0849L67.274 88.5613L57.6072 92.4192C57.0122 92.6948 56.4948 93.0569 56.0548 93.5057C55.6207 93.9508 55.2982 94.4453 55.0873 94.9892C54.8669 95.5308 54.7722 96.1051 54.8031 96.712C54.84 97.3152 55.0336 97.9157 55.3841 98.5135C55.7563 99.1468 56.2224 99.6614 56.7824 100.058C57.3424 100.454 57.95 100.735 58.6052 100.902C59.2544 101.073 59.9281 101.131 60.6263 101.077C61.3244 101.022 61.9959 100.858 62.6408 100.584L72.2736 96.7108Z" fill="white"/>
<path d="M72.8914 110.958L74.3497 110.17L70.5341 105.371L74.8651 103.003L79.2562 108.527L80.7226 107.733L75.1609 100.737L61.6804 108.095L67.2938 115.156L68.752 114.368L64.3027 108.771L69.0824 106.166L72.8914 110.958Z" fill="white"/>
<path d="M77.97 126.644L90.481 117.737L89.1291 116.399L79.7072 123.071L85.029 112.343L83.714 111.042L71.203 119.949L72.5549 121.286L81.9914 114.6L76.655 125.343L77.97 126.644Z" fill="white"/>
<path d="M100.483 127.978L101.727 126.867L93.1579 120.129L91.9142 121.24L95.484 124.047L85.3078 133.205L86.7455 134.335L96.9218 125.177L100.483 127.978Z" fill="white"/>
<path d="M97.8031 140.529L106.959 130.337L105.366 129.337L95.1049 140.762L102.772 145.573L103.886 144.346L97.8031 140.529Z" fill="white"/>
<path d="M116.955 144.839L118.543 137.152L116.722 136.241L115.124 145.922L111.676 150.635L113.238 151.416L116.593 146.912L126.51 141.133L124.511 140.134L116.955 144.839Z" fill="white"/>
<path d="M146.425 160.238L145.796 164.134L147.523 164.634L149.778 149.535L148.261 149.096L136.981 161.586L138.857 162.129L141.742 158.884L146.425 160.238ZM142.956 157.494L147.759 152.067L146.7 158.576L142.956 157.494Z" fill="white"/>
<path d="M161.734 164.008C161.598 164.404 161.395 164.735 161.124 165.003C160.855 165.263 160.546 165.462 160.197 165.599C159.849 165.736 159.477 165.815 159.083 165.835C158.69 165.849 158.304 165.812 157.927 165.723C157.495 165.622 157.122 165.463 156.807 165.246C156.501 165.023 156.257 164.761 156.074 164.459C155.885 164.156 155.756 163.816 155.689 163.44C155.63 163.058 155.637 162.652 155.709 162.221L153.851 161.818C153.693 162.478 153.673 163.109 153.791 163.709C153.909 164.308 154.139 164.848 154.482 165.326C154.817 165.81 155.241 166.224 155.754 166.57C156.276 166.91 156.861 167.154 157.509 167.302C158.116 167.448 158.742 167.502 159.388 167.465C160.034 167.428 160.642 167.291 161.211 167.053C161.779 166.821 162.28 166.487 162.716 166.05C163.152 165.606 163.466 165.057 163.658 164.404C163.831 163.803 163.859 163.246 163.744 162.732C163.637 162.212 163.436 161.733 163.142 161.293C162.847 160.853 162.484 160.452 162.053 160.089C161.629 159.721 161.187 159.391 160.726 159.099C160.444 158.925 160.157 158.731 159.863 158.518C159.575 158.307 159.325 158.072 159.112 157.813C158.89 157.559 158.732 157.277 158.637 156.965C158.548 156.655 158.566 156.309 158.692 155.925C158.818 155.541 159.009 155.217 159.265 154.954C159.529 154.685 159.83 154.474 160.168 154.32C160.505 154.173 160.864 154.085 161.246 154.054C161.63 154.017 162.004 154.042 162.368 154.128C162.792 154.234 163.139 154.398 163.41 154.62C163.689 154.836 163.906 155.096 164.06 155.399C164.207 155.7 164.294 156.035 164.321 156.402C164.355 156.764 164.34 157.144 164.275 157.541L166.144 157.946C166.303 157.314 166.335 156.708 166.241 156.128C166.149 155.54 165.956 155.006 165.664 154.524C165.363 154.048 164.97 153.636 164.486 153.29C164.001 152.944 163.442 152.695 162.808 152.543C162.208 152.399 161.591 152.353 160.955 152.407C160.32 152.46 159.723 152.614 159.164 152.869C158.599 153.122 158.105 153.472 157.681 153.919C157.258 154.366 156.957 154.906 156.776 155.541C156.615 156.122 156.593 156.664 156.711 157.164C156.831 157.658 157.04 158.115 157.339 158.534C157.63 158.959 157.985 159.348 158.404 159.701C158.824 160.055 159.254 160.375 159.695 160.662C159.987 160.853 160.282 161.059 160.582 161.28C160.888 161.502 161.15 161.747 161.369 162.014C161.579 162.287 161.726 162.588 161.811 162.918C161.896 163.242 161.871 163.605 161.734 164.008Z" fill="white"/>
<path d="M173.568 163.129L175.546 170.572L177.667 170.933L175.179 161.97L182.597 156.425L180.2 156.016L174.072 160.611L172.165 162.025L174.648 155.069L172.752 154.746L167.617 169.22L169.512 169.543L171.217 164.741L173.568 163.129Z" fill="white"/>
<path d="M192.759 166.17L193.287 164.599L187.222 163.697L188.77 159.01L195.75 160.048L196.279 158.466L187.439 157.152L182.613 171.732L191.535 173.058L192.063 171.487L184.991 170.436L186.705 165.269L192.759 166.17Z" fill="white"/>
<path d="M197.799 174.032L201.318 174.203C202.037 174.238 202.72 174.184 203.365 174.042C204.017 173.901 204.62 173.684 205.175 173.392C205.674 173.132 206.144 172.804 206.586 172.41C207.035 172.015 207.431 171.577 207.774 171.094C208.124 170.598 208.424 170.054 208.675 169.463C208.926 168.864 209.12 168.236 209.256 167.576L209.466 166.473C209.57 165.889 209.615 165.322 209.6 164.773C209.586 164.218 209.518 163.691 209.396 163.192C209.262 162.666 209.061 162.174 208.792 161.717C208.523 161.253 208.192 160.855 207.799 160.524C207.38 160.157 206.888 159.859 206.323 159.63C205.765 159.402 205.134 159.264 204.429 159.216L201.149 159.046L197.799 174.032ZM202.713 160.703L204.321 160.792C204.839 160.838 205.291 160.95 205.678 161.128C206.065 161.3 206.394 161.521 206.666 161.79C206.91 162.045 207.111 162.336 207.268 162.662C207.433 162.983 207.548 163.321 207.614 163.678C207.705 164.092 207.746 164.527 207.738 164.985C207.73 165.435 207.683 165.891 207.599 166.351L207.377 167.485C207.27 167.972 207.126 168.444 206.944 168.9C206.763 169.349 206.548 169.765 206.301 170.148C206.046 170.531 205.752 170.885 205.417 171.208C205.089 171.525 204.726 171.788 204.328 171.998C203.921 172.228 203.476 172.4 202.991 172.516C202.508 172.624 201.989 172.668 201.435 172.648L200.055 172.571L202.713 160.703Z" fill="white"/>
<path d="M239.247 164.055L239.158 162.722C239.114 162.213 239.029 161.696 238.903 161.171C238.775 160.638 238.606 160.126 238.395 159.634C238.179 159.15 237.917 158.701 237.61 158.288C237.304 157.874 236.948 157.529 236.544 157.251C236.142 156.979 235.687 156.791 235.181 156.686C234.679 156.572 234.126 156.577 233.521 156.699C232.89 156.828 232.332 157.047 231.848 157.355C231.37 157.662 230.956 158.03 230.606 158.457C230.25 158.893 229.955 159.379 229.721 159.915C229.494 160.449 229.317 161.001 229.19 161.569C229.058 162.146 228.97 162.731 228.927 163.323C228.89 163.914 228.888 164.486 228.921 165.04L229.012 166.383C229.055 166.885 229.139 167.399 229.265 167.924C229.391 168.45 229.562 168.954 229.779 169.438C229.995 169.922 230.256 170.371 230.563 170.784C230.87 171.198 231.224 171.54 231.627 171.811C232.024 172.091 232.472 172.284 232.973 172.391C233.473 172.498 234.025 172.49 234.629 172.367C234.854 172.324 235.071 172.264 235.281 172.188C235.498 172.11 235.709 172.02 235.913 171.917L238.852 173.84L239.961 172.385L237.372 170.691C237.765 170.233 238.091 169.74 238.348 169.213C238.605 168.686 238.808 168.139 238.957 167.573C239.099 167.008 239.191 166.429 239.235 165.837C239.277 165.238 239.281 164.644 239.247 164.055ZM237.327 163.104L237.415 164.48C237.439 164.873 237.444 165.287 237.43 165.724C237.42 166.152 237.382 166.58 237.315 167.007C237.25 167.441 237.15 167.861 237.015 168.268C236.88 168.675 236.697 169.044 236.466 169.373C236.237 169.709 235.953 169.993 235.615 170.226C235.277 170.459 234.873 170.621 234.404 170.714C233.962 170.8 233.569 170.789 233.225 170.682C232.886 170.567 232.59 170.389 232.337 170.148C232.077 169.909 231.859 169.621 231.683 169.284C231.506 168.941 231.36 168.579 231.246 168.2C231.125 167.823 231.031 167.442 230.966 167.06C230.906 166.668 230.863 166.308 230.839 165.98L230.751 164.604C230.728 164.219 230.721 163.812 230.73 163.384C230.747 162.954 230.791 162.521 230.863 162.086C230.929 161.658 231.031 161.245 231.168 160.844C231.309 160.436 231.498 160.063 231.735 159.725C231.965 159.396 232.246 159.115 232.578 158.884C232.914 158.645 233.314 158.48 233.776 158.389C234.218 158.303 234.611 158.313 234.955 158.42C235.299 158.527 235.597 158.698 235.849 158.932C236.102 159.173 236.318 159.465 236.495 159.808C236.671 160.145 236.816 160.503 236.93 160.882C237.044 161.261 237.131 161.643 237.189 162.027C237.255 162.41 237.301 162.769 237.327 163.104Z" fill="white"/>
<path d="M251.781 151.173L250.072 151.797L251.909 162.035C251.983 162.48 252.001 162.934 251.964 163.397C251.927 163.861 251.824 164.297 251.656 164.705C251.481 165.115 251.235 165.482 250.918 165.804C250.605 166.118 250.215 166.352 249.748 166.508C249.307 166.654 248.901 166.685 248.531 166.599C248.164 166.504 247.837 166.336 247.55 166.094C247.262 165.852 247.02 165.553 246.824 165.197C246.627 164.841 246.482 164.463 246.387 164.062L244.479 153.839L242.8 154.453L244.659 164.693C244.811 165.331 245.063 165.91 245.416 166.431C245.766 166.945 246.186 167.359 246.677 167.674C247.164 167.997 247.708 168.204 248.309 168.295C248.908 168.379 249.535 168.308 250.19 168.083C250.885 167.845 251.482 167.49 251.981 167.02C252.481 166.55 252.878 166.01 253.172 165.401C253.468 164.799 253.659 164.15 253.744 163.455C253.83 162.76 253.802 162.07 253.662 161.383L251.781 151.173Z" fill="white"/>
<path d="M265.891 153.57L265.441 151.974L259.923 154.648L258.56 149.904L264.911 146.827L264.456 145.223L256.413 149.12L260.645 163.883L268.763 159.95L268.313 158.355L261.879 161.472L260.382 156.239L265.891 153.57Z" fill="white"/>
<path d="M279.776 149.494C279.942 149.878 280.014 150.26 279.994 150.64C279.97 151.014 279.875 151.369 279.709 151.705C279.543 152.041 279.321 152.349 279.043 152.63C278.761 152.904 278.451 153.135 278.111 153.323C277.724 153.539 277.341 153.673 276.962 153.723C276.586 153.765 276.229 153.735 275.891 153.634C275.546 153.537 275.223 153.372 274.92 153.139C274.62 152.896 274.352 152.591 274.115 152.223L272.469 153.174C272.796 153.769 273.205 154.249 273.696 154.614C274.187 154.978 274.72 155.223 275.295 155.346C275.868 155.479 276.461 155.501 277.073 155.411C277.688 155.312 278.285 155.099 278.864 154.773C279.411 154.473 279.911 154.092 280.365 153.63C280.818 153.168 281.175 152.658 281.436 152.099C281.701 151.546 281.847 150.961 281.876 150.345C281.9 149.723 281.764 149.106 281.466 148.493C281.19 147.933 280.837 147.501 280.406 147.198C279.977 146.885 279.506 146.665 278.992 146.538C278.479 146.411 277.94 146.358 277.376 146.379C276.815 146.391 276.266 146.444 275.729 146.539C275.403 146.599 275.06 146.649 274.699 146.689C274.345 146.726 274.001 146.721 273.669 146.672C273.335 146.633 273.028 146.531 272.748 146.365C272.474 146.195 272.254 145.926 272.089 145.557C271.924 145.188 271.848 144.82 271.86 144.453C271.874 144.077 271.955 143.718 272.102 143.377C272.253 143.042 272.459 142.735 272.722 142.455C272.981 142.169 273.274 141.936 273.601 141.755C273.986 141.549 274.354 141.437 274.703 141.419C275.055 141.391 275.39 141.438 275.708 141.558C276.02 141.682 276.309 141.871 276.576 142.125C276.845 142.37 277.089 142.661 277.308 142.998L278.964 142.042C278.656 141.468 278.272 140.997 277.812 140.631C277.349 140.258 276.847 139.992 276.307 139.832C275.764 139.682 275.197 139.641 274.605 139.711C274.013 139.781 273.432 139.973 272.861 140.286C272.32 140.583 271.833 140.964 271.398 141.431C270.964 141.898 270.626 142.414 270.383 142.978C270.135 143.545 270.004 144.137 269.992 144.752C269.979 145.367 270.12 145.97 270.413 146.561C270.684 147.1 271.032 147.516 271.456 147.807C271.877 148.092 272.339 148.289 272.842 148.398C273.343 148.517 273.867 148.566 274.415 148.546C274.964 148.525 275.497 148.473 276.017 148.389C276.361 148.334 276.719 148.287 277.089 148.25C277.465 148.208 277.824 148.213 278.165 148.264C278.504 148.324 278.816 148.448 279.1 148.636C279.381 148.818 279.606 149.104 279.776 149.494Z" fill="white"/>
<path d="M289.878 130.928L289.123 129.441L280.412 135.996L281.167 137.483L284.796 134.752L291.038 146.937L292.499 145.837L286.257 133.653L289.878 130.928Z" fill="white"/>
<path d="M292.311 126.592L293.251 128.008L295.742 125.621L302.425 135.554L299.941 137.934L300.882 139.335L307.297 133.188L306.357 131.786L303.813 134.223L297.13 124.291L299.666 121.86L298.726 120.444L292.311 126.592Z" fill="white"/>
<path d="M314.055 115.841L312.929 114.52C312.601 114.147 312.233 113.795 311.824 113.462C311.414 113.12 310.983 112.819 310.531 112.559C310.079 112.309 309.612 112.114 309.13 111.974C308.652 111.829 308.175 111.768 307.701 111.789C307.226 111.811 306.76 111.928 306.305 112.14C305.849 112.342 305.419 112.667 305.017 113.116C304.6 113.58 304.292 114.073 304.091 114.595C303.895 115.111 303.786 115.638 303.763 116.175C303.741 116.722 303.793 117.273 303.92 117.829C304.05 118.379 304.231 118.913 304.463 119.431C304.695 119.958 304.967 120.465 305.28 120.952C305.592 121.429 305.921 121.876 306.267 122.291L307.401 123.619C307.73 123.992 308.096 124.347 308.5 124.685C308.909 125.017 309.339 125.308 309.791 125.558C310.242 125.809 310.709 126.004 311.192 126.143C311.674 126.283 312.153 126.342 312.628 126.32C313.103 126.299 313.568 126.187 314.025 125.985C314.48 125.773 314.907 125.445 315.305 125.002C315.721 124.537 316.028 124.047 316.224 123.531C316.424 123.009 316.538 122.477 316.565 121.935C316.588 121.397 316.534 120.854 316.403 120.304C316.272 119.754 316.091 119.215 315.859 118.687C315.627 118.169 315.356 117.672 315.044 117.195C314.731 116.708 314.402 116.256 314.055 115.841ZM311.687 115.905L312.846 117.268C313.084 117.554 313.322 117.868 313.559 118.208C313.797 118.548 314.013 118.903 314.209 119.271C314.405 119.649 314.567 120.034 314.695 120.428C314.824 120.821 314.896 121.211 314.911 121.598C314.931 121.989 314.879 122.374 314.756 122.752C314.628 123.125 314.412 123.478 314.108 123.811C313.818 124.128 313.51 124.344 313.185 124.457C312.859 124.561 312.525 124.594 312.183 124.556C311.846 124.523 311.509 124.426 311.173 124.265C310.836 124.105 310.512 123.913 310.2 123.692C309.888 123.47 309.597 123.229 309.327 122.97C309.056 122.711 308.816 122.464 308.606 122.23L307.462 120.866C307.229 120.584 306.994 120.273 306.757 119.932C306.519 119.592 306.302 119.233 306.106 118.855C305.915 118.481 305.758 118.1 305.635 117.712C305.511 117.313 305.441 116.916 305.426 116.519C305.411 116.132 305.465 115.754 305.589 115.386C305.712 115.008 305.926 114.653 306.229 114.32C306.52 114.003 306.825 113.79 307.146 113.682C307.471 113.569 307.802 113.528 308.139 113.561C308.471 113.6 308.805 113.699 309.142 113.86C309.474 114.016 309.792 114.203 310.099 114.42C310.406 114.647 310.693 114.893 310.959 115.158C311.23 115.417 311.472 115.666 311.687 115.905Z" fill="white"/>
<path d="M327.68 109.01L317.028 97.9474L315.904 99.4815L323.89 107.818L312.495 104.134L311.402 105.626L322.054 116.69L323.178 115.155L315.175 106.806L326.587 110.503L327.68 109.01Z" fill="white"/>
<path d="M332.408 95.0726C332.73 95.3402 332.968 95.6481 333.121 95.9962C333.269 96.3405 333.345 96.7 333.349 97.0747C333.353 97.4494 333.294 97.8247 333.173 98.2007C333.046 98.5729 332.874 98.9197 332.656 99.2409C332.409 99.6086 332.127 99.9008 331.812 100.117C331.496 100.324 331.164 100.46 330.817 100.523C330.466 100.592 330.102 100.591 329.727 100.52C329.349 100.439 328.972 100.288 328.595 100.068L327.557 101.661C328.118 102.043 328.7 102.286 329.303 102.389C329.905 102.492 330.491 102.469 331.06 102.319C331.631 102.178 332.17 101.93 332.675 101.573C333.179 101.206 333.615 100.746 333.984 100.193C334.336 99.6778 334.609 99.1119 334.805 98.4949C335 97.8779 335.088 97.2611 335.068 96.6445C335.054 96.0316 334.92 95.4441 334.666 94.8818C334.406 94.3157 334.005 93.827 333.463 93.4157C332.963 93.0405 332.453 92.8152 331.931 92.74C331.408 92.6552 330.888 92.6721 330.372 92.7909C329.857 92.9097 329.352 93.1062 328.859 93.3804C328.364 93.645 327.899 93.941 327.462 94.2684C327.199 94.4691 326.916 94.6691 326.612 94.8682C326.313 95.0616 326.004 95.2119 325.686 95.319C325.37 95.4357 325.05 95.4832 324.725 95.4616C324.403 95.4343 324.086 95.2935 323.772 95.0393C323.458 94.7851 323.223 94.4916 323.068 94.1589C322.911 93.8165 322.821 93.4601 322.797 93.0894C322.78 92.7226 322.825 92.3551 322.933 91.9869C323.035 91.615 323.191 91.2742 323.401 90.9645C323.651 90.6064 323.927 90.3402 324.231 90.166C324.533 89.9822 324.852 89.8722 325.19 89.836C325.524 89.8056 325.868 89.8433 326.221 89.9491C326.571 90.0454 326.921 90.1945 327.269 90.3964L328.313 88.7944C327.778 88.4214 327.223 88.1755 326.647 88.0567C326.066 87.934 325.498 87.9236 324.944 88.0255C324.391 88.137 323.867 88.3577 323.371 88.6877C322.875 89.0176 322.443 89.4517 322.076 89.9897C321.728 90.4988 321.466 91.0597 321.289 91.6727C321.113 92.2856 321.045 92.8984 321.084 93.5109C321.119 94.1293 321.27 94.7158 321.538 95.2702C321.805 95.8247 322.203 96.299 322.731 96.6932C323.218 97.0513 323.716 97.2642 324.225 97.3318C324.73 97.3957 325.231 97.3626 325.729 97.2325C326.229 97.1119 326.719 96.9185 327.199 96.6521C327.678 96.3857 328.131 96.0975 328.556 95.7875C328.838 95.5828 329.136 95.3798 329.449 95.1786C329.766 94.9716 330.088 94.8135 330.415 94.7044C330.745 94.6049 331.079 94.5745 331.417 94.6132C331.75 94.6481 332.08 94.8013 332.408 95.0726Z" fill="white"/>
</svg>
