<svg width="42" height="52" viewBox="0 0 42 52" fill="none" xmlns="http://www.w3.org/2000/svg">
<path d="M2 16C0.0244843 29.831 12.4998 44.5 20.4998 50C27.4999 43.0002 40.4999 36.5002 40.4999 18.0002C40.4999 10.5 33.4999 1.5 22.4999 1.5C11.4999 1.5 2.99983 9 2 16Z" stroke="white" stroke-width="2"/>
<path d="M28 20C28 23.135 25.4449 26 22.5 26C21.0053 26 19.3612 25.2784 18.0778 24.1075C16.7926 22.9349 16 21.4348 16 20C16 18.5829 16.7751 17.2185 18.0401 16.1753C19.3052 15.1319 20.9596 14.5 22.5 14.5C25.5376 14.5 28 16.9624 28 20Z" stroke="white" stroke-width="2"/>
</svg>
