<svg width="218" height="145" viewBox="0 0 218 145" fill="none" xmlns="http://www.w3.org/2000/svg">
<path d="M145.5 120.5L213.328 113.591" stroke="#F2874F" stroke-width="2" stroke-linecap="round"/>
<path d="M213.5 113.5L197.523 98.6767" stroke="#F2874F" stroke-width="2" stroke-linecap="round"/>
<path d="M9.01001 40.1218C19.1946 52.9702 28.6901 67.2433 39.4921 78.7717C54.3962 94.6781 72.9052 108.762 90.4261 114.656C101.647 118.432 112.26 119.784 123.488 120.58C130.697 121.091 138.311 121.213 145.5 120.5" stroke="#F2874F" stroke-width="2" stroke-linecap="round" stroke-linejoin="round"/>
<path d="M16.8558 34.3729L28.2483 28.1857L26.4673 25.9373L12.9805 33.2799L19.0203 40.9046L21.1276 39.7657L16.8558 34.3729Z" fill="#F2874F"/>
<path d="M33.483 48.6799L35.5503 47.5785L31.8322 42.8213L35.2468 40.9967L39.5665 46.5236L41.6975 45.3856L35.618 37.607L22.0771 44.8532L28.1758 52.6564L30.2905 51.5312L25.9452 45.9715L29.7713 43.9308L33.483 48.6799Z" fill="#F2874F"/>
<path d="M49.4962 58.4949L51.588 57.2828L43.9282 48.2314L41.843 49.4514L44.7297 52.8625L33.5662 59.41L35.4123 61.5916L46.5759 55.0441L49.4962 58.4949Z" fill="#F2874F"/>
<path d="M64.8456 70.2558L63.0099 71.7948L65.1505 73.5928L57.0616 80.411L54.929 78.6196L53.1001 80.1506L59.6172 85.625L61.4461 84.094L59.2499 82.2492L67.3388 75.431L69.527 77.2692L71.3626 75.7302L64.8456 70.2558Z" fill="#F2874F"/>
<path d="M82.5929 86.6946L84.295 84.9776L74.5347 78.2443L72.8411 79.9672L76.5194 82.5047L67.4566 91.7437L69.809 93.3666L78.8718 84.1275L82.5929 86.6946Z" fill="#F2874F"/>
<path d="M104.958 103.605L105.955 101.622C106.181 101.142 106.363 100.644 106.5 100.127C106.636 99.6107 106.72 99.0993 106.752 98.5928C106.775 98.0908 106.738 97.6026 106.643 97.1282C106.55 96.6473 106.385 96.1978 106.148 95.7798C105.902 95.3663 105.58 94.9975 105.182 94.6733C104.791 94.3513 104.307 94.0906 103.731 93.8912C103.135 93.6854 102.556 93.5835 101.995 93.5855C101.436 93.5809 100.903 93.657 100.394 93.814C99.8831 93.9775 99.3972 94.2109 98.9361 94.5141C98.4751 94.8173 98.0496 95.1683 97.6597 95.5671C97.2633 95.9638 96.8979 96.3996 96.5637 96.8744C96.2382 97.3448 95.9512 97.8312 95.7028 98.3335L94.7033 100.327C94.4786 100.8 94.2957 101.291 94.1547 101.799C94.0136 102.306 93.9251 102.809 93.8891 103.307C93.851 103.811 93.8719 104.302 93.9518 104.779C94.0338 105.249 94.1911 105.688 94.4236 106.098C94.6474 106.511 94.9507 106.882 95.3334 107.208C95.7249 107.53 96.2055 107.79 96.7752 107.987C97.3779 108.195 97.9619 108.302 98.5272 108.309C99.0926 108.316 99.6362 108.243 100.158 108.09C100.68 107.937 101.174 107.714 101.639 107.419C102.114 107.12 102.556 106.775 102.965 106.382C103.368 105.987 103.737 105.553 104.071 105.078C104.405 104.603 104.701 104.112 104.958 103.605ZM103.213 100.71L102.204 102.733C102.067 103.002 101.911 103.283 101.737 103.576C101.563 103.87 101.371 104.15 101.162 104.417C100.943 104.689 100.707 104.937 100.454 105.162C100.2 105.386 99.9313 105.565 99.6479 105.7C99.358 105.832 99.0522 105.913 98.7304 105.94C98.4108 105.962 98.075 105.908 97.723 105.781C97.3907 105.66 97.138 105.495 96.9647 105.287C96.8002 105.074 96.6912 104.835 96.6378 104.571C96.5844 104.306 96.5769 104.024 96.6151 103.723C96.6533 103.422 96.72 103.124 96.8153 102.827C96.9039 102.528 97.0036 102.24 97.1144 101.962C97.2318 101.687 97.344 101.439 97.451 101.219L98.4601 99.1962C98.5907 98.9252 98.7387 98.6453 98.9041 98.3564C99.0716 98.0609 99.2569 97.7784 99.4598 97.5088C99.6561 97.237 99.8735 96.9903 100.112 96.7685C100.353 96.5401 100.612 96.3542 100.891 96.2108C101.161 96.0719 101.453 95.9908 101.766 95.9675C102.081 95.9377 102.418 95.9875 102.777 96.1171C103.109 96.2382 103.365 96.404 103.545 96.6145C103.725 96.825 103.849 97.0613 103.917 97.3235C103.986 97.5856 104.009 97.8658 103.986 98.164C103.963 98.4623 103.915 98.7597 103.842 99.0563C103.76 99.3574 103.662 99.6499 103.549 99.9339C103.437 100.218 103.324 100.476 103.213 100.71Z" fill="#F2874F"/>
<path d="M122.577 98.2337L119.788 97.7716L116.455 107.395C116.342 107.741 116.194 108.082 116.012 108.417C115.83 108.752 115.613 109.043 115.362 109.289C115.104 109.534 114.806 109.717 114.471 109.837C114.136 109.95 113.758 109.961 113.338 109.87C112.959 109.786 112.679 109.631 112.499 109.405C112.326 109.172 112.22 108.905 112.178 108.604C112.13 108.301 112.13 107.985 112.177 107.655C112.233 107.32 112.302 107.009 112.385 106.721L115.687 97.092L112.878 96.6265L109.545 106.25C109.348 106.934 109.262 107.601 109.287 108.251C109.313 108.901 109.454 109.49 109.711 110.017C109.967 110.551 110.341 111.006 110.833 111.383C111.333 111.754 111.958 112.008 112.708 112.146C113.518 112.302 114.268 112.307 114.96 112.161C115.659 112.01 116.287 111.739 116.843 111.346C117.399 110.961 117.881 110.468 118.289 109.869C118.697 109.27 119.024 108.593 119.268 107.84L122.577 98.2337Z" fill="#F2874F"/>
<path d="M137.121 101.694L137.704 99.3481L125.873 98.5621L125.3 100.909L129.759 101.205L126.705 113.782L129.556 113.971L132.61 101.395L137.121 101.694Z" fill="#F2874F"/>
<path d="M141.86 113.121C141.846 113.654 142.011 114.095 142.355 114.444C142.706 114.793 143.155 114.975 143.702 114.99C144.249 115.005 144.721 114.834 145.119 114.478C145.524 114.121 145.734 113.656 145.75 113.081C145.764 112.548 145.596 112.103 145.245 111.747C144.902 111.384 144.456 111.195 143.909 111.18C143.328 111.164 142.845 111.342 142.46 111.713C142.076 112.083 141.876 112.553 141.86 113.121Z" fill="#F2874F"/>
</svg>
