<svg width="228" height="91" viewBox="0 0 228 91" fill="none" xmlns="http://www.w3.org/2000/svg">
<path fill-rule="evenodd" clip-rule="evenodd" d="M2.74048 12.3118C2.3681 11.9122 1.7347 11.8964 1.32574 12.2765C0.916786 12.6566 0.887136 13.2886 1.25952 13.6882C27.4282 41.7676 52.5619 56.4422 90.7932 70.0904C129.122 83.7735 164.682 84.5443 226.697 78.8429C227.249 78.7922 227.665 78.3059 227.626 77.7568C227.603 77.4266 227.42 77.1489 227.159 76.991C227.112 76.7547 226.968 76.5373 226.736 76.3935L204.569 62.6253C204.1 62.3339 203.45 62.4548 203.117 62.8954C202.784 63.336 202.894 63.9293 203.363 64.2207L224.068 77.0808C163.665 82.525 128.903 81.5594 91.5046 68.2085C53.4977 54.6405 28.6523 40.1155 2.74048 12.3118Z" fill="#F2874F"/>
</svg>
