<svg width="32" height="28" viewBox="0 0 32 28" fill="none" xmlns="http://www.w3.org/2000/svg">
<path d="M12.1996 4.16853C5.62257 15.0206 20.3385 17.0176 27.5471 12.0082C30.6486 9.85295 30.9462 5.46313 26.6345 5.08109C18.6383 4.37256 8.46637 15.5185 8.46637 23.4152C8.46637 29.3629 25.638 27.6241 26.9664 20.4286C28.1385 14.0798 23.8081 8.53027 18.5874 14.2481C17.0316 15.9522 8.46637 24.6467 8.46637 23.8714C8.46637 17.2428 8.09758 10.8403 7.30493 4.25149C6.40466 -3.232 12.8742 4.21176 15.7668 6.65732C20.1539 10.3664 24.4271 14.2118 28.833 17.8984C31.2099 19.8872 29.1939 17.9751 28.4596 17.608C24.8392 15.7978 20.3447 15.8268 16.4305 16.4466C13.391 16.9278 7.71248 17.8345 7.01458 21.673C6.6003 23.9516 12.6374 22.6183 13.6513 22.3782C19.9941 20.8759 29.2135 10.7694 20.7029 5.82772C15.1727 2.61664 7.38946 5.95947 3.69619 10.4735C1.33418 13.3604 21.4044 19.4944 24.3117 20.2212C26.1302 20.6759 28.8208 20.7664 30.4507 21.756C32.4385 22.9629 25.8075 22.0646 23.4821 22.0878C17.4861 22.1478 11.4983 23.5471 5.7287 25.0744C0.0787153 26.5699 1.90277 20.5964 1.70516 16.4466C1.60378 14.3176 1 12.2828 1 10.1416C1 5.89036 12.2448 6.28869 14.7298 6.03512C18.6996 5.63004 24.1457 3.76713 24.1457 9.02167C24.1457 16.0873 20.1249 19.2811 14.4395 22.8345" stroke="white" stroke-linecap="round" stroke-linejoin="round"/>
</svg>
