<svg width="1150" height="805" viewBox="0 0 1150 805" fill="none" xmlns="http://www.w3.org/2000/svg">
<path d="M1133.36 604.85C1129.73 581.207 1131.75 556.131 1131.75 532.245C1131.75 506.077 1130.1 479.228 1131.84 453.097C1132.51 443.099 1134.98 433.5 1134.98 423.427C1134.98 408.339 1134.98 393.25 1134.98 378.161C1134.98 361.928 1137.62 345.769 1138.12 329.489C1138.74 308.842 1139.41 288.039 1141.07 267.461C1143.9 232.506 1142.55 197.092 1145.02 162.049C1146.82 136.407 1149.5 111.826 1149.5 86.1277C1149.5 71.9443 1147.89 58.0267 1147.89 44.0885C1147.89 39.4091 1149.43 8.65004 1144.66 6.26221" stroke="white" stroke-linecap="round" stroke-linejoin="round"/>
<path d="M1145 7.58975C1094.24 7.58975 1043.49 7.58975 992.73 7.58975C953.317 7.58975 914.482 11.3366 875.261 14.7642C833.902 18.3788 792.338 17.2753 750.868 17.2753C717.881 17.2753 684.782 18.0949 651.809 16.9165C626.1 15.9977 600.665 12.5554 575.016 10.8183C527.853 7.62411 480.87 6.28666 433.704 4.00253C360.63 0.46382 287.626 1.13275 214.459 1.13275C162.882 1.13275 110.807 -0.062489 59.3834 4.71997C49.83 5.60845 52.4191 22.0953 49.5652 29.2924C43.2981 45.0972 36.4078 60.44 32.7339 77.1819C26.3205 106.409 23.1446 136.853 20.0228 166.593C14.7513 216.815 6.8963 267.421 4.15586 317.885C1.53188 366.203 1 414.026 1 462.45C1 480.416 1 498.382 1 516.348C1 545.775 9.08544 573.423 14.3248 602.172C28.9995 682.694 19.5 720.662 19.5 802.5" stroke="white" stroke-linecap="round" stroke-linejoin="round"/>
<path d="M18.1641 801.935C111.243 801.935 204.354 803.591 297.357 803.591C340.062 803.591 382.155 796.965 424.898 796.965C471.093 796.965 517.288 796.965 563.482 796.965C597.267 796.965 630.469 790.929 664.154 788.684C699.158 786.35 733.499 785.371 768.69 785.371C831.633 785.371 894.575 785.371 957.518 785.371C978.396 785.371 999.06 783.714 1019.91 783.714C1023.07 783.714 1026.23 783.714 1029.39 783.714C1033.07 783.714 1031.52 784.972 1030.21 780.402C1029.19 776.831 1023.76 771.688 1023.59 768.807C1022.97 758.344 1020.12 747.139 1018.71 736.599C1017.84 730.057 1012.6 723.53 1007.03 719.944C999.843 715.326 998.225 704.86 994.142 697.951C988.778 688.872 984.084 681.61 980.523 671.816C978.108 665.174 978.704 657.462 975.922 651.204C973.839 646.517 975.927 636.595 971.873 633.352C970.319 632.108 967.811 637.345 966.444 637.953C963.216 639.387 959.278 641.502 956.506 643.658C951.956 647.196 941.808 652.193 935.801 652.86C928.584 653.662 926.6 658.339 934.973 653.688C940.267 650.747 944.083 650.352 944.083 657.001C944.083 668.18 944.083 659.64 944.083 653.228C944.083 645.032 941.722 646.235 934.144 646.235C930.526 646.235 927.572 644.788 924.206 644.578C922.593 644.477 930.261 646.235 932.12 646.235C937.951 646.235 940.702 651.288 947.027 649.179C953.869 646.899 961.506 643.268 968.192 641.357C971.555 640.397 975.135 631.595 970.585 631.327C965.019 631 959.953 630.283 954.849 628.014C950.499 626.081 943.785 622.673 940.77 618.904C937.227 614.475 938.882 612.123 939.114 606.113C939.144 605.325 940.6 598.383 941.506 598.383C941.807 598.383 940.497 601.604 940.402 601.88C939.258 605.198 938.485 608.571 937.457 611.911C936.786 614.093 924.469 619.309 922.182 620.1C921.046 620.494 916.529 623.085 917.12 622.953C923.115 621.621 929.224 617.028 934.144 613.475C939.295 609.755 937.933 610.728 933.316 609.702C931.052 609.199 929.066 605.316 926.691 603.997C925.828 603.517 920.438 602.349 922.55 603.537C925.685 605.3 929.087 606.271 932.12 608.138C937.253 611.296 942.269 615.004 948.224 616.328C953.398 617.477 958.69 620.511 963.131 623.965C965.413 625.74 972.226 634.64 974.818 634.64C977.671 634.64 972.687 629.281 972.333 626.45C971.884 622.853 970.585 620.136 970.585 616.42C970.585 607.405 970.426 604.666 963.959 598.199C955.967 590.207 965.92 600.167 968.56 594.887C969.316 593.376 975.494 574.928 973.806 584.212C971.88 594.804 967.103 599.713 981.811 596.911C984.912 596.32 988.146 596.543 991.29 596.543C996.409 596.543 982.853 601.847 981.535 602.248C972.108 605.118 975.554 615.321 975.554 623.873C975.554 630.211 973.851 637.671 982.548 632.615C989.579 628.528 995.348 627.941 1002.88 626.266C1011.38 624.378 1003.42 615.794 1007.39 611.819C1008.87 610.346 1008.71 619.11 1008.77 619.548C1009.32 623.349 1015.23 620.492 1017.33 620.1C1021.97 619.237 1027.71 618.076 1032.42 618.076C1035.39 618.076 1027.01 620.534 1024.51 622.125C1020.82 624.474 1015.31 624.406 1015.31 629.671C1015.31 637.705 1017.68 639.748 1013.65 630.683C1011.47 625.774 992.478 632.627 989.449 633.812C987.429 634.602 966.352 639.609 974.266 639.609C985.922 639.609 991.726 654.127 999.112 660.774C1000.33 661.872 1012.91 661.547 1012.91 659.486C1012.91 655.713 1004.36 665.298 1006.2 668.596C1008.25 672.293 1012.78 681.662 1008.31 672.737C1007.22 670.557 1003.39 660.747 999.572 663.719C995.517 666.872 990.469 668.284 986.413 670.988C981.857 674.026 1000.59 662.069 996.719 658.197C992.269 653.747 984.064 654.455 979.603 648.719C975.874 643.925 972.317 640.475 967.272 637.953" stroke="white" stroke-linecap="round" stroke-linejoin="round"/>
<path d="M967.272 629.671C965.14 615.932 960.646 604.275 960.646 590.286C960.646 580.531 960.646 570.777 960.646 561.023C960.646 544.075 977.21 538.109 977.21 523.662C977.21 513.817 975.554 504.279 975.554 494.583C975.554 491.463 975.308 487.466 973.897 484.645C973.022 482.895 974.859 489.905 972.977 490.442C969.216 491.517 963.476 486.555 969.849 492.927C971.577 494.655 977.328 495.937 979.695 495.412C982.452 494.799 987.008 489.816 982.547 496.424C978.41 502.553 972.622 511.069 972.241 518.693C972.097 521.57 971.933 522.006 968.928 522.006C962.316 522.006 955.835 522.83 949.88 519.521C943.911 516.205 954.063 517.037 956.505 517.037C964.451 517.037 952.757 511.257 954.389 513.356C960.273 520.921 971.246 524.418 959.818 532.036C957.539 533.556 950.074 544.074 955.769 540.87C962.256 537.222 967.525 526.975 975.554 526.975C987.578 526.975 999.602 526.975 1011.63 526.975C1016.9 526.975 1027.77 528.994 1021.1 523.662C1016.85 520.26 1019.48 515.348 1018.53 510.595C1018.25 509.201 1010.62 522.012 1009.05 524.03C1007.24 526.353 1038.15 548.353 1016.14 538.57C1005.62 533.897 990.514 536.12 981.811 528.999C974.672 523.158 982.589 535.155 983.468 536.913C985.131 540.239 986.845 547.934 989.633 550.164C992.36 552.346 990.461 564.381 990.461 567.464C990.461 577.433 992.643 567.067 998.743 566.728C1002.68 566.509 1010 568.384 1002.06 568.384C996.428 568.384 996.745 561.475 994.602 557.618C990.384 550.024 982.643 544.466 978.867 536.913" stroke="white" stroke-linecap="round" stroke-linejoin="round"/>
<path d="M979.254 537.656C976.409 536.446 959.093 527.949 966.022 521.02C968.471 518.571 973.998 519.063 977.175 518.941C984.345 518.665 990.215 504.604 993.905 500.132C1004.06 487.828 1015.22 478.586 1027.74 468.846C1031.86 465.644 1035.63 462.045 1039.65 458.638C1043.32 455.532 1050.97 454.978 1053.73 452.211C1058.15 447.792 1045.24 428.983 1043.53 424.045C1041.61 418.505 1040.5 421.254 1040.5 425.368C1040.5 427.41 1045.36 433.226 1042.87 433.78C1037.41 434.992 1031.72 432.173 1026.23 432.173C1019.33 432.173 1040.03 432.173 1046.93 432.173C1051.38 432.173 1060.92 434.769 1060.92 428.771C1060.92 423.821 1063.63 422.003 1061.67 424.517C1056.27 431.472 1038.04 439.047 1049.86 448.241C1055.01 452.25 1075.94 449.594 1069.42 449.187C1061.97 448.721 1056.6 449.187 1049.01 449.187C1044.34 449.187 1040.26 449.131 1035.78 450.51C1033.06 451.345 1023.59 452.589 1031.24 452.589C1042.48 452.589 1056.52 448.095 1049.86 462.892C1047.38 468.411 1047.31 473.079 1047.31 478.96C1047.31 486.686 1051.19 469.616 1052.41 466.956C1053.58 464.422 1054.15 457.084 1054.49 457.693C1056.52 461.304 1063.01 462.797 1066.87 462.797C1074.17 462.797 1063.88 463.07 1061.86 462.703C1057.38 461.887 1057.02 457.92 1055.81 454.291" stroke="white" stroke-linecap="round" stroke-linejoin="round"/>
</svg>
