<svg width="1171" height="821" viewBox="0 0 1171 821" fill="none" xmlns="http://www.w3.org/2000/svg">
<path d="M1130.96 611.635C1130.59 596.752 1124.51 584.277 1124.51 569.136C1124.51 560.787 1126.51 546.954 1129.88 539.531C1133.85 530.806 1129.98 518.171 1131.43 508.732C1133.23 497.049 1136.54 485.482 1137.52 473.754C1139.33 452.004 1138.49 428.246 1142.18 407.023C1147.78 374.833 1143.43 342.895 1146.12 310.685C1147.7 291.668 1147.89 273.092 1148.15 253.981C1148.37 237.294 1153.15 220.901 1154.47 204.321C1155.61 190.138 1153.35 176.059 1156.26 162.061C1159.99 144.174 1169.63 123.598 1169.63 105.596C1169.63 91.1525 1167.49 75.6652 1167.49 60.5907C1167.49 44.282 1158.89 29.7195 1158.89 14.2725" stroke="white" stroke-linecap="round" stroke-linejoin="round"/>
<path d="M1158.89 14.2724C1120.49 14.2724 1082.38 9.97479 1044.05 9.97479C987.226 9.97479 930.403 9.97479 873.579 9.97479C736.273 9.97479 599.13 8.46524 461.968 3.05092C389.214 0.179058 316.315 1.37965 243.508 1.37965C219.688 1.37965 194.906 -0.458989 171.166 1.85716C157.523 3.18812 145.078 7.19413 131.771 9.49728C88.7083 16.9505 44.3889 18.5699 0.695312 18.5699" stroke="white" stroke-linecap="round" stroke-linejoin="round"/>
<path d="M0.695312 18.5698C0.695312 151.556 0.695312 284.542 0.695312 417.528C0.695312 448.566 0.695312 479.604 0.695312 510.642C0.695312 550.831 6.74556 590.489 7.14167 630.496C7.67501 684.363 7.14167 738.263 7.14167 792.132C7.14167 796.029 5.22227 813.255 11.4392 813.62C37.9967 815.182 65.0664 813.62 91.6605 813.62C186.792 813.62 281.758 820.067 376.971 820.067C410.992 820.067 443.831 816.73 477.726 814.098C512.151 811.424 543.968 810.738 577.763 803.354C624.338 793.178 673.624 787.835 721.016 787.835C745.05 787.835 769.085 787.835 793.119 787.835C802.887 787.835 818.114 790.967 827.5 787.357C831.469 785.831 832.715 779.663 836.573 777.091" stroke="white" stroke-linecap="round" stroke-linejoin="round"/>
<path d="M834.423 779.24C837.409 765.64 842.649 745.809 838.243 731.489C833.73 716.821 794.451 721.223 782.852 721.223C772.148 721.223 725.369 725.542 724.835 707.375C724.402 692.644 724.835 677.824 724.835 663.086C724.835 648.708 729.133 634.541 729.133 620.23C729.133 611.881 731.091 604.661 732.953 596.593C734.439 590.153 732.511 583.516 734.505 577.135C742.061 552.955 737.728 522.266 737.728 497.272C737.728 478.45 737.728 459.628 737.728 440.806C737.728 429.369 736.238 418.822 742.025 408.694C744.811 403.819 750.885 398.641 754.918 394.607C757.613 391.912 764.693 380.746 765.662 381.715" stroke="white" stroke-linecap="round" stroke-linejoin="round"/>
<path d="M765.662 383.864C765.662 333.725 765.662 283.587 765.662 233.449C765.662 210.782 773.616 217.989 791.448 213.035C802.831 209.873 806.711 211.91 808.519 198.352C809.577 190.417 807.053 190.473 800.043 190.473C792.11 190.473 770.247 186.557 766.14 194.77C763.466 200.118 762.014 203.366 769.482 203.366C781.894 203.366 794.073 207.663 806.967 207.663C812.452 207.663 817.767 209.019 819.263 202.291C821.016 194.401 808.919 192.142 808.638 196.919C808.032 207.224 808.638 217.752 808.638 228.077C808.638 240.805 813.783 256.312 816.159 269.142C820.465 292.394 823.68 317.222 823.68 340.888C823.68 351.632 823.68 362.376 823.68 373.12C823.68 379.739 826.567 381.277 827.858 387.087C830.966 401.075 838.106 406.869 846.839 416.573C854.886 425.515 859.043 447.215 862.835 458.594C874.297 492.98 877.399 526.701 877.399 562.929C877.399 615.647 876.386 670.512 862.238 720.029C860.09 727.547 852.151 713.732 851.733 711.434C849.62 699.81 854.332 690.392 855.792 679.441C857.314 668.022 856.351 656.48 858.06 644.941C859.872 632.709 865.981 619.466 866.655 607.337C867.1 599.339 822.07 603.04 812.936 603.04C789.573 603.04 753.562 603.594 734.624 587.998C726.46 581.274 729.79 565.976 727.939 556.721C725.262 543.334 720.538 530.902 720.538 517.088C720.538 514.41 717.376 504.841 718.747 503.241C723.573 497.61 740.246 497.749 746.801 497.749C779.399 497.749 809.163 492.063 840.87 484.856C856.204 481.371 877.399 472.535 877.399 493.929C877.399 500.893 877.808 507.985 877.399 514.939C877.135 519.423 857.367 517.168 854.718 516.611C845.204 514.608 833.447 509.631 824.157 514.939C815.896 519.66 801.66 521.328 792.283 523.535C774.905 527.624 779.728 553.618 795.745 553.618C807.33 553.618 818.683 541.694 830.126 539.054C853.365 533.691 867.584 544.747 877.399 566.51C882.797 578.479 877.495 592.8 880.622 605.308C882.821 614.102 881.697 624.104 881.697 633.123C881.697 650.431 879.548 667.752 879.548 684.693C879.548 694.363 877.574 706.431 879.667 715.851C880.996 721.828 901.858 729.818 907.482 729.818" stroke="white" stroke-linecap="round" stroke-linejoin="round"/>
<path d="M909.022 730.003C914.647 727.671 924.106 723.931 927.702 718.279C931.358 712.534 930.84 697.133 931.876 690.457C936.118 663.118 944.793 633.899 944.793 606.198C944.793 582.815 944.793 559.431 944.793 536.048C944.793 529.457 944.793 522.866 944.793 516.275C944.793 511.016 941.954 510.754 938.533 507.332C932.968 501.767 926.485 499.452 920.648 494.912C906.39 483.823 910.153 471.87 908.923 455.266C906.699 425.242 903.657 395.663 903.657 365.443C903.657 358.055 908.054 334.74 898.291 334.74" stroke="white" stroke-linecap="round" stroke-linejoin="round"/>
<path d="M898.291 334.739C891.418 334.576 878.945 333.624 875.04 326.79C872.571 322.469 869.384 320.431 876.829 320.431C887.788 320.431 896.826 325.797 908.128 325.797C912.709 325.797 911.322 331.162 906.836 331.162C901.603 331.162 896.37 331.162 891.137 331.162C881.738 331.162 867.886 316.535 867.886 334.739C867.886 345.524 871.463 355.718 871.463 366.933C871.463 385.712 871.463 404.492 871.463 423.271C871.463 433.637 863.452 445.321 859.341 454.57C857.82 457.992 858.405 461 859.043 464.507C860.885 474.64 861.975 484.755 864.21 494.812C867.532 509.765 874.098 525.332 880.406 539.525C885.684 551.401 897.833 547.254 909.022 547.574C923.086 547.975 934.898 550.662 940.321 564.763C941.778 568.551 945.485 613.498 941.215 613.749C935.002 614.114 930.749 610.008 925.218 607.589C920.199 605.393 913.519 606.595 908.128 606.595C899.737 606.595 902.779 576.452 907.234 576.19C911.267 575.953 916.405 580.703 920.548 581.456C925.838 582.418 930.94 581.019 935.949 579.767C944.378 577.66 956.203 576.19 964.466 576.19" stroke="white" stroke-linecap="round" stroke-linejoin="round"/>
</svg>
