<svg width="1148" height="819" viewBox="0 0 1148 819" fill="none" xmlns="http://www.w3.org/2000/svg">
<path d="M1131.07 609.911C1125.33 593.651 1116.77 580.203 1112.05 563.665C1108.47 551.139 1111.62 533.434 1111.62 520.445C1111.62 498.576 1116.91 477.54 1117.45 455.832C1118.47 415.012 1124.14 372.168 1131.07 332.007C1149.51 225.024 1146.62 115.246 1146.62 6.99365" stroke="white" stroke-linecap="round" stroke-linejoin="round"/>
<path d="M1146.63 6.99384C1135.68 2.72079 1129.57 -0.310315 1117.45 1.59136C1098.37 4.58466 1080.5 4.7788 1061.05 5.04894C1004.97 5.8278 949.01 16.7183 892.816 16.7183C822.748 16.7183 751.598 13.1724 681.796 19.6356C644.732 23.0674 606.377 20.6081 569.208 20.6081C519.865 20.6081 470.523 20.6081 421.18 20.6081C379.553 20.6081 338.608 19.9567 297.139 17.1505C272.174 15.4612 243.834 14.2878 219.343 20.6081C193.186 27.3583 170.519 23.0418 144.357 20.6081C97.8892 16.2855 51.0321 20.6081 4.97266 20.6081" stroke="white" stroke-linecap="round" stroke-linejoin="round"/>
<path d="M6.91698 20.6079C6.91698 109.236 10.7584 198.741 3.45939 287.058C0.0762789 327.994 1.0823 369.026 1.0823 410.127C1.0823 515.507 3.02719 621.196 3.02719 726.388C3.02719 741.88 2.97517 755.474 6.91698 770.256C8.72844 777.049 10.5386 806.345 18.5863 806.345C75.7568 806.345 131.754 818.014 188.656 818.014C204.561 818.014 220.832 819.017 236.63 817.042C250.522 815.305 265.202 812.325 279.202 812.18C304.004 811.921 329.093 813.487 353.864 812.071C371.812 811.046 388.96 807.435 406.701 805.372C446.176 800.782 486.978 801.858 525.771 793.163C561.802 785.087 598.526 783.006 635.334 783.006C743.423 783.006 850.758 775.227 958.834 775.227C975.758 775.227 992.817 774.583 1009.73 775.335C1023.71 775.956 1037.37 779.116 1051.32 779.116C1059.75 779.116 1085.04 779.116 1076.61 779.116" stroke="white" stroke-linecap="round" stroke-linejoin="round"/>
<path d="M1075 781C1075 744.859 1071.88 707.492 1071.88 672.121C1071.88 658.852 1016 662.239 1003.07 661.608C984.798 660.714 940.8 658.828 926.986 647.35C922.532 643.649 922.678 636.281 917.453 631.939C909.586 625.402 901.906 619.021 894.055 612.497C886.04 605.837 872.217 594.772 872.217 585.133C872.217 577.663 865.81 541.202 872.91 535.302C891.889 519.532 915.202 502.549 934.612 485.471C940.887 479.95 940.804 475.662 944.664 482.879C949.272 491.493 962.261 498.255 972.049 502.322C985.712 507.998 1003.25 514.31 1003.25 526.949C1003.25 533.011 999.02 556.803 1004.81 560.65C1008.24 562.932 1006.6 572.719 1006.37 576.204C1005.76 585.22 989.322 585.47 983.141 590.606C971.476 600.299 958.941 610.427 947.091 620.274C937.068 628.602 931.548 639.814 921.44 648.214C915.406 653.227 915.93 655.187 912.08 648.79C908.148 642.254 901.102 637.617 895.788 631.939C887.79 623.394 875.81 615.922 869.097 606.16C851.228 580.175 802.311 635.711 780.358 630.499C776.916 629.682 766.664 612.927 763.2 610.048C757.33 605.171 750.736 601.132 745.001 596.367C740.661 592.76 735.072 589.766 730.269 586.573C726.686 584.191 731.829 569.592 731.829 565.258C731.829 553.785 731.829 542.311 731.829 530.838C731.829 520.218 761.591 513.288 772.385 508.803C787.674 502.45 810.006 487.683 820.568 476.398C826.567 469.989 828.541 473.433 828.541 480.287C828.541 489.508 830.457 491.386 837.727 498.433C848.564 508.94 847.324 516.737 851.072 529.541C855.997 546.365 859.738 562.877 859.738 580.092C859.738 581.945 860.972 594.062 858.178 594.062C852.583 594.062 853.499 581.458 853.499 578.796C853.499 566.506 853.499 554.217 853.499 541.927C853.499 535.573 852.83 530.144 855.925 524.357C858.142 520.211 862.858 514.848 862.858 510.099C862.858 499.835 858.045 496.512 853.499 487.488C849.702 479.951 837.9 468.908 837.9 460.844C837.9 455.249 834.78 449.196 834.78 442.409C834.78 434.821 840.387 406.317 834.087 400.5C828.207 395.071 819.397 390.696 814.502 384.369C811.116 379.993 794.202 374 800.463 374" stroke="white" stroke-linecap="round" stroke-linejoin="round"/>
<path d="M797.605 374.1C796.752 373.39 764.975 346.02 763.363 347.027C754.135 352.79 742.791 359.136 732.233 364.308C722.841 368.909 710.113 377.474 699.547 379.429C680.928 382.874 682.426 395.156 682.426 407.942C682.426 429.027 687.376 455.551 676.892 475.193C671.441 485.406 692.476 492.129 699.374 499.962C705.793 507.251 711.539 527.274 723.586 517.243C736.599 506.407 753.154 501.909 768.897 493.338C781.109 486.688 792.796 478.51 805.214 472.601C816.088 467.427 810.057 439.433 810.057 431.127C810.057 416.301 810.411 384.469 836.69 384.469C856.369 384.469 876.946 381.002 893.414 371.508C899.345 368.089 903.73 362.671 911.227 361.284C919.105 359.826 912.573 368.916 920.566 368.916C931.924 368.916 947.429 362.285 940.108 350.771C934.798 342.419 909.671 354.346 909.671 361.14" stroke="white" stroke-linecap="round" stroke-linejoin="round"/>
<path d="M909 362C884.864 362 854.798 368.078 832 374" stroke="white" stroke-linecap="round" stroke-linejoin="round"/>
</svg>
