<svg width="1146" height="827" viewBox="0 0 1146 827" fill="none" xmlns="http://www.w3.org/2000/svg">
<path d="M1132.57 630.296C1132.57 524.714 1134.76 419.255 1134.76 313.759C1134.76 281.266 1134.76 248.773 1134.76 216.279C1134.76 204.968 1133.33 192.352 1135.86 181.23C1138.16 171.11 1136.61 160.375 1136.95 150.075C1137.33 138.608 1139.14 127.272 1139.14 115.513C1139.14 94.6918 1137.26 72.6953 1143.04 52.4736C1145.38 44.2746 1146.75 27.8906 1136.95 27.8906C1122.22 27.8906 1105.21 22.9466 1090.95 19.6152C1060.08 12.4039 1029.02 9.971 997.606 6.95859C940.57 1.48939 883.411 7.27526 826.377 3.30765C769.947 -0.617914 712.816 1.60387 656.243 1.60387C616.404 1.60387 576.64 0.448164 537.344 8.05387C506.435 14.0362 475.255 14.7473 443.88 14.7473C395.324 14.7473 346.311 13.8783 298.086 20.2237C266.093 24.4332 233.286 20.3353 201.579 25.2133C178.408 28.7782 154.897 27.8906 131.481 27.8906C121.848 27.8906 113.425 28.5697 103.978 30.0812C93.1514 31.8134 80.8333 30.4658 70.3889 33.3671C51.3116 38.6663 -8.79935 34.4623 11.0002 34.4623" stroke="white" stroke-linecap="round" stroke-linejoin="round"/>
<path d="M2.23676 34.4619C2.23676 103.806 -1.3135 174.107 3.21035 243.296C7.44195 308.014 15.6659 372.555 17.6924 437.404C18.9031 476.146 25.2553 514.829 26.333 553.626C26.8882 573.613 29.895 597.327 34 617.03C37.8502 635.511 37.2858 656.345 37.2858 675.202C37.2858 696.888 39.4764 718.232 39.4764 739.824C39.4764 757.841 34.1533 786.661 41.1801 803.35C44.8284 812.015 38.3285 814.303 50.916 814.303C96.2855 814.303 142.142 812.674 187.218 818.684C276.372 830.571 368.107 825.256 457.874 825.256C498.941 825.256 540.779 827.618 581.763 825.134C609.764 823.437 637.442 814.741 665.491 814.303C690.475 813.912 715.25 809.922 740.214 809.922C750.529 809.922 766.938 814.886 762.363 801.159" stroke="white" stroke-linecap="round" stroke-linejoin="round"/>
<path d="M762.363 809.922C762.363 787.692 762.363 765.461 762.363 743.231C762.363 719.611 760.611 743.563 753.601 748.099C747.353 752.142 741.82 764.153 732.913 761.608C727.492 760.059 742.042 739.195 745.813 734.347C751.861 726.571 758.411 711.109 761.877 702.097C763.981 696.627 765.202 691.631 772.221 691.631C779.397 691.631 776.882 694.922 780.983 698.203C796.862 710.906 819.116 721.123 832.948 734.956C835.491 737.498 829.682 740.301 826.985 739.702C821.176 738.411 821.006 731.062 813.842 731.062C807.825 731.062 794.723 722.774 790.354 718.405C786.719 714.769 782.512 711.78 778.793 708.061C772.125 701.393 773.706 705.827 770.03 712.442C767.519 716.962 764.909 721.009 762.363 725.463C761.225 727.457 759.419 728.754 758.469 731.062C757.185 734.18 761.63 732.327 762.242 734.469C764.695 743.055 756.911 803.35 766.745 803.35C777.697 803.35 788.65 803.35 799.603 803.35C801.967 803.35 814.213 804.723 814.815 802.011C816.447 794.67 814.937 785.709 814.937 778.159C814.937 768.881 818.805 748.492 813.233 741.528C812.998 741.233 811.897 728.009 810.678 732.278C809.527 736.305 804.982 737.633 800.698 737.633C795.948 737.633 772.887 736.549 779.401 744.692C782.972 749.155 784.035 748.586 790.841 748.586C796.162 748.586 797.306 740.075 793.031 739.824C777.284 738.897 788.65 779.658 788.65 790.207C788.65 791.832 790.467 803.772 792.058 802.863C795.294 801.014 799.474 786.721 801.794 782.661C806.035 775.24 824.028 774.873 831.366 774.873C842.67 774.873 840.213 786.032 846.092 791.911C853.074 798.893 874.595 794.588 883.818 794.588C886.194 794.588 898.124 795.522 898.178 794.588C898.605 787.343 895.988 780.114 895.988 772.682C895.988 760.999 895.988 749.316 895.988 737.633C895.988 733.839 897.84 726.68 892.702 726.68C886.387 726.68 888.217 729.831 883.94 733.252C882.426 734.463 877.746 741.184 876.273 738.607C872.451 731.919 868.434 732.075 877.246 728.871C888.251 724.869 913.019 670.991 928.846 685.06C937.239 692.519 949.526 696.641 958.419 703.558C960.827 705.431 966.086 710.197 966.086 713.537C966.086 716.207 958.232 723.902 955.62 721.812C952.53 719.34 938.062 700.213 946.371 714.754C952.482 725.448 952.943 746.598 952.943 758.444C952.943 763.659 959.678 789.629 954.646 794.101C953.203 795.384 948.306 791.176 946.858 790.694C943.103 789.442 938.348 790.207 934.445 790.207C927.832 790.207 921.22 790.207 914.608 790.207C904.746 790.207 909.131 761.415 909.131 754.671C909.131 740.508 904.002 727.755 904.75 713.537C905.013 708.543 917.32 694.44 923.248 696.134C925.308 696.723 924.156 699.858 924.587 701.367C925.163 703.384 929.388 704.346 931.037 705.262C936.012 708.026 939.417 711.377 944.18 714.024C953.414 719.153 961.391 724.298 971.562 726.559C976.639 727.687 984.693 727.525 989.087 729.966C994.986 733.243 994.904 734.735 996.754 742.136C999.607 753.548 1007.71 768.177 1007.71 779.254C1007.71 796.38 1015.88 790.207 1027.91 790.207C1043 790.207 1057.3 788.016 1072.33 788.016C1078.32 788.016 1075.61 745.942 1075.61 738.728C1075.61 733.982 1075.61 729.236 1075.61 724.49C1075.61 713.619 1076.94 721.699 1080 726.194C1082.25 729.508 1091.63 730.31 1093.02 725.463C1094.05 721.863 1087.75 718.472 1085.47 716.701C1080.01 712.451 1078.38 703.437 1073.42 698.203C1067.39 691.833 1062.89 684.125 1058.09 676.784C1049.31 663.35 1052.09 654.624 1035.7 665.345C1024.44 672.707 1016.34 683.001 1006.73 692.605C999.85 699.488 990.235 716.441 1005.52 707.452C1015.13 701.794 1019.86 693.011 1028.52 686.277C1031.16 684.218 1038.37 678.077 1038.37 683.964C1038.37 687.715 1038.17 693.544 1035.09 696.012C1032.44 698.129 1030.02 707.878 1029.61 711.346C1029.27 714.243 1018.69 721.444 1016.47 724.977C1010.8 733.973 1013.44 748.97 1025.23 750.655C1036.64 752.284 1049.33 753.661 1049.33 739.824C1049.33 734.587 1042.88 730.639 1038.37 728.384C1030.42 724.407 1033.99 732.772 1033.99 739.824C1033.99 744.901 1032.07 752.943 1037.4 747.612C1038.31 746.703 1050.83 741.983 1041.66 739.945C1035.46 738.568 1013.96 743.81 1009.9 738.728C1006.58 734.58 1007.71 733.304 1007.71 739.824C1007.71 745.348 1009.9 749.634 1009.9 755.158C1009.9 770.762 1012.09 786.123 1012.09 801.16" stroke="white" stroke-linecap="round" stroke-linejoin="round"/>
</svg>
