<svg width="1151" height="817" viewBox="0 0 1151 817" fill="none" xmlns="http://www.w3.org/2000/svg">
<path d="M6.69446 0.712402C6.69446 105.016 6.69446 209.32 6.69446 313.624C6.69446 385.723 3.52838 458.543 8.06034 530.551C9.94749 560.536 9.52401 591.047 8.6812 621.072C7.51374 662.663 7.812 704.259 7.812 745.864C7.812 759.916 7.812 773.968 7.812 788.02C7.812 792.287 17.2295 788.206 19.1116 787.399C41.207 777.93 66.4051 777.306 90.0134 775.789C135.25 772.884 181.142 775.169 226.478 775.169C242.578 775.169 258.679 775.169 274.78 775.169C291.002 775.169 307.015 773.122 323.207 772.934C356.516 772.546 389.853 772.934 423.165 772.934C550.176 772.934 677.652 782.116 803.502 799.196C843.455 804.618 883.654 812.045 923.886 814.779C949.638 816.529 975.917 815.599 1001.68 814.779C1022.66 814.112 1043.89 812.81 1064.51 808.633C1073.33 806.845 1082.87 801.99 1091.83 801.99C1101.14 801.99 1110.45 801.99 1119.77 801.99" stroke="white" stroke-linecap="round" stroke-linejoin="round"/>
<path d="M1.10669 2.94786C102.534 2.94786 203.961 2.94786 305.388 2.94786C365.818 2.94786 426.248 2.94786 486.678 2.94786C540.643 2.94786 594.744 2.20052 648.66 4.9346C702.598 7.6698 755.175 17.118 808.53 24.3674C834.142 27.8473 860.209 31.5615 886.075 31.9419C903.576 32.1992 921.235 32.516 938.724 31.7556C951.645 31.1938 962.117 28.1536 974.113 23.6845C994.301 16.1634 1011.31 5.59724 1033.34 3.81706C1050.28 2.44815 1065.03 3.38757 1081.33 8.53557C1095.91 13.1394 1111.02 14.7177 1125.85 17.4138C1129.34 18.0489 1133.35 18.4522 1136.9 19.711C1145.41 22.7228 1147.7 22.5357 1147.7 31.1347C1147.7 40.1882 1149.94 48.9879 1149.94 58.2662C1149.94 77.754 1147.23 96.555 1144.41 115.82C1141.37 136.65 1135.19 157.287 1133.42 178.278C1132.15 193.476 1134.91 207.893 1136.28 222.855C1138.44 246.373 1136.23 269.982 1129.82 292.577C1116.91 338.117 1108.28 384.461 1107.53 431.898C1107.23 451.486 1107.43 471.103 1107.47 490.693C1107.54 523.762 1106.77 557.62 1113.06 590.278C1114 595.148 1117.51 611.44 1123.12 614.243" stroke="white" stroke-linecap="round" stroke-linejoin="round"/>
<path d="M1120.05 800.093C1129.16 784.67 1133.07 768.494 1130.43 750.485C1127.89 733.171 1115.19 723.62 1102.3 713.309C1087.3 701.308 1069.4 686.031 1048.89 686.031C1042.08 686.031 1027.33 683.028 1022.88 688.746C1020.25 692.13 1015.63 690.248 1012.93 687.539C1001.92 676.538 984.847 669.612 969.895 666.236C953.485 662.53 936.769 660.007 921.373 653.079C915.254 650.326 913.648 645.094 913.648 638.716C913.648 632.473 914.735 626.527 914.735 620.248C914.735 614.989 913.7 608.459 915.278 603.411C916.917 598.164 915.821 591.307 915.821 585.909C915.821 574.503 915.821 563.097 915.821 551.69C915.821 544.572 914.993 536.574 916.847 530.085C917.939 526.262 904.937 530.677 903.268 531.292C897.405 533.452 891.375 532.716 885.223 532.921C872.413 533.348 859.578 534.527 846.78 535.275C788.312 538.692 729.595 537.206 671.039 537.206C664.119 537.206 657.199 537.206 650.279 537.206C644.476 537.206 644.046 537.206 650.037 537.206C674.379 537.206 698.72 537.206 723.062 537.206C736.721 537.206 750.38 537.206 764.04 537.206C775.096 537.206 786.707 538.297 797.594 536.12C805.763 534.486 814.351 533.757 822.64 532.861C829.393 532.131 835.678 529.602 842.556 529.602C874.401 529.602 906.696 527.861 937.789 536.12C943.534 537.646 949.635 538.791 955.17 540.706C960.481 542.545 961.009 544.896 955.17 546.138C940.544 549.25 926.87 549.156 911.838 549.156C877.235 549.156 842.801 546.983 808.216 546.983C794.054 546.983 779.892 546.983 765.729 546.983C761.324 546.983 756.918 546.983 752.513 546.983C749.344 546.983 750.702 553.429 750.702 555.432C750.702 577.109 754.733 601.63 745.874 621.878C743.631 627.005 737.671 630.136 732.718 632.258C725.272 635.449 716.758 638.15 708.879 639.862C701.063 641.562 704.613 640.775 709.905 642.035C717.865 643.93 727.287 643.664 735.494 643.664C751.892 643.664 746.357 618.217 746.357 608.299C746.357 599.595 746.497 591.687 749.133 583.314C751.522 575.724 750.396 573.931 758.246 571.968C764.094 570.506 803.931 566.142 803.931 571.968C803.931 578.069 806.241 586.819 807.733 592.789C809.51 599.897 811.653 605.091 814.794 611.558C816.86 615.81 818.753 621.062 823.726 622.783C830.987 625.297 833.385 608.662 834.348 604.437C836.837 593.512 836.811 585.271 833.262 574.623C829.254 562.6 828.916 550.696 828.916 538.172C828.916 523.425 824.571 509.044 824.571 494.297C824.571 489.087 824.571 483.876 824.571 478.666C824.571 474.887 825.755 472.028 821.312 472.028C812.244 472.028 817.855 467.798 823.485 466.355C825.733 465.778 836.636 462.251 829.882 462.251C819.904 462.251 809.926 462.251 799.948 462.251C796.711 462.251 792.992 461.765 789.809 462.492C783.766 463.873 793.339 463.337 794.939 463.337C806.118 463.337 828.318 458.729 826.683 475.89C826.123 481.773 823.491 487.916 822.398 493.814C820.966 501.551 819.998 509.382 818.536 517.109C816.86 525.971 815.881 534.58 815.881 543.603C815.881 559.777 815.881 575.951 815.881 592.125C815.881 597.645 816.041 599.489 821.916 600.272C826.538 600.889 829.939 605.26 834.348 606.73" stroke="white" stroke-linecap="round" stroke-linejoin="round"/>
<path d="M961.446 516.566C961.446 485.067 961.706 453.555 961.446 422.057C961.294 403.706 959.274 385.547 959.274 367.138C959.274 352.777 959.7 338.339 959.213 323.988C958.782 311.259 955.476 298.59 953.601 286.027C951.622 272.77 949.734 264.972 936.763 259.594C923.707 254.18 909.027 255.852 895.181 255.852C890.295 255.852 890.836 257.015 890.836 262.128C890.836 287.041 890.898 311.992 887.637 336.721C883.213 370.274 883.824 404.372 878.645 437.748C878.144 440.981 874.541 461.689 874.541 448.129C874.541 435.153 872.783 422.428 872.429 409.504C871.841 388.05 872.257 366.947 870.196 345.533C867.759 320.218 865.851 295.061 865.851 269.612C865.851 258.797 866.937 248.131 866.937 237.385C866.937 228.05 866.937 218.716 866.937 209.382C866.937 207.378 866.231 203.869 869.11 203.709C870.332 203.641 875.311 203.037 876.111 203.95C877.981 206.088 878.116 213.187 879.007 215.96C881.298 223.086 883.004 230.225 884.922 237.445C888.798 252.036 892.581 266.059 894.336 281.078C896.102 296.182 895.815 304.533 882.689 313.909C875.642 318.942 862.966 317.217 854.807 316.564C849.338 316.127 844.079 314.512 838.572 314.512C837.992 314.512 829.674 314.743 831.813 313.426C837.293 310.054 851.175 308.401 857.04 311.133C869.415 316.897 879.224 330.959 887.034 341.731C892.55 349.339 898.44 360.306 898.44 369.914" stroke="white" stroke-linecap="round" stroke-linejoin="round"/>
<path d="M961.5 511C961 519 962 527.308 962 535.462C962 539.391 960 542.749 960 547" stroke="white" stroke-linecap="round" stroke-linejoin="round"/>
</svg>
