<svg width="1131" height="845" viewBox="0 0 1131 845" fill="none" xmlns="http://www.w3.org/2000/svg">
<path d="M1130.5 624C1130.5 451.669 1129.94 281.097 1129.94 108.766C1129.94 74.3172 1129.94 39.868 1129.94 5.41877C1129.94 -3.5971 1079.27 4.1069 1074.08 4.14914C1001.98 4.73528 928.895 -0.0943961 857.225 8.59283C807.131 14.6649 758.459 21.6295 709.186 32.7157C662.513 43.2172 613.986 40.7668 566.48 43.5076C525.768 45.8564 484.976 44.5061 444.342 48.0782C398.327 52.1235 350.519 52.0537 305.445 41.984C279.523 36.193 252.767 31.2824 226.221 29.5417C204.148 28.0943 181.913 30.1427 159.819 29.1608C131.926 27.9211 104.359 24.7171 76.4047 24.7171C64.5971 24.7171 52.7896 24.7171 40.9821 24.7171C34.2785 24.7171 22.4737 17.3958 19.2715 27.0024" stroke="white" stroke-linecap="round" stroke-linejoin="round"/>
<path d="M15.0454 27.7568C15.0454 56.8897 15.0454 86.0226 15.0454 115.155C15.0454 135.518 17.2191 157.271 14.6062 177.52C10.6087 208.501 9.06218 240.153 5.60283 271.287C1.65413 306.825 5.16364 344.738 5.16364 380.426C5.16364 421.223 1.21094 461.909 1.21094 502.849C1.21094 520.051 1.21094 537.253 1.21094 554.454C1.21094 573.715 6.34362 591.783 9.99472 610.56C13.5465 628.827 13.069 647.61 13.069 666.118C13.069 679.44 9.11634 692.314 9.11634 705.535C9.11634 723.981 9.11634 742.427 9.11634 760.873C9.11634 767.252 8.45788 804.133 13.069 806.439" stroke="white" stroke-linecap="round" stroke-linejoin="round"/>
<path d="M13.0684 806.438C22.4708 815.841 25.5612 824.226 38.7609 824.226C51.3021 824.226 63.7677 825.754 75.8724 826.202C93.1662 826.842 111.055 832.608 128.136 835.645C153.169 840.095 179.838 838.06 205.214 838.06C260.398 838.06 314.93 843.989 370.349 843.989C392.438 843.989 414.069 840.036 436.446 840.036C465.57 840.036 496.744 842.804 524.723 833.119C545.905 825.787 571.721 828.178 594.005 828.178C626.928 828.178 659.991 834.107 692.933 834.107C721.919 834.107 750.906 834.107 779.892 834.107C807.823 834.107 834.981 826.202 862.789 826.202C890.861 826.202 918.932 826.202 947.004 826.202C963.116 826.202 978.959 827.388 994.546 823.347C1004.52 820.76 1013.82 817.101 1024.08 815.332C1051.95 810.527 1083.42 814.344 1111.92 814.344" stroke="white" stroke-linecap="round" stroke-linejoin="round"/>
<path d="M1109.94 814.344C1109.94 802.888 1114 794.58 1101.6 794.58C1098.64 794.58 1086.45 794.409 1086.23 790.628C1085.72 782.044 1090.8 760.982 1080.3 760.982C1066.25 760.982 1052.26 759.754 1038.79 759.006C1032.22 758.641 1034.84 748.088 1034.84 742.756C1034.84 732.46 1036.7 729.361 1025.95 729.361C1020.93 729.361 993.339 727.131 993.339 722.444C993.339 716.787 997.292 713.001 997.292 706.633C997.292 700.374 997.292 694.116 997.292 687.857C997.292 681.958 992.554 684.143 987.629 683.685C975.431 682.55 963.359 674.663 951.835 674.023C945.183 673.653 947.883 663.644 947.883 658.212C947.883 647.725 945.917 644.378 934.487 644.378C924.881 644.378 918.004 639.933 909.234 638.339C887.972 634.473 901.066 620.347 896.388 603.972C895.158 599.668 869.28 599.327 864.986 597.824C862.702 597.025 841.771 593.648 841.27 591.895C839.406 585.372 843.136 572.812 843.136 565.434C843.136 555.424 839.424 557.418 830.29 557.418C820.408 557.418 810.526 557.418 800.645 557.418C790.027 557.418 791.751 549.51 791.751 541.608C791.751 536.314 795.282 517.891 787.798 517.891C777.404 517.891 767.01 517.891 756.616 517.891C750.197 517.891 744.951 513.939 738.39 513.939C730.814 513.939 723.238 513.939 715.662 513.939C706.718 513.939 686.833 517.359 680.087 511.962C669.549 503.532 659.29 511.962 647.478 511.962" stroke="white" stroke-linecap="round" stroke-linejoin="round"/>
</svg>
