<svg width="1143" height="820" viewBox="0 0 1143 820" fill="none" xmlns="http://www.w3.org/2000/svg">
<path d="M1122.92 615.749C1122.92 560.528 1120.74 505.36 1121.24 450.077C1121.48 422.923 1125.76 395.295 1127.61 368.179C1130.61 324.346 1135.83 281.079 1140.54 237.366C1143.97 205.515 1141.48 172.028 1141.48 140.005C1141.48 118.141 1141.48 96.2762 1141.48 74.4115C1141.48 62.8435 1139.79 51.1749 1139.79 39.8342C1139.79 34.1966 1140.51 28.5274 1138.1 23.7168" stroke="white" stroke-linecap="round" stroke-linejoin="round"/>
<path d="M1138.1 27.09C1067.82 27.09 997.545 27.09 927.266 27.09C894.717 27.09 862.071 26.3494 829.531 27.1838C804.221 27.8327 779.394 32.1501 754.004 32.1501C724.908 32.1501 695.652 33.0039 666.577 31.7753C634.263 30.41 602.01 26.9954 569.685 25.7782C520.97 23.9437 472.483 25.8886 423.879 20.3432C374.756 14.7386 326.132 3.38817 276.574 1.78953C237.273 0.521755 197.738 1.78953 158.411 1.78953C141.253 1.78953 124.353 1.69073 107.435 3.38252C74.7545 6.65061 40.8013 13.5964 8.01367 13.5964" stroke="white" stroke-linecap="round" stroke-linejoin="round"/>
<path d="M8.01438 13.5967C8.01438 120.587 6.32768 227.523 6.32768 334.538C6.32768 448.614 2.95428 562.357 2.95428 676.47C2.95428 709.455 1.26758 742.021 1.26758 774.955C1.26758 786.154 2.95428 797.798 2.95428 809.72" stroke="white" stroke-linecap="round" stroke-linejoin="round"/>
<path d="M4.5 810C38.9837 810 50.0163 813 84.5 813C120.409 813 127.62 818.774 163.5 819C204.808 819.26 232.159 820.414 273.109 814.721C336.734 805.874 402.386 809.286 466.518 809.286C480.761 809.286 495.004 809.286 509.247 809.286C524.172 809.286 537.997 806.19 552.727 804.226C567.512 802.254 581.422 801.146 596.394 800.852C611.512 800.556 626.351 794.034 641.185 791.669C656.119 789.288 671.136 787.717 686.164 786.047C696.861 784.858 707.628 786.399 718.305 784.829C735.75 782.263 753.199 783.944 770.592 782.205C778.587 781.405 786.001 780.612 794.112 780.612C802.957 780.612 803.51 781.697 807.606 775.552" stroke="white" stroke-linecap="round" stroke-linejoin="round"/>
<path d="M805.938 778.893C846.543 778.893 887.148 778.893 927.753 778.893C931.151 778.893 967.642 776.092 968.014 774.885C978.615 740.433 985 703.474 985 667.532C985 660.974 939.666 664.395 934.51 664.395C899.883 664.395 865.774 664.25 831.371 667.445C827.249 667.827 821.142 665.607 821.142 670.669C821.142 683.04 824.52 695.336 824.52 707.963C824.52 724.81 824.52 741.656 824.52 758.503C824.52 763.961 822.831 768.787 822.831 774.188C822.831 779.017 821.901 778.893 816.919 778.893C812.791 778.893 809.767 777.743 805.938 777.325C803.273 777.034 807.628 761.406 807.628 758.503C807.628 738.033 802.56 717.908 802.56 697.681C802.56 694.088 805.048 667.532 800.026 667.532C768.9 667.532 737.774 667.532 706.647 667.532C698.357 667.532 690.068 667.532 681.778 667.532C674.98 667.532 668.927 664.056 662.351 664.395C659.299 664.552 662.351 671.6 662.351 673.806C662.351 687.964 659.514 701.682 659.067 715.806C658.578 731.219 659.602 746.355 656.908 761.64C656.281 765.198 658.293 788.809 654.75 791.441C643.736 799.621 643.769 786.451 643.769 779.677C643.769 757.513 642.08 735.535 642.08 713.366C642.08 705.695 642.857 685.373 637.388 679.731C634.851 677.114 626.997 678.511 623.592 678.511C604.554 678.511 586.179 672.052 567.189 670.669C550.67 669.466 535.117 667.532 518.389 667.532C512.134 667.532 506.192 665.635 500.182 665.963C495.599 666.214 498.493 738.895 498.493 745.52C498.493 761.459 499.939 778.349 496.897 793.881C496.5 795.911 498.316 803.814 495.114 803.989C485.641 804.506 489.986 787.18 490.047 781.333C490.146 771.768 493.425 763.288 493.425 753.798C493.425 742.266 493.425 730.735 493.425 719.204C493.425 700.702 493.425 682.2 493.425 663.698C493.425 640.306 493.973 616.851 493.425 593.465C493.252 586.059 490.047 579.228 490.047 571.768C490.047 564.739 490.047 557.71 490.047 550.681C490.047 544.172 486.312 529.506 495.114 529.506C515.359 529.506 535.662 524.801 556.115 524.801C578.295 524.801 600.474 524.801 622.654 524.801C624.809 524.801 631.773 523.665 631.945 526.369C632.592 536.588 632.303 545.76 635.323 555.822C642.753 580.576 643.769 603.398 643.769 629.104C643.769 642.276 635.886 640.868 623.31 640.868C594.816 640.868 566.812 644.005 538.472 644.005C528.524 644.005 518.576 644.005 508.628 644.005C504.349 644.005 498.638 645.424 501.871 640.171C509.095 628.433 522.301 631.457 534.906 631.457C591.951 631.457 648.937 633.025 705.99 633.025C732.698 633.025 759.58 634.594 786.418 634.594C793.704 634.594 807.628 637.792 807.628 629.54C807.628 599.689 805.938 569.756 805.938 539.789C805.938 536.015 806.94 516.959 801.715 516.959C790.485 516.959 779.254 516.959 768.024 516.959C759.511 516.959 672.487 512.422 672.487 520.88C672.487 533.649 668.869 546.015 666.105 558.436C663.497 570.159 663.751 582.141 661.507 593.814C658.254 610.726 660.662 629.586 660.662 646.793C660.662 653.073 667.7 649.188 672.205 648.71C690.234 646.797 708.244 647.142 726.355 647.142C755.636 647.142 784.916 647.142 814.197 647.142C830.011 647.142 845.875 647.491 861.684 647.142C873.035 646.891 884.81 643.637 896.126 642.436C907.101 641.272 917.608 638.169 928.316 635.814C938.656 633.54 949.656 633.631 960.224 631.805C966.142 630.783 972.293 630.591 978.243 629.801C985.838 628.794 983.311 621.066 983.311 615.685C983.311 585.274 983.311 554.863 983.311 524.452C983.311 520.01 986.443 507.548 979.932 507.548C936.571 507.548 894.031 512.253 850.704 512.253C836.151 512.253 843.102 548.766 843.102 557.216C843.102 585.024 841.413 612.716 841.413 640.606C841.413 643.411 839.789 651.619 843.102 653.067C846.117 654.384 851.578 648.175 854.082 647.142C859.191 645.033 856.678 631.441 856.616 627.449C856.317 608.02 857.066 586.759 854.552 567.498C853.134 556.637 851.745 545.985 849.953 535.17C849.077 529.885 850.51 524.589 849.015 519.311C846.553 510.625 841.024 503.328 838.034 495" stroke="white" stroke-linecap="round" stroke-linejoin="round"/>
<path d="M837.895 497.716C866.388 497.716 896.336 500.05 924.619 496.145C943.147 493.587 962.4 488.29 981.186 488.29C993.881 488.29 992.986 483.821 992.986 473.016C992.986 456.142 992.986 439.268 992.986 422.394C992.986 416.705 993.36 389.333 988.772 386.958C983.366 384.159 974.959 384.968 969.011 384.252C958.854 383.031 948.545 381.459 938.292 381.459C917.875 381.459 897.459 381.459 877.042 381.459C868.801 381.459 860.559 381.459 852.317 381.459C847.849 381.459 846.371 380.682 847.635 384.951C849.902 392.611 849.191 401.331 850.07 409.214C851.785 424.604 850.948 440.289 852.973 455.385C854.414 466.127 854.752 477.257 854.752 488.115C854.752 493.835 856.868 504 848.009 504C833.833 504 819.67 502.429 805.303 502.429C795.376 502.429 786.803 499.529 777.206 499.287C759.362 498.837 741.483 499.665 723.636 499.287C713.558 499.073 706.362 491.859 697.132 489.948C691.8 488.844 681.117 492.855 681.117 485.148C681.117 459.357 676.06 433.48 676.06 408.167C676.06 400.872 675.6 393.452 676.06 386.173C676.29 382.525 695.31 384.601 698.162 384.601C717.039 384.601 735.397 381.459 754.168 381.459C768.465 381.459 782.763 381.459 797.061 381.459C803.46 381.459 812.608 378.825 812.608 386.173C812.608 407.551 812.819 428.744 814.2 449.974C815.103 463.863 817.665 477.507 817.665 491.432C817.665 500.998 812.443 500.841 802.4 498.501C790.504 495.73 774.512 496.145 762.128 496.145C747.206 496.145 732.284 496.145 717.361 496.145C705.574 496.145 694.585 493.003 682.803 493.003C674.374 493.003 665.945 493.003 657.516 493.003C631.186 493.003 604.72 496.895 578.284 493.701C554.136 490.784 534.735 489.424 510.853 493.352C504.575 494.384 485.934 497.716 492.31 497.716" stroke="white" stroke-linecap="round" stroke-linejoin="round"/>
<path d="M489.024 498C489.024 471.567 489.024 445.134 489.024 418.701C489.024 406.533 489.024 394.364 489.024 382.196C489.024 376.306 488.235 371.913 495.761 375.035C501.918 377.589 511.459 376.759 518.03 377.305C532.837 378.537 547.522 378.528 562.381 378.528C576.915 378.528 591.449 378.528 605.983 378.528C608.736 378.528 638.72 376.946 638.919 380.1C639.445 388.449 637.235 396.786 637.235 405.252C637.235 415.616 637.235 425.979 637.235 436.343C637.235 452.042 638.919 467.973 638.919 483.852C638.919 494.215 598.596 490.29 591.574 491.363C577.297 493.543 563.199 494.856 548.72 494.856C538.387 494.856 526.196 496.707 516.72 492.411C504.403 486.827 511.646 465.881 519.34 458.7C531.43 447.415 564.548 442.47 579.971 449.268C592.677 454.868 598.498 466.381 598.498 479.136C598.498 499.163 572.387 475.182 566.123 472.499C547.684 464.599 530.29 457.401 531.129 437.041C531.564 426.492 545.528 422.068 554.708 422.544C564.685 423.061 562.898 442.203 556.392 445.775C552.4 447.966 548.689 447.922 544.603 449.617C542.793 450.368 531.521 452.412 537.866 452.412" stroke="white" stroke-linecap="round" stroke-linejoin="round"/>
<path d="M559.872 444.202C585.125 444.202 610.174 445.772 635.318 445.772C655.087 445.772 675.156 450.483 694.664 450.483C719.575 450.483 745.134 451.003 769.83 453.71C777.227 454.521 794.074 455.484 794.074 465.399C794.074 471.962 795.759 478.193 795.759 485.025C795.759 493.237 720.609 488.166 712.449 488.166C709.932 488.166 698.675 489.571 698.128 486.508C697.118 480.864 700.758 476.566 703.089 471.679C706.372 464.795 704.397 456.641 709.079 449.785C717.57 437.352 725.699 424.719 740.157 418.731C746.505 416.102 753.443 413.752 758.316 419.429C762.973 424.854 762.917 432.413 757.848 437.137C753.32 441.356 751.238 446.618 746.054 450.483C737.159 457.114 735.542 444.732 733.043 439.492C722.923 418.275 758.119 414.152 772.544 411.578C782.439 409.813 794.848 409.913 804.932 409.659C820.038 409.279 834.759 405.679 849.676 403.728C866.312 401.552 883.21 404.949 899.38 404.949C903.737 404.949 916.222 407.471 919.412 410.444C920.241 411.217 916.867 411.64 916.23 412.102C913.978 413.734 911.347 415.419 909.584 417.51C906.909 420.682 905.278 424.888 905.278 428.85C905.278 432.466 903.832 436.351 908.647 436.351C912.559 436.351 915.058 439.109 918.757 439.492C924.502 440.087 937.291 444.235 937.291 433.996C937.291 429.833 939.709 415.94 932.985 415.94C927.526 415.94 915.077 416.533 912.017 421.522C904.359 434.012 895.777 448.63 895.168 463.393C894.847 471.172 894.683 477.332 895.168 485.025C895.337 487.694 915.315 483.455 919.599 483.455C931.39 483.455 964.249 489.609 964.249 474.383C964.249 463.686 948.588 448.658 937.291 447.342C934.28 446.992 933.255 442.047 930.551 440.713C925.978 438.457 925.321 446.697 924.186 450.134C921.165 459.282 922.127 471.52 922.127 481.013C922.127 492.546 918.757 504.195 918.757 515.643C918.757 522.689 916.166 527.168 915.387 533.699C914.797 538.648 910.964 536.903 909.022 539.98C906.078 544.643 903.593 548.08 903.593 553.762C903.593 555.723 902.326 563.224 903.967 564.753C906.577 567.185 915.62 564.425 917.821 562.747C924.531 557.63 926.735 554.95 925.403 546.26C924.808 542.381 914.908 528.679 910.332 536.142C906.907 541.728 903.593 546.436 903.593 553.326C903.593 562.153 905.789 570.187 905.278 579.233C904.537 592.339 895.73 603.657 891.424 615.695C889.835 620.138 880.612 654.251 890.113 646.661C894.182 643.412 897.955 639.736 903.593 638.985C911.932 637.875 918.991 635.884 927.181 634.188C938.915 631.758 953.499 631.99 964.249 626.686C971.769 622.976 967.034 607.974 964.249 602.785C959.899 594.677 951.089 586.796 942.346 582.722C926.075 575.141 905.93 585.514 889.365 585.514C884.721 585.514 879.391 587.961 874.949 589.439C869.607 591.217 863.733 589.666 858.194 590.311C845.483 591.792 833.816 592.99 821.407 589.003C813.178 586.359 804.324 587.084 795.759 587.084C787.217 587.084 779.591 585.514 771.327 585.514C763.214 585.514 752.442 581.54 744.275 580.018C730.917 577.529 719.799 580.758 710.577 589.352C705.045 594.507 697.023 604.276 694.664 611.421C692.526 617.896 691.007 621.627 698.97 621.627C709.212 621.627 719.243 620.056 729.486 620.056C743.455 620.056 757.329 619.3 771.047 621.976C778.984 623.524 777.734 620.125 774.604 613.776C771.545 607.572 769.633 600.688 767.115 594.237C759.911 575.776 743.879 575.036 726.677 567.021C720.568 564.174 711.827 562.069 711.513 554.46C711.119 544.909 715.219 541.55 724.992 541.55C741.65 541.55 739.811 559.923 725.929 563.619C706.554 568.778 685.026 577.663 663.961 577.663C652.28 577.663 640.314 579.233 628.391 579.233C614.591 579.233 601.248 582.373 587.672 582.373C578.668 582.373 570.293 583.944 561.463 583.944C547.548 583.944 537.276 584.537 528.794 573.04C525.157 568.11 526.713 567.45 529.543 562.834C532.711 557.668 541.53 557.251 547.235 557.251C557.591 557.251 561.556 562.834 561.556 571.383C561.556 579.145 562.677 582.373 571.666 582.373C584.041 582.373 592.1 583.677 601.994 590.922C611.508 597.888 617.035 607.377 621.371 617.701C622.888 621.316 628.239 627.907 621.932 627.907C612.603 627.907 603.273 627.907 593.944 627.907C577.844 627.907 561.744 627.907 545.643 627.907C533.442 627.907 514.901 631.566 519.808 614.648C521.618 608.407 532.014 589.491 539.653 588.654C544.895 588.079 554.437 580.067 553.225 590.224C551.937 601.033 557.149 609.592 558.093 620.144C559.99 641.358 567.661 662.265 568.296 683.559C568.635 694.934 568.296 706.371 568.296 717.753C568.296 720.241 568.148 722.771 568.296 725.255C568.346 726.086 570.226 727.469 569.607 728.046C567.201 730.288 560.546 727.083 557.531 729.268C549.783 734.883 550.523 751.947 561.463 751.947C568.585 751.947 588.515 753.838 588.515 743.224C588.515 727.947 573.032 725.255 559.872 725.255C547.192 725.255 541.338 733.406 541.338 743.748C541.338 753.881 538.235 763.175 534.598 772.708C531.603 780.556 531.726 790.706 531.228 799.051C531.036 802.267 541.962 796.372 546.579 795.213C562.062 791.329 582.51 792.771 598.344 792.771C615.767 792.771 615.822 775.646 607.798 763.636C599.333 750.968 588.613 751.947 574.1 751.947C562.814 751.947 541.34 755.248 534.598 764.857C528.83 773.078 547.297 763.916 549.388 763.287C563.612 759.011 581.273 759.81 596.191 757.879C615.552 755.373 635.381 750.802 654.507 747.237C664.985 745.284 680.736 740.151 688.018 732.233C695.316 724.299 715.132 712.634 724.992 709.903C734.046 707.394 743.876 706.349 751.951 710.775C761.204 715.847 759.381 731.536 747.645 731.536C737.469 731.536 726.546 732.569 716.849 729.18C715.024 728.543 702.337 719.287 709.079 717.492C712.329 716.626 723.464 712.028 724.899 716.707C727.048 723.718 723.747 730.101 717.504 733.804C703.664 742.011 691.687 754.655 688.299 770.44C687.662 773.406 685.873 787.02 688.299 789.281C690.99 791.789 701.227 778.907 702.714 777.767C713.121 769.79 727.46 769.219 740.344 769.219C748.718 769.219 756.385 766.078 764.588 766.078C769.209 766.078 772.17 767.266 772.17 762.066C772.17 757.724 771.39 750.695 766.928 748.022C758.684 743.084 740.902 734.676 730.796 734.676C718.551 734.676 754.308 742.527 766.554 742.527C780.47 742.527 794.386 742.527 808.302 742.527C813.722 742.527 818.56 743.108 823.466 740.956C837.688 734.72 849.538 725.433 864.84 721.766C877.657 718.695 889.738 721.914 902.001 725.342C917.094 729.562 921.286 738.603 931.394 748.022C935.042 751.421 935.309 756.498 938.04 760.496C942.847 767.536 932.586 766.01 928.305 766.078C913.985 766.309 899.376 767.96 884.684 767.649C869.072 767.318 873.282 744.917 877.383 735.635C881.804 725.631 888.778 723.685 899.38 723.685C904.726 723.685 911.283 713.148 910.239 708.769C908.34 700.806 886.34 697.681 880.098 698.65C873.679 699.647 881.584 705.719 883.374 706.414C890.583 709.213 898.993 711.526 906.588 713.043C943.437 720.401 970.237 687.572 1006.37 687.572C1019.3 687.572 1031.55 695.413 1037.45 706.414C1040.27 711.662 1038.39 721.019 1038.39 726.825" stroke="white" stroke-linecap="round" stroke-linejoin="round"/>
<path d="M1038.74 727.394C1037.59 722.634 1031.67 707 1024.06 707C1018.14 707 1018.02 716.099 1020.61 720.334C1024.97 727.464 1026.65 733.025 1026.65 741.6C1026.65 744.433 1027.82 762.085 1028.38 760.947C1030.88 755.836 1035.33 748.154 1042.19 747.787C1050.71 747.332 1054.54 738.153 1057.35 732.1C1059.85 726.69 1054.77 719.504 1048.71 723.908C1047.6 724.718 1036.58 730.531 1038.74 730.531" stroke="white" stroke-linecap="round" stroke-linejoin="round"/>
</svg>
