<svg width="1145" height="844" viewBox="0 0 1145 844" fill="none" xmlns="http://www.w3.org/2000/svg">
<path d="M1125.89 626.058C1122.18 617.109 1117.23 610.827 1117.23 600.941C1117.23 593.435 1117.23 585.929 1117.23 578.423C1117.23 560.459 1117.23 542.496 1117.23 524.532C1117.23 493.853 1127.62 464.381 1127.62 433.784C1127.62 407.087 1132.22 380.431 1134.93 353.91C1137.67 327.116 1142.87 298.942 1143.21 272.112C1144.3 187.433 1143.21 -66.6304 1143.21 18.0551" stroke="white" stroke-linecap="round" stroke-linejoin="round"/>
<path d="M1143.21 2.46548C1008.93 2.46548 874.655 2.46548 740.377 2.46548C699.733 2.46548 658.548 0.580186 617.968 2.85042C508.571 8.97055 399.745 18.0553 290.1 18.0553C226.875 18.0553 163.65 18.0553 100.424 18.0553C70.332 18.0553 40.4184 21.5197 10.3496 21.5197" stroke="white" stroke-linecap="round" stroke-linejoin="round"/>
<path d="M10.3481 21.5195C10.3481 102.901 10.3481 184.282 10.3481 265.664C10.3481 372.882 4.24674 479.733 1.78334 586.891C1.29923 607.95 1.6871 629.052 1.6871 650.117C1.6871 672.381 -0.219061 695.544 2.64944 717.673C4.47542 731.759 6.88371 745.244 6.88371 759.438C6.88371 776.704 6.09412 793.42 9.96319 810.057C11.1339 815.091 10.4457 826.994 17.2769 826.994C31.0003 826.994 44.7473 826.743 58.4649 827.09C103.211 828.223 146.973 842.056 191.845 842.584C216.587 842.875 241.809 843.723 266.522 842.488C325.8 839.524 385.505 830.884 444.361 823.914C468.122 821.101 490.448 811.93 514.227 809.768C518.417 809.387 523.118 810.487 527.218 809.576C531.086 808.716 532.69 795.094 533.473 792.35" stroke="white" stroke-linecap="round" stroke-linejoin="round"/>
<path d="M533.474 792.35C533.474 777.216 531.47 764.858 541.173 752.509C547.367 744.625 554.278 740.387 562.536 735.187C569.85 730.582 575.82 723.679 581.976 717.865C583.094 716.809 586.956 711.532 588.52 711.706C590.996 711.981 586.595 724.087 586.306 724.794C583.46 731.751 579.132 738.297 577.164 745.58C576.072 749.622 575.887 754.722 574.181 758.476C569.93 767.827 559.397 785.421 547.332 785.421C541.679 785.421 535.206 780.142 535.206 774.258C535.206 766.416 537.271 763.176 541.365 756.744C546.4 748.831 550.602 742.31 557.34 735.572C562.477 730.435 569.556 727.917 574.951 723.062C579.693 718.794 584.184 715.301 590.252 713.054C610.2 705.665 629.678 687.779 646.837 675.522C660.882 665.49 673.141 653.321 686.678 642.611C694.562 636.373 720.403 621.661 710.736 624.422C703.864 626.386 695.498 629.523 688.506 629.523C677.885 629.523 660.822 635.497 653.381 643.765C643.836 654.371 659.358 663.533 669.452 658.874C675.335 656.159 683.351 650.217 687.255 645.113C690.911 640.332 698.333 629.891 704.962 629.523C715.884 628.916 726.414 624.578 737.489 624.326C745.945 624.134 754.437 624.326 762.895 624.326C779.111 624.326 794.068 616.659 807.932 608.736C814.244 605.13 816.921 595.321 821.79 590.452C822.139 590.102 823.587 584.377 824.388 587.18C825.506 591.094 818.416 595.669 816.208 597.958C809.2 605.226 809.304 615.61 805.43 624.326C803.191 629.364 802.535 638.58 803.794 644.247C805.303 651.036 818.849 648.577 823.714 648.577C845.111 648.577 835.273 627.443 831.413 613.933C826.93 598.244 825.577 583.405 826.216 566.779C826.837 550.644 834.877 535.087 834.877 518.662C834.877 514.364 835.359 498.83 834.877 511.348C834.496 521.262 821.291 528.196 813.129 530.402C798.618 534.324 786.821 544.038 791.668 561.005C793.222 566.443 810.51 556.794 812.359 555.038C818.497 549.207 822.752 542.92 822.752 534.252C822.752 519.779 823.482 502.365 836.898 494.315C847.669 487.852 859.015 482.842 868.174 474.01C871.686 470.623 877.485 468.445 879.915 464.194C882.015 460.518 881.647 464.839 881.647 466.696C881.647 487.931 881.647 509.167 881.647 530.402C881.647 538.187 898.172 539.448 904.165 539.448C911.542 539.448 911.787 531.64 913.789 525.398C915.583 519.805 911.289 517.809 908.496 513.465C904.669 507.512 899.317 503.321 895.504 497.49C891.147 490.826 887.856 480.844 885.496 473.24C880.771 458.015 887.149 440.102 893.772 426.855C898.656 417.088 907.041 404.683 909.17 394.039C909.878 390.499 911.549 372.573 909.939 376.525C903.095 393.324 899.141 403.783 882.417 411.265C868.824 417.346 853.117 408.797 840.074 418.579C833.158 423.766 829.561 429.349 831.509 438.114C833.322 446.274 858.362 438.593 862.593 436.478C891.812 421.869 897.467 393.013 908.015 364.496C909.04 361.724 911.734 351.555 915.425 350.734C919.491 349.831 918.419 350.807 920.14 347.174C922.156 342.917 931.048 335.048 926.684 335.048" stroke="white" stroke-linecap="round" stroke-linejoin="round"/>
<path d="M924.952 335.048C916.2 335.048 909.893 335.344 901.856 332.354C899.876 331.617 895.77 329.969 893.772 329.852C887.782 329.499 888.098 352.085 891.078 355.065C896.738 360.725 923.297 345.639 930.533 343.709C940.073 341.165 943.881 342.149 952.282 345.057C957.986 347.031 966.646 343.083 958.826 337.165C949.93 330.434 932.571 329.852 921.487 329.852C915.384 329.852 909.624 329.468 903.78 331.199C897.192 333.151 879.431 332.606 875.68 339.571C868.62 352.682 910.964 345.383 916.387 344.479C938.791 340.745 961.722 331.584 984.52 331.584C992.193 331.584 992.881 331.018 988.081 335.818C984.019 339.88 985.579 346.443 985.579 352.37C985.579 362.475 985.579 372.579 985.579 382.684C985.579 389.52 975.279 392.75 973.453 399.14C971.156 407.18 968.257 411.948 968.257 420.696C968.257 432.242 979.76 424.492 986.926 421.658C999.507 416.685 1013.29 411.392 1013.29 428.587C1013.29 437.97 1003.92 439.932 997.319 444.177C988.912 449.582 983.847 456.83 983.847 467.081C983.847 477.859 983.248 488.838 983.847 499.608C984.107 504.288 996.54 493.786 998.089 492.294C1016.85 474.226 1033.7 453.965 1056.98 441.098C1061.53 438.588 1069.39 434.214 1074.69 433.784C1078.13 433.505 1088.21 432.904 1084.89 431.955C1077.12 429.735 1073.84 426.855 1065.26 426.855C1053.26 426.855 1043.53 431.513 1032.25 435.612C1017.71 440.899 1000.27 446.513 991.738 460.729C990.37 463.009 983.391 477.763 988.273 480.553C996.813 485.433 998.41 475.42 1000.21 468.235C1002.31 459.826 1003.7 453.293 1010.89 448.315C1016.64 444.332 1062.17 424.138 1063.53 426.855" stroke="white" stroke-linecap="round" stroke-linejoin="round"/>
</svg>
