<svg width="1151" height="817" viewBox="0 0 1151 817" fill="none" xmlns="http://www.w3.org/2000/svg">
<path d="M6.6947 0.712402C6.6947 105.016 6.6947 209.32 6.6947 313.624C6.6947 385.723 3.52862 458.543 8.06059 530.551C9.94773 560.536 9.52425 591.047 8.68144 621.072C7.51398 662.663 7.81225 704.259 7.81225 745.864C7.81225 759.916 7.81225 773.968 7.81225 788.02C7.81225 792.287 17.2297 788.206 19.1118 787.399C41.2072 777.93 66.4053 777.306 90.0136 775.789C135.25 772.884 181.142 775.169 226.478 775.169C242.579 775.169 258.68 775.169 274.78 775.169C291.003 775.169 307.015 773.122 323.207 772.934C356.517 772.546 389.854 772.934 423.165 772.934C550.177 772.934 677.652 782.116 803.502 799.196C843.455 804.618 883.654 812.045 923.886 814.779C949.638 816.529 975.917 815.599 1001.68 814.779C1022.66 814.112 1043.89 812.81 1064.51 808.633C1073.33 806.845 1082.87 801.99 1091.83 801.99C1101.14 801.99 1110.45 801.99 1119.77 801.99" stroke="white" stroke-linecap="round" stroke-linejoin="round"/>
<path d="M1.10693 2.94786C102.534 2.94786 203.961 2.94786 305.389 2.94786C365.819 2.94786 426.249 2.94786 486.679 2.94786C540.643 2.94786 594.744 2.20052 648.66 4.9346C702.598 7.6698 755.175 17.118 808.531 24.3674C834.143 27.8473 860.209 31.5615 886.076 31.9419C903.576 32.1992 921.236 32.516 938.724 31.7556C951.645 31.1938 962.117 28.1536 974.113 23.6845C994.301 16.1634 1011.31 5.59724 1033.34 3.81706C1050.28 2.44815 1065.03 3.38757 1081.33 8.53557C1095.91 13.1394 1111.02 14.7177 1125.85 17.4138C1129.34 18.0489 1133.35 18.4522 1136.9 19.711C1145.41 22.7228 1147.7 22.5357 1147.7 31.1347C1147.7 40.1882 1149.94 48.9879 1149.94 58.2662C1149.94 77.754 1147.23 96.555 1144.41 115.82C1141.37 136.65 1135.19 157.287 1133.42 178.278C1132.15 193.476 1134.91 207.893 1136.28 222.855C1138.44 246.373 1136.23 269.982 1129.82 292.577C1116.91 338.117 1108.28 384.461 1107.54 431.898C1107.23 451.486 1107.43 471.103 1107.47 490.693C1107.54 523.762 1106.77 557.62 1113.06 590.278C1114 595.148 1117.51 611.44 1123.12 614.243" stroke="white" stroke-linecap="round" stroke-linejoin="round"/>
<path d="M1116.71 803.312C1123.49 793.763 1130.79 778.197 1124.05 766.774C1116.08 753.272 1097.22 748.526 1083.56 743.816C1068.8 738.727 1052.64 736.86 1037.07 736.557C1021.36 736.252 1005.56 735.991 989.971 737.985C975.264 739.865 960.496 740.921 945.685 740.921C936.412 740.921 925.786 740.442 917.426 736.15C899.912 727.156 879.82 723.608 862.824 713.355C851.868 706.745 840.156 701.526 829.141 695.086C825.413 692.907 822.218 688.022 821.679 683.709C821.275 680.478 820.654 676.627 819.11 673.759C817.988 671.677 818.747 668.388 817.968 666.052" stroke="white" stroke-linecap="round" stroke-linejoin="round"/>
<path d="M817.968 666.052C818.008 664.08 817.795 661.503 819.109 659.813C819.452 659.372 821.248 657.898 821.597 659.119C821.937 660.312 824.094 661.378 825.145 662.545C827.719 665.405 829.159 669.039 833.056 670.456C836.269 671.624 838.142 671.533 839.417 668.091C841.025 663.749 839.034 660.564 836.318 657.244C832.807 652.952 830.732 647.546 827.183 643.134C823.182 638.16 820.56 634.023 817.804 628.291C816.47 625.514 810.233 608.843 817.234 608.065C822.236 607.509 829.99 602.498 833.79 608.024C834.998 609.782 836.744 611.718 838.194 613.285C840.81 616.114 842.269 619.572 844.718 622.501C847.717 626.087 850.354 630.659 854.831 632.45C856.909 633.282 858.505 634.489 860.907 634.489C865.135 634.489 864.491 628.311 863.762 625.314C861.163 614.629 847.61 610.001 845.901 598.89C844.891 592.326 854.638 591.957 859.235 593.548C863.982 595.191 870.095 604.582 872.978 608.391C878.148 615.224 882.065 623.205 888.269 629.188C895.49 636.151 900.823 627.391 900.136 620.176C899.589 614.438 892.21 610.266 888.759 606.026C886.83 603.656 885.133 600.804 883.661 598.156C880.974 593.319 889.543 594.853 892.103 594.853C899.664 594.853 902.235 599.447 907.843 603.987C910.809 606.388 915.591 610.665 915.591 614.671" stroke="white" stroke-linecap="round" stroke-linejoin="round"/>
<path d="M915.591 614.671C917.713 618.915 918.659 622.745 923.665 622.745C927.569 622.745 928.543 621.064 930.271 617.607C934.329 609.491 930.705 598.472 933.207 589.715C934.048 586.771 936.03 586.779 938.712 586.779C942.722 586.779 943.353 591.843 944.584 594.853C946.575 599.719 948.407 603.577 951.15 608.065C953.019 611.124 956.256 614.906 957.266 618.341C959.156 624.767 964.45 628.866 967.542 634.489C974.448 647.045 987.793 649.235 1000.33 653.533C1019.99 660.275 1040.61 664.337 1060.52 670.089C1070.82 673.064 1080.74 677.033 1090.73 680.814C1099.13 683.99 1107.77 687.493 1115.24 692.476" stroke="white" stroke-linecap="round" stroke-linejoin="round"/>
</svg>
