<svg width="1150" height="826" viewBox="0 0 1150 826" fill="none" xmlns="http://www.w3.org/2000/svg">
<path d="M1124.18 612.317C1124.18 587.382 1120.73 563.285 1120.73 538.386C1120.73 494.635 1124.93 451.817 1129.75 408.381C1136.33 349.204 1148.38 291.316 1148.38 231.713C1148.38 178.841 1148.38 125.969 1148.38 73.0962" stroke="white" stroke-linecap="round" stroke-linejoin="round"/>
<path d="M1148.38 73.0958C1148.38 58.4054 1148.38 43.7151 1148.38 29.0248C1148.38 22.4184 1149.89 10.4212 1145.69 5.02101C1142.72 1.19916 1121.41 3.96485 1118.23 3.96485C1097.84 3.96485 1077.46 3.96485 1057.07 3.96485C1019.71 3.96485 982.523 2.23657 945.211 2.23657C797.745 2.23657 650.448 0.508301 502.965 0.508301C396.519 0.508301 290.121 3.96485 183.619 3.96485C143.741 3.96485 103.862 3.96485 63.984 3.96485C45.1937 3.96485 -11.0712 7.42139 7.71912 7.42139" stroke="white" stroke-linecap="round" stroke-linejoin="round"/>
<path d="M0.805664 3.96484C0.805664 85.6867 2.23861 166.816 5.99048 248.419C7.31674 277.265 8.55887 305.452 12.1355 334.065C14.9914 356.912 18.0884 380.159 18.0884 403.196C18.0884 446.89 21.5449 490.643 21.5449 534.353C21.5449 583.896 21.5449 633.44 21.5449 682.984C21.5449 695.594 21.5449 708.204 21.5449 720.814C21.5449 727.985 23.1785 735.364 18.4725 740.593C14.5044 745.002 18.0884 767.962 18.0884 773.91C18.0884 787.727 19.4538 783.416 31.1465 783.416C49.4783 783.416 65.839 790.329 84.1468 790.329C170.699 790.329 256.575 786.209 343.004 782.072C404.881 779.109 465.263 765.448 527.065 761.812C574.824 759.003 623.143 760.948 670.991 760.948C689.874 760.948 708.757 760.948 727.64 760.948C756.477 760.948 787.542 773.63 815.206 780.919C852.863 790.842 889.671 803.609 927.256 813.661C950.416 819.855 972.841 824.894 996.867 824.894C1003.06 824.894 1010.56 821.42 1016.65 819.71C1034.87 814.585 1052.46 808.328 1071.18 804.923C1080.17 803.289 1107.39 800.699 1098.26 800.699" stroke="white" stroke-linecap="round" stroke-linejoin="round"/>
<path d="M1098.26 800.699C1098.26 778.552 1090.47 758.456 1084.82 737.137C1079.07 715.459 1077.69 692.327 1070.61 671.078C1062.54 646.888 1057.05 622.449 1054.67 596.955C1052.42 572.945 1046.73 549.209 1043.34 525.327C1039.09 495.408 1034.96 465.288 1029.03 435.649C1022.2 401.47 1019.35 364.946 1004.07 333.201C995.212 314.806 978.847 301.147 969.503 283.177C958.988 262.957 942.421 251.406 926.296 236.322C903.905 215.375 881.404 194.983 859.757 173.336C857.864 171.442 852.28 164.694 849.388 164.694C843.791 164.694 833.702 171.971 828.456 173.72C797.626 183.997 766.685 193.643 736.282 205.213C712.158 214.393 687.563 224.802 662.542 231.329C653.262 233.75 644.471 236.393 635.466 239.394C632.162 240.495 621.998 242.467 625.48 242.467C629.833 242.467 634.186 242.467 638.539 242.467C646.813 242.467 650.828 250.75 655.821 256.197C664.578 265.75 673.505 274.497 681.553 284.809C703.406 312.808 721.042 343.926 740.411 373.623C775.539 427.487 795.051 489.786 811.75 551.443C816.904 570.476 823.464 590.312 823.464 610.205C823.464 622.535 830.535 614.263 837.29 609.244C845.796 602.926 858.489 602.65 868.399 599.835C880.636 596.358 893.286 594.713 905.653 591.578C929.13 585.626 953.486 581.651 976.32 573.431C997.096 565.951 1020.04 564.671 1040.46 558.837C1047.75 556.752 1052.48 556.752 1048.91 546.547C1042.71 528.844 1044.68 509.372 1041.61 490.954C1039.39 477.61 1040.79 463.645 1039.11 450.243C1036.76 431.377 1029.64 412.352 1023.75 394.555C1016.44 372.474 1009 351.287 999.363 330.224C993.481 317.371 981.498 308.684 975.552 295.659C969.555 282.523 961.57 270.336 954.044 258.021C950.218 251.76 941.62 237.282 933.209 237.282C925.063 237.282 917.608 238.438 909.589 239.106C885.613 241.104 864.378 246.906 842.475 256.293C831.509 260.992 820.534 265.18 809.638 270.023C797.939 275.222 779.319 277.97 770.271 287.018C766.668 290.621 784.989 282.884 787.17 281.833C799.441 275.917 814.084 273.572 827.304 270.503C852.273 264.707 874.853 261.94 900.276 259.365C906.408 258.744 925.293 253.865 916.406 266.662C903.482 285.274 881.407 291.401 862.35 302.092C835.298 317.267 807.521 331.812 782.081 349.62C777.353 352.929 754.822 363.553 773.344 358.261C786.888 354.391 799.109 348.329 812.326 343.571C829.464 337.401 848.021 335.169 865.326 330.224C873.193 327.977 870.563 330.208 864.942 334.065C855.612 340.469 847.91 344.723 836.906 347.891C818.436 353.208 795.586 361.971 785.058 379.384C783.502 381.957 778.873 389.37 784.866 389.37C790.33 389.37 794.02 387.395 798.788 384.953C808.38 380.04 818.772 376.64 828.841 372.855C860.733 360.867 892.809 350.809 926.104 343.571C936.906 341.222 951.812 341.43 960.765 348.755C964.032 351.428 969.202 362.322 962.494 363.542C951.604 365.522 940.696 364.778 929.656 366.134C911.983 368.305 900.498 373.548 885.489 382.553C866.372 394.023 841.526 405.873 825.576 421.823C821.869 425.53 823.029 428.992 828.264 429.12C839.999 429.406 853.573 418.159 864.174 413.566C877.213 407.915 889.855 401.001 904.116 399.355C908.174 398.887 925.034 394.925 928.504 398.395C935.575 405.465 871.858 421.572 868.399 422.207C853.996 424.85 826.92 435.356 826.92 454.18C826.92 457.893 833.071 463.671 834.793 467.43C838.149 474.75 840.639 482.605 841.611 490.57C842.042 494.108 841.519 503.436 846.891 503.436C856.849 503.436 864.988 499.092 873.776 494.698C903.247 479.963 933.979 466.631 965.758 457.733C971.165 456.219 985.59 456.568 984.193 465.414C982.681 474.991 957.622 478.734 951.548 480.2C930.418 485.3 909.573 491.61 889.33 499.595C873.538 505.825 849.388 522.559 849.388 541.842C849.388 550.732 844.299 555.99 856.301 555.284C859.704 555.084 871.513 551.06 873.488 557.972C876.339 567.951 865.707 570.828 859.757 575.927C852.81 581.882 854.573 588.799 854.573 597.627C854.573 610.198 860.967 621.632 859.661 634.689C858.495 646.35 838.171 652.208 828.649 653.796" stroke="white" stroke-linecap="round" stroke-linejoin="round"/>
</svg>
