<svg width="1131" height="825" viewBox="0 0 1131 825" fill="none" xmlns="http://www.w3.org/2000/svg">
<path d="M1125.68 609.501C1125.68 564.243 1125.75 519.018 1124.47 473.774C1123.61 443.519 1117.19 415.009 1112.51 385.196C1108.96 362.639 1109.32 339.182 1108.17 316.379C1106.39 280.785 1106.42 244.977 1107.05 209.34C1107.55 180.892 1112.85 152.446 1117.88 124.489C1119.19 117.229 1121 109.063 1121 101.694C1121 84.7511 1128.8 69.2725 1128.8 52.6385C1128.8 44.8231 1131.7 2.2323 1127.94 1.15576C1126.28 0.68352 1121.52 4.89524 1119.1 5.40265C1109.04 7.50747 1098.83 8.28542 1088.67 9.73621C1020.57 19.4654 951.683 24.971 882.916 26.1171C841.448 26.8082 800.193 32.0694 758.716 32.2707C730.203 32.4092 701.685 32.2707 673.172 32.2707C608.6 32.2707 544.287 32.5438 479.808 29.2372C400.356 25.1628 320.395 27.5905 240.856 27.5905C220.026 27.5905 199.196 27.5905 178.366 27.5905C153.237 27.5905 128.401 30.7107 103.308 30.7107C93.7506 30.7107 74.254 34.584 66.3864 27.5905C61.6531 23.3831 56.4442 21.945 50.0922 21.4368C42.1247 20.7994 32.8672 23.0019 25.0442 21.2635C18.7313 19.8606 10.0382 18.3963 3.37636 19.8767C-1.62789 20.9888 2.42298 92.8754 2.42298 97.1008C2.42298 119.372 0.520915 142.641 3.28969 164.791C6.09256 187.214 8.16518 209.789 10.2234 232.308C12.7294 259.727 10.3119 287.255 12.6502 314.646C14.7744 339.529 16.3004 364.717 16.4637 389.703C16.7741 437.194 16.4637 484.698 16.4637 532.19C16.4637 563.854 16.4637 595.518 16.4637 627.182C16.4637 650.075 18.1499 673.705 16.117 696.519C14.323 716.652 7.10323 736.132 7.10323 756.496C7.10323 761.771 6.12832 768.143 7.27657 773.31C8.64041 779.447 11.7835 783.901 11.7835 790.471C11.7835 804.035 13.3289 805.784 27.9043 804.165C63.9344 800.162 103.521 798.079 139.71 801.738C173.089 805.113 205.524 814.983 239.035 818.552C315.01 826.644 392.607 823.233 468.888 823.233C506.156 823.233 543.425 823.233 580.694 823.233C595.813 823.233 611.002 823.641 626.109 822.886C644.102 821.986 661.539 817.963 679.325 815.432C738.93 806.95 796.182 786.618 855.615 777.99C881.013 774.303 906.166 768.328 931.712 765.856C970.095 762.142 1008.21 756.891 1046.46 752.682C1072.99 749.764 1098.98 749.909 1125.68 749.909" stroke="white" stroke-linecap="round" stroke-linejoin="round"/>
</svg>
